<?xml version="1.0" standalone="no"?>
<!DOCTYPE svg PUBLIC "-//W3C//DTD SVG 20010904//EN"
 "http://www.w3.org/TR/2001/REC-SVG-20010904/DTD/svg10.dtd">
<svg version="1.0" xmlns="http://www.w3.org/2000/svg"
 width="32.000000pt" height="48.000000pt" viewBox="0 0 32.000000 48.000000"
 preserveAspectRatio="xMidYMid meet">
<metadata>
Created by potrace 1.10, written by Peter Selinger 2001-2011
</metadata>
<g transform="translate(0.000000,48.000000) scale(0.100000,-0.100000)"
fill="#ffffff" stroke="none">
<path d="M100 330 c0 -5 5 -10 10 -10 22 0 9 -53 -20 -80 -36 -34 -38 -63 -5
-95 35 -36 115 -36 150 0 33 32 31 61 -5 95 -29 27 -42 80 -20 80 6 0 10 5 10
10 0 6 -27 10 -60 10 -33 0 -60 -4 -60 -10z m80 -36 c0 -16 12 -37 30 -54 57
-53 33 -100 -50 -100 -83 0 -107 47 -50 100 18 17 30 38 30 54 0 19 5 26 20
26 15 0 20 -7 20 -26z"/>
<path d="M100 180 c0 -18 7 -20 60 -20 53 0 60 2 60 20 0 18 -7 20 -60 20 -53
0 -60 -2 -60 -20z"/>
</g>
</svg>
