<?xml version="1.0" standalone="no"?>
<!DOCTYPE svg PUBLIC "-//W3C//DTD SVG 20010904//EN"
 "http://www.w3.org/TR/2001/REC-SVG-20010904/DTD/svg10.dtd">
<svg version="1.0" xmlns="http://www.w3.org/2000/svg"
 width="32.000000pt" height="48.000000pt" viewBox="0 0 32.000000 48.000000"
 preserveAspectRatio="xMidYMid meet">
<metadata>
Created by potrace 1.10, written by Peter Selinger 2001-2011
</metadata>
<g transform="translate(0.000000,48.000000) scale(0.100000,-0.100000)"
fill="#ffffff" stroke="none">
<path d="M130 380 c-8 -11 -20 -20 -28 -20 -20 0 -42 -26 -42 -50 0 -24 42
-70 65 -70 11 0 15 -12 15 -50 l0 -50 -50 0 c-27 0 -50 -4 -50 -10 0 -5 9 -10
20 -10 11 0 20 -4 20 -10 0 -5 13 -10 29 -10 16 0 31 -6 34 -12 3 -9 11 -6 24
10 11 12 26 22 32 22 19 0 41 27 41 50 0 12 -18 39 -40 60 -32 31 -40 46 -40
74 0 33 2 36 30 36 17 0 30 3 30 6 0 11 -29 34 -44 34 -9 0 -16 5 -16 10 0 16
-15 11 -30 -10z m10 -70 c0 -23 -4 -30 -20 -30 -16 0 -20 7 -20 30 0 23 4 30
20 30 16 0 20 -7 20 -30z m60 -140 c0 -23 -4 -30 -20 -30 -16 0 -20 7 -20 30
0 23 4 30 20 30 16 0 20 -7 20 -30z"/>
</g>
</svg>
