<?xml version="1.0" standalone="no"?>
<!DOCTYPE svg PUBLIC "-//W3C//DTD SVG 20010904//EN"
 "http://www.w3.org/TR/2001/REC-SVG-20010904/DTD/svg10.dtd">
<svg version="1.0" xmlns="http://www.w3.org/2000/svg"
 width="32.000000pt" height="48.000000pt" viewBox="0 0 32.000000 48.000000"
 preserveAspectRatio="xMidYMid meet">
<metadata>
Created by potrace 1.10, written by Peter Selinger 2001-2011
</metadata>
<g transform="translate(0.000000,48.000000) scale(0.100000,-0.100000)"
fill="#ffffff" stroke="none">
<path d="M43 355 c-26 -28 -30 -79 -9 -101 18 -17 83 -19 89 -1 2 6 8 9 12 5
4 -4 -6 -21 -24 -37 -17 -16 -31 -34 -31 -41 0 -7 -13 -25 -30 -40 -34 -32
-37 -40 -15 -40 18 0 65 44 65 61 0 6 14 24 30 39 17 15 30 33 30 40 0 7 13
25 30 40 17 15 30 34 30 42 0 7 9 20 20 28 24 17 26 30 4 30 -18 0 -44 -23
-44 -40 0 -11 -44 -60 -55 -60 -3 0 -5 18 -5 40 0 33 -3 40 -20 40 -11 0 -20
5 -20 10 0 18 -35 9 -57 -15z m57 -14 c0 -11 6 -22 13 -25 10 -5 10 -7 0 -12
-7 -3 -13 -14 -13 -25 0 -12 -7 -19 -20 -19 -17 0 -20 7 -20 50 0 43 3 50 20
50 13 0 20 -7 20 -19z"/>
<path d="M163 215 c-30 -31 -29 -60 2 -90 47 -48 95 -25 95 45 0 69 -52 93
-97 45z m63 -9 c18 -19 18 -53 -1 -72 -13 -14 -17 -14 -30 0 -18 18 -19 52 -2
71 15 18 16 18 33 1z"/>
</g>
</svg>
