<?xml version="1.0" standalone="no"?>
<!DOCTYPE svg PUBLIC "-//W3C//DTD SVG 20010904//EN"
 "http://www.w3.org/TR/2001/REC-SVG-20010904/DTD/svg10.dtd">
<svg version="1.0" xmlns="http://www.w3.org/2000/svg"
 width="32.000000pt" height="48.000000pt" viewBox="0 0 32.000000 48.000000"
 preserveAspectRatio="xMidYMid meet">
<metadata>
Created by potrace 1.10, written by Peter Selinger 2001-2011
</metadata>
<g transform="translate(0.000000,48.000000) scale(0.100000,-0.100000)"
fill="#ffffff" stroke="none">
<path d="M60 440 c0 -11 5 -20 10 -20 6 0 10 -13 10 -30 0 -23 5 -30 19 -30
11 0 21 6 24 13 2 6 8 9 12 5 12 -12 -22 -38 -49 -38 -19 0 -26 5 -26 20 0 16
-7 20 -30 20 l-30 0 0 -86 c0 -63 4 -89 15 -100 24 -24 45 5 45 60 0 39 3 46
20 46 13 0 20 -7 20 -20 0 -11 -4 -20 -10 -20 -5 0 -10 -13 -10 -30 0 -16 -4
-30 -10 -30 -6 0 -10 -27 -10 -60 0 -33 -4 -60 -10 -60 -5 0 -10 -4 -10 -10 0
-5 9 -10 20 -10 13 0 20 7 20 20 0 11 5 20 10 20 6 0 10 12 10 26 0 14 7 32
15 40 13 13 18 12 40 -10 14 -14 25 -32 25 -41 0 -8 5 -15 10 -15 6 0 10 -9
10 -20 0 -13 7 -20 20 -20 11 0 20 5 20 10 0 6 -4 10 -10 10 -5 0 -10 14 -10
30 0 17 -4 30 -10 30 -5 0 -10 9 -10 20 0 26 12 26 30 0 8 -11 20 -20 28 -20
18 0 46 29 37 38 -4 4 -10 1 -12 -5 -10 -29 -63 -2 -63 31 0 9 -4 16 -10 16
-5 0 -10 14 -10 30 0 23 -4 30 -20 30 -11 0 -20 5 -20 10 0 21 32 9 65 -25 19
-19 35 -41 35 -50 0 -19 7 -19 26 -1 16 17 19 46 4 46 -6 0 -10 37 -10 90 0
53 -4 90 -10 90 -6 0 -10 -30 -10 -70 0 -40 -4 -70 -10 -70 -5 0 -10 12 -10
26 0 29 -21 54 -44 54 -9 0 -16 5 -16 10 0 6 -9 10 -20 10 -26 0 -25 8 2 31
11 11 18 22 15 26 -4 3 -15 -4 -26 -15 -24 -29 -71 -30 -71 -2 0 11 -4 20 -10
20 -5 0 -10 -9 -10 -20z"/>
</g>
</svg>
