<?xml version="1.0" standalone="no"?>
<!DOCTYPE svg PUBLIC "-//W3C//DTD SVG 20010904//EN"
 "http://www.w3.org/TR/2001/REC-SVG-20010904/DTD/svg10.dtd">
<svg version="1.0" xmlns="http://www.w3.org/2000/svg"
 width="32.000000pt" height="48.000000pt" viewBox="0 0 32.000000 48.000000"
 preserveAspectRatio="xMidYMid meet">
<metadata>
Created by potrace 1.10, written by Peter Selinger 2001-2011
</metadata>
<g transform="translate(0.000000,48.000000) scale(0.100000,-0.100000)"
fill="#ffffff" stroke="none">
<path d="M111 324 c-12 -14 -12 -17 0 -25 12 -8 12 -10 0 -18 -12 -8 -12 -12
2 -25 20 -20 54 -20 74 0 14 13 14 17 2 25 -12 8 -12 10 0 18 12 8 12 12 -2
25 -20 20 -58 20 -76 0z m69 -54 c0 -5 -13 -10 -30 -10 -16 0 -30 5 -30 10 0
6 14 10 30 10 17 0 30 -4 30 -10z"/>
<path d="M51 204 c-12 -14 -12 -17 0 -25 12 -8 12 -10 0 -18 -12 -8 -12 -12 2
-25 8 -9 25 -16 37 -16 12 0 29 7 37 16 14 13 14 17 2 25 -12 8 -12 10 0 18
12 8 12 12 -2 25 -20 20 -58 20 -76 0z m69 -54 c0 -5 -13 -10 -30 -10 -16 0
-30 5 -30 10 0 6 14 10 30 10 17 0 30 -4 30 -10z"/>
<path d="M171 204 c-12 -14 -12 -17 0 -25 12 -8 12 -10 0 -18 -12 -8 -12 -12
2 -25 20 -20 54 -20 74 0 14 13 14 17 2 25 -12 8 -12 10 0 18 12 8 12 12 -2
25 -20 20 -58 20 -76 0z m69 -54 c0 -5 -13 -10 -30 -10 -16 0 -30 5 -30 10 0
6 14 10 30 10 17 0 30 -4 30 -10z"/>
</g>
</svg>
