<?xml version="1.0" standalone="no"?>
<!DOCTYPE svg PUBLIC "-//W3C//DTD SVG 20010904//EN"
 "http://www.w3.org/TR/2001/REC-SVG-20010904/DTD/svg10.dtd">
<svg version="1.0" xmlns="http://www.w3.org/2000/svg"
 width="32.000000pt" height="48.000000pt" viewBox="0 0 32.000000 48.000000"
 preserveAspectRatio="xMidYMid meet">
<metadata>
Created by potrace 1.10, written by Peter Selinger 2001-2011
</metadata>
<g transform="translate(0.000000,48.000000) scale(0.100000,-0.100000)"
fill="#ffffff" stroke="none">
<path d="M100 430 c0 -5 -7 -10 -16 -10 -20 0 -44 -24 -44 -44 0 -9 -4 -16
-10 -16 -6 0 -10 -60 -10 -160 0 -100 4 -160 10 -160 6 0 10 60 10 160 0 100
4 160 10 160 6 0 10 9 10 20 0 13 7 20 20 20 11 0 20 5 20 10 0 6 27 10 60 10
33 0 60 -4 60 -10 0 -5 9 -10 20 -10 13 0 20 -7 20 -20 0 -11 5 -20 10 -20 6
0 10 -60 10 -160 0 -100 4 -160 10 -160 6 0 10 60 10 160 0 100 -4 160 -10
160 -5 0 -10 7 -10 16 0 20 -24 44 -44 44 -9 0 -16 5 -16 10 0 6 -27 10 -60
10 -33 0 -60 -4 -60 -10z"/>
<path d="M83 355 c-29 -30 -29 -43 -1 -66 l21 -19 -21 -19 c-31 -26 -31 -96 0
-122 l21 -19 -21 -19 c-12 -10 -22 -26 -22 -35 0 -14 14 -16 100 -16 l100 0 0
145 c0 142 -1 147 -25 170 -34 35 -120 35 -152 0z m145 -152 c12 -12 13 -18 4
-21 -6 -2 -12 -12 -12 -23 0 -10 -4 -19 -10 -19 -5 0 -10 9 -10 19 0 11 -5 21
-12 23 -9 3 -8 9 2 21 19 20 18 20 38 0z"/>
<path d="M200 190 c0 -5 5 -10 10 -10 6 0 10 5 10 10 0 6 -4 10 -10 10 -5 0
-10 -4 -10 -10z"/>
</g>
</svg>
