<?xml version="1.0" standalone="no"?>
<!DOCTYPE svg PUBLIC "-//W3C//DTD SVG 20010904//EN"
 "http://www.w3.org/TR/2001/REC-SVG-20010904/DTD/svg10.dtd">
<svg version="1.0" xmlns="http://www.w3.org/2000/svg"
 width="32.000000pt" height="48.000000pt" viewBox="0 0 32.000000 48.000000"
 preserveAspectRatio="xMidYMid meet">
<metadata>
Created by potrace 1.10, written by Peter Selinger 2001-2011
</metadata>
<g transform="translate(0.000000,48.000000) scale(0.100000,-0.100000)"
fill="#ffffff" stroke="none">
<path d="M72 404 c-11 -12 -10 -17 2 -30 15 -14 17 -14 32 0 14 14 14 18 0 31
-18 18 -18 18 -34 -1z"/>
<path d="M173 305 c-7 -8 -13 -19 -13 -25 0 -15 25 -40 40 -40 15 0 40 25 40
40 0 16 -26 40 -42 40 -7 -1 -19 -7 -25 -15z"/>
<path d="M252 164 c-11 -12 -10 -17 2 -30 15 -14 17 -14 32 0 14 14 14 18 0
31 -18 18 -18 18 -34 -1z"/>
<path d="M73 145 c-7 -8 -13 -19 -13 -25 0 -15 25 -40 40 -40 15 0 40 25 40
40 0 16 -26 40 -42 40 -7 -1 -19 -7 -25 -15z"/>
</g>
</svg>
