<?xml version="1.0" standalone="no"?>
<!DOCTYPE svg PUBLIC "-//W3C//DTD SVG 20010904//EN"
 "http://www.w3.org/TR/2001/REC-SVG-20010904/DTD/svg10.dtd">
<svg version="1.0" xmlns="http://www.w3.org/2000/svg"
 width="32.000000pt" height="48.000000pt" viewBox="0 0 32.000000 48.000000"
 preserveAspectRatio="xMidYMid meet">
<metadata>
Created by potrace 1.10, written by Peter Selinger 2001-2011
</metadata>
<g transform="translate(0.000000,48.000000) scale(0.100000,-0.100000)"
fill="#ffffff" stroke="none">
<path d="M130 343 c-10 -12 -11 -18 -2 -21 16 -5 15 -39 0 -46 -10 -5 -10 -7
0 -12 6 -3 12 -14 12 -24 0 -10 -6 -21 -12 -24 -10 -5 -10 -7 0 -12 16 -7 16
-41 0 -48 -10 -5 -10 -7 0 -12 16 -7 16 -41 0 -48 -10 -5 -10 -7 0 -12 16 -7
16 -41 0 -46 -15 -5 13 -38 32 -38 19 0 47 33 32 38 -16 5 -16 39 1 46 10 5
10 7 0 12 -7 3 -13 14 -13 24 0 10 6 21 13 24 10 5 10 7 0 12 -7 3 -13 14 -13
24 0 10 6 21 13 24 10 5 10 7 0 12 -7 3 -13 14 -13 24 0 10 6 21 13 24 10 5
10 7 0 12 -17 7 -17 41 -1 46 9 3 8 9 -4 21 -21 21 -39 21 -58 0z m50 -13 c0
-5 -9 -10 -20 -10 -11 0 -20 5 -20 10 0 6 9 10 20 10 11 0 20 -4 20 -10z m0
-60 c0 -5 -9 -10 -20 -10 -11 0 -20 5 -20 10 0 6 9 10 20 10 11 0 20 -4 20
-10z m0 -60 c0 -5 -9 -10 -20 -10 -11 0 -20 5 -20 10 0 6 9 10 20 10 11 0 20
-4 20 -10z m0 -60 c0 -5 -9 -10 -20 -10 -11 0 -20 5 -20 10 0 6 9 10 20 10 11
0 20 -4 20 -10z m0 -60 c0 -5 -9 -10 -20 -10 -11 0 -20 5 -20 10 0 6 9 10 20
10 11 0 20 -4 20 -10z m0 -60 c0 -5 -9 -10 -20 -10 -11 0 -20 5 -20 10 0 6 9
10 20 10 11 0 20 -4 20 -10z"/>
</g>
</svg>
