<?xml version="1.0" standalone="no"?>
<!DOCTYPE svg PUBLIC "-//W3C//DTD SVG 20010904//EN"
 "http://www.w3.org/TR/2001/REC-SVG-20010904/DTD/svg10.dtd">
<svg version="1.0" xmlns="http://www.w3.org/2000/svg"
 width="32.000000pt" height="48.000000pt" viewBox="0 0 32.000000 48.000000"
 preserveAspectRatio="xMidYMid meet">
<metadata>
Created by potrace 1.10, written by Peter Selinger 2001-2011
</metadata>
<g transform="translate(0.000000,48.000000) scale(0.100000,-0.100000)"
fill="#ffffff" stroke="none">
<path d="M53 265 c-17 -19 -16 -33 4 -53 12 -12 18 -13 21 -4 5 16 39 16 46 0
5 -10 7 -10 12 0 3 6 14 12 24 12 10 0 21 -6 24 -12 5 -10 7 -10 12 0 7 16 41
16 46 0 5 -15 38 13 38 32 0 19 -33 47 -38 32 -5 -16 -39 -16 -46 1 -5 10 -7
10 -12 0 -7 -17 -41 -17 -48 0 -5 10 -7 10 -12 0 -7 -15 -44 -17 -44 -3 0 14
-13 12 -27 -5z m27 -25 c0 -11 -4 -20 -10 -20 -5 0 -10 9 -10 20 0 11 5 20 10
20 6 0 10 -9 10 -20z m60 0 c0 -11 -4 -20 -10 -20 -5 0 -10 9 -10 20 0 11 5
20 10 20 6 0 10 -9 10 -20z m60 0 c0 -11 -4 -20 -10 -20 -5 0 -10 9 -10 20 0
11 5 20 10 20 6 0 10 -9 10 -20z m60 0 c0 -11 -4 -20 -10 -20 -5 0 -10 9 -10
20 0 11 5 20 10 20 6 0 10 -9 10 -20z"/>
</g>
</svg>
