<?xml version="1.0" standalone="no"?>
<!DOCTYPE svg PUBLIC "-//W3C//DTD SVG 20010904//EN"
 "http://www.w3.org/TR/2001/REC-SVG-20010904/DTD/svg10.dtd">
<svg version="1.0" xmlns="http://www.w3.org/2000/svg"
 width="32.000000pt" height="48.000000pt" viewBox="0 0 32.000000 48.000000"
 preserveAspectRatio="xMidYMid meet">
<metadata>
Created by potrace 1.10, written by Peter Selinger 2001-2011
</metadata>
<g transform="translate(0.000000,48.000000) scale(0.100000,-0.100000)"
fill="#ffffff" stroke="none">
<path d="M0 471 c0 -5 6 -12 13 -14 9 -4 8 -8 -3 -16 -13 -10 -13 -12 0 -21
13 -9 13 -11 0 -20 -13 -9 -13 -11 0 -20 13 -9 13 -11 0 -20 -13 -9 -13 -11 0
-20 13 -9 13 -11 0 -20 -13 -9 -13 -11 0 -21 11 -8 12 -12 3 -16 -7 -2 -13
-13 -13 -24 0 -16 7 -19 50 -19 49 0 50 -1 50 -30 0 -29 -1 -30 -50 -30 -27 0
-50 -4 -50 -10 0 -15 97 -12 104 3 5 10 7 9 12 0 3 -7 23 -13 45 -13 37 0 39
-2 39 -30 0 -28 -2 -30 -39 -30 -22 0 -42 -6 -45 -12 -5 -10 -7 -10 -12 0 -7
14 -104 17 -104 2 0 -5 23 -10 50 -10 49 0 50 -1 50 -30 0 -29 -1 -30 -50 -30
-27 0 -50 -4 -50 -10 0 -15 97 -12 104 3 5 9 7 9 12 0 7 -16 204 -18 204 -3 0
6 -40 10 -100 10 l-100 0 0 30 c0 28 2 30 39 30 22 0 42 6 45 13 5 9 7 9 12 0
7 -15 104 -18 104 -3 0 6 -22 10 -50 10 -49 0 -50 1 -50 30 0 29 1 30 50 30
28 0 50 5 50 10 0 15 -97 12 -104 -2 -5 -10 -7 -10 -12 0 -3 6 -23 12 -45 12
-37 0 -39 2 -39 30 l0 30 100 0 c89 0 123 9 88 23 -10 4 -9 8 2 16 13 10 13
12 0 21 -13 9 -13 11 0 20 13 9 13 11 0 20 -13 9 -13 11 0 20 13 9 13 11 0 20
-13 9 -13 11 0 20 13 9 13 11 0 20 -13 9 -13 11 -1 19 12 8 11 12 -3 27 -15
14 -19 15 -27 3 -8 -12 -10 -12 -19 1 -9 13 -11 13 -20 0 -9 -13 -11 -13 -20
0 -9 13 -11 13 -20 0 -9 -13 -11 -13 -20 0 -9 13 -11 13 -20 0 -9 -13 -11 -13
-20 0 -9 13 -11 13 -20 0 -9 -13 -11 -13 -20 0 -9 13 -11 13 -20 0 -9 -13 -11
-13 -20 0 -9 13 -11 13 -21 0 -8 -11 -12 -12 -16 -2 -5 14 -23 16 -23 3z m63
-23 c4 -10 8 -9 16 2 10 13 12 13 21 0 9 -13 11 -13 20 0 9 13 11 13 20 0 9
-13 11 -13 20 0 9 13 11 13 20 0 9 -13 11 -13 20 0 9 13 11 13 20 0 9 -13 11
-13 20 0 9 13 11 13 20 0 9 -13 11 -13 19 0 6 8 13 11 18 7 4 -5 1 -12 -7 -18
-13 -8 -13 -10 0 -19 13 -9 13 -11 0 -20 -13 -9 -13 -11 0 -20 13 -9 13 -11 0
-20 -13 -9 -13 -11 0 -20 13 -9 13 -11 0 -20 -13 -9 -13 -11 -1 -19 12 -8 11
-12 -3 -27 -15 -14 -19 -15 -27 -3 -8 12 -10 12 -19 -1 -9 -13 -11 -13 -20 0
-9 13 -11 13 -20 0 -9 -13 -11 -13 -20 0 -9 13 -11 13 -21 0 -8 -11 -12 -12
-16 -2 -8 19 -23 14 -23 -8 0 -11 -4 -20 -10 -20 -5 0 -10 9 -10 20 0 22 -15
27 -23 8 -4 -10 -8 -9 -16 2 -10 13 -12 13 -20 0 -6 -8 -13 -11 -18 -7 -4 5
-1 12 7 18 13 8 13 10 0 19 -13 9 -13 11 0 20 13 9 13 11 0 20 -13 9 -13 11 0
20 13 9 13 11 0 20 -13 9 -13 11 0 20 13 8 13 11 1 19 -12 8 -12 11 0 25 17
19 26 20 32 4z"/>
<path d="M40 431 c0 -5 6 -12 13 -14 9 -4 8 -8 -3 -16 -13 -10 -13 -12 0 -21
13 -9 13 -11 0 -20 -13 -9 -13 -11 0 -20 13 -9 13 -11 1 -19 -12 -8 -11 -12 3
-27 15 -14 19 -15 27 -3 8 12 10 12 19 -1 9 -13 11 -13 20 0 9 13 11 13 20 0
9 -13 11 -13 20 0 9 13 11 13 20 0 9 -13 11 -13 20 0 9 13 11 13 20 0 9 -13
11 -13 20 0 9 13 11 13 19 0 6 -8 13 -11 18 -7 4 5 1 12 -7 18 -13 8 -13 10 0
19 13 9 13 11 0 20 -13 9 -13 11 0 20 13 9 13 11 0 20 -13 9 -13 11 -1 19 12
8 11 12 -3 27 -15 14 -19 15 -27 3 -8 -12 -10 -12 -19 1 -9 13 -11 13 -20 0
-9 -13 -11 -13 -20 0 -9 13 -11 13 -20 0 -9 -13 -11 -13 -20 0 -9 13 -11 13
-20 0 -9 -13 -11 -13 -20 0 -9 13 -11 13 -21 0 -8 -11 -12 -12 -16 -2 -5 14
-23 16 -23 3z m63 -23 c4 -10 8 -9 16 2 10 13 12 13 21 0 9 -13 11 -13 20 0 9
13 11 13 20 0 9 -13 11 -13 20 0 9 13 11 13 20 0 9 -13 11 -13 19 0 6 8 13 11
18 7 4 -5 1 -12 -7 -18 -13 -8 -13 -10 0 -19 13 -9 13 -11 0 -20 -13 -9 -13
-11 -1 -19 12 -8 11 -12 -3 -27 -15 -14 -19 -15 -27 -3 -8 12 -10 12 -19 -1
-9 -13 -11 -13 -20 0 -9 13 -11 13 -20 0 -9 -13 -11 -13 -20 0 -9 13 -11 13
-20 0 -9 -13 -11 -13 -20 0 -9 13 -11 13 -19 0 -6 -8 -13 -11 -18 -7 -4 5 -1
12 7 18 13 8 13 10 0 19 -13 9 -13 11 0 20 13 8 13 11 1 19 -12 8 -12 11 0 25
17 19 26 20 32 4z"/>
<path d="M80 391 c0 -5 6 -12 13 -14 9 -4 9 -8 -2 -15 -12 -9 -12 -13 3 -28
15 -14 19 -15 27 -3 8 12 10 12 19 -1 9 -13 11 -13 20 0 9 13 11 13 20 0 9
-13 11 -13 20 0 9 13 11 13 19 0 6 -8 13 -11 18 -7 4 5 1 12 -7 18 -13 8 -13
10 -1 18 12 8 11 12 -3 27 -15 14 -19 15 -27 3 -8 -12 -10 -12 -19 1 -9 13
-11 13 -20 0 -9 -13 -11 -13 -20 0 -9 13 -11 13 -21 0 -8 -11 -12 -12 -16 -2
-5 14 -23 16 -23 3z m63 -23 c4 -10 8 -9 16 2 10 13 12 13 21 0 9 -13 11 -13
19 0 6 8 13 11 17 8 3 -4 -1 -15 -11 -24 -14 -15 -18 -15 -26 -3 -8 12 -10 12
-19 -1 -9 -13 -11 -13 -20 0 -9 13 -11 13 -19 0 -6 -8 -13 -11 -16 -8 -7 7 15
37 27 38 3 0 9 -6 11 -12z"/>
</g>
</svg>
