<?xml version="1.0" standalone="no"?>
<!DOCTYPE svg PUBLIC "-//W3C//DTD SVG 20010904//EN"
 "http://www.w3.org/TR/2001/REC-SVG-20010904/DTD/svg10.dtd">
<svg version="1.0" xmlns="http://www.w3.org/2000/svg"
 width="32.000000pt" height="48.000000pt" viewBox="0 0 32.000000 48.000000"
 preserveAspectRatio="xMidYMid meet">
<metadata>
Created by potrace 1.10, written by Peter Selinger 2001-2011
</metadata>
<g transform="translate(0.000000,48.000000) scale(0.100000,-0.100000)"
fill="#ffffff" stroke="none">
<path d="M120 280 c0 -13 7 -20 20 -20 13 0 20 7 20 20 0 13 -7 20 -20 20 -13
0 -20 -7 -20 -20z"/>
<path d="M133 145 c-15 -17 -17 -45 -3 -45 6 0 10 -9 10 -20 0 -11 -4 -20 -10
-20 -5 0 -10 -4 -10 -10 0 -15 29 -12 46 4 8 8 14 29 14 46 0 17 -6 38 -14 46
-17 17 -18 17 -33 -1z"/>
</g>
</svg>
