<?xml version="1.0" standalone="no"?>
<!DOCTYPE svg PUBLIC "-//W3C//DTD SVG 20010904//EN"
 "http://www.w3.org/TR/2001/REC-SVG-20010904/DTD/svg10.dtd">
<svg version="1.0" xmlns="http://www.w3.org/2000/svg"
 width="32.000000pt" height="48.000000pt" viewBox="0 0 32.000000 48.000000"
 preserveAspectRatio="xMidYMid meet">
<metadata>
Created by potrace 1.10, written by Peter Selinger 2001-2011
</metadata>
<g transform="translate(0.000000,48.000000) scale(0.100000,-0.100000)"
fill="#ffffff" stroke="none">
<path d="M260 360 c0 -48 -3 -60 -16 -60 -22 0 -53 32 -36 38 19 6 14 22 -8
22 -13 0 -20 7 -20 20 0 13 -7 20 -20 20 -13 0 -20 -7 -20 -20 0 -11 -4 -20
-10 -20 -5 0 -10 5 -10 10 0 6 -4 10 -10 10 -5 0 -10 -9 -10 -20 0 -11 -4 -20
-10 -20 -5 0 -10 9 -10 20 0 16 -7 20 -30 20 l-30 0 0 -86 c0 -63 4 -89 15
-100 24 -24 45 5 45 60 0 39 3 46 20 46 16 0 20 -7 20 -30 0 -16 -4 -30 -10
-30 -5 0 -10 -13 -10 -30 0 -16 -4 -30 -10 -30 -5 0 -10 -13 -10 -30 0 -16 -4
-30 -10 -30 -5 0 -10 -4 -10 -10 0 -5 9 -10 20 -10 13 0 20 7 20 20 0 11 5 20
10 20 6 0 10 7 10 16 0 15 23 44 34 44 3 0 6 -8 6 -18 0 -10 9 -24 20 -32 11
-8 20 -22 20 -32 0 -11 7 -18 20 -18 11 0 20 5 20 10 0 6 -4 10 -10 10 -5 0
-10 5 -10 10 0 6 14 10 30 10 35 0 38 10 10 30 -11 8 -20 22 -20 32 0 10 -4
18 -10 18 -5 0 -10 9 -10 19 0 11 -6 21 -12 24 -8 2 -9 8 -4 13 5 5 11 4 13
-3 3 -7 13 -13 24 -13 12 0 19 -7 19 -20 0 -11 5 -20 10 -20 6 0 10 9 10 19 0
11 6 22 13 25 10 5 10 7 0 12 -9 4 -13 29 -13 75 0 39 -4 69 -10 69 -6 0 -10
-27 -10 -60z"/>
</g>
</svg>
