<?xml version="1.0" standalone="no"?>
<!DOCTYPE svg PUBLIC "-//W3C//DTD SVG 20010904//EN"
 "http://www.w3.org/TR/2001/REC-SVG-20010904/DTD/svg10.dtd">
<svg version="1.0" xmlns="http://www.w3.org/2000/svg"
 width="32.000000pt" height="48.000000pt" viewBox="0 0 32.000000 48.000000"
 preserveAspectRatio="xMidYMid meet">
<metadata>
Created by potrace 1.10, written by Peter Selinger 2001-2011
</metadata>
<g transform="translate(0.000000,48.000000) scale(0.100000,-0.100000)"
fill="#ffffff" stroke="none">
<path d="M32 405 c-31 -33 -44 -85 -22 -85 6 0 10 -7 10 -16 0 -20 24 -44 44
-44 9 0 16 -4 16 -10 0 -5 9 -10 20 -10 11 0 20 -4 20 -10 0 -5 12 -10 26 -10
27 0 61 -26 49 -38 -4 -4 -10 -1 -12 6 -3 6 -18 12 -34 12 -16 0 -29 5 -29 10
0 6 -16 10 -36 10 -25 0 -43 7 -55 22 -11 11 -22 19 -25 15 -11 -11 45 -57 71
-57 14 0 25 -4 25 -10 0 -5 -7 -10 -15 -10 -23 0 -65 -46 -65 -70 0 -24 27
-56 38 -45 4 4 1 10 -5 12 -17 6 -16 31 1 49 17 16 46 19 46 4 0 -5 -4 -10
-10 -10 -16 0 -12 -50 5 -67 9 -8 19 -12 23 -8 4 4 1 10 -5 12 -18 6 -16 31 4
51 12 12 18 13 21 4 4 -14 42 -16 42 -2 0 6 9 10 20 10 11 0 20 5 20 10 0 6 9
10 20 10 11 0 20 -4 20 -10 0 -5 9 -10 20 -10 22 0 29 -35 8 -43 -7 -2 -10 -8
-6 -12 11 -11 38 21 38 45 0 12 -13 35 -30 50 -36 33 -37 46 -8 71 11 11 18
22 13 27 -4 4 -10 1 -12 -5 -5 -13 -43 -19 -43 -7 0 3 14 19 30 34 38 36 40
81 5 115 -29 30 -35 31 -35 5 0 -11 5 -20 10 -20 15 0 12 -49 -4 -66 -20 -19
-26 -18 -26 6 0 11 5 20 10 20 18 0 10 31 -15 55 -13 14 -31 25 -39 25 -8 0
-16 6 -19 13 -2 6 -8 9 -12 5 -9 -8 18 -38 35 -38 17 0 40 -26 40 -44 0 -9 -4
-16 -10 -16 -5 0 -10 5 -10 10 0 22 -53 9 -80 -20 -31 -33 -45 -37 -66 -16
-16 17 -19 66 -4 66 6 0 10 9 10 20 0 11 5 20 10 20 6 0 10 5 10 10 0 17 -14
10 -48 -25z m168 -85 c0 -13 -7 -20 -20 -20 -13 0 -20 7 -20 20 0 13 7 20 20
20 13 0 20 -7 20 -20z m-40 -40 c0 -13 -7 -20 -20 -20 -13 0 -20 7 -20 20 0
13 7 20 20 20 13 0 20 -7 20 -20z m60 -20 c0 -13 -7 -20 -20 -20 -13 0 -20 7
-20 20 0 13 7 20 20 20 13 0 20 -7 20 -20z"/>
<path d="M93 365 c-15 -17 -17 -45 -3 -45 6 0 10 9 10 20 0 11 5 20 10 20 6 0
10 5 10 10 0 14 -13 12 -27 -5z"/>
</g>
</svg>
