<?xml version="1.0" standalone="no"?>
<!DOCTYPE svg PUBLIC "-//W3C//DTD SVG 20010904//EN"
 "http://www.w3.org/TR/2001/REC-SVG-20010904/DTD/svg10.dtd">
<svg version="1.0" xmlns="http://www.w3.org/2000/svg"
 width="32.000000pt" height="48.000000pt" viewBox="0 0 32.000000 48.000000"
 preserveAspectRatio="xMidYMid meet">
<metadata>
Created by potrace 1.10, written by Peter Selinger 2001-2011
</metadata>
<g transform="translate(0.000000,48.000000) scale(0.100000,-0.100000)"
fill="#ffffff" stroke="none">
<path d="M40 422 c0 -10 -9 -24 -20 -32 -21 -15 -28 -70 -10 -70 6 0 10 -7 10
-16 0 -20 24 -44 44 -44 9 0 16 -4 16 -10 0 -5 9 -10 20 -10 11 0 20 -4 20
-10 0 -5 12 -10 26 -10 27 0 61 -26 49 -38 -4 -4 -10 -1 -12 6 -3 6 -18 12
-34 12 -16 0 -29 5 -29 10 0 6 -18 10 -40 10 -22 0 -40 5 -40 10 0 6 -9 10
-20 10 -11 0 -20 -4 -20 -10 0 -5 9 -10 20 -10 11 0 20 -4 20 -10 0 -5 14 -10
30 -10 17 0 30 -4 30 -10 0 -5 -7 -10 -15 -10 -25 0 -65 -46 -65 -75 0 -18 5
-25 20 -25 22 0 27 16 8 22 -9 3 -8 9 4 21 18 19 48 23 48 7 0 -5 -4 -10 -10
-10 -5 0 -10 -18 -10 -40 0 -22 5 -40 10 -40 6 0 10 12 10 26 0 29 31 67 38
46 4 -14 42 -16 42 -2 0 6 9 10 20 10 11 0 20 5 20 10 0 6 9 10 20 10 11 0 20
-4 20 -10 0 -5 9 -10 20 -10 11 0 20 -4 20 -10 0 -5 -4 -10 -10 -10 -5 0 -10
-4 -10 -10 0 -5 9 -10 20 -10 32 0 26 46 -10 80 -35 32 -39 60 -10 60 11 0 20
5 20 10 0 6 -13 10 -30 10 -16 0 -30 3 -30 6 0 3 14 19 30 34 45 42 37 120
-13 120 -9 0 -18 6 -20 13 -4 9 -8 8 -17 -3 -9 -11 -13 -12 -17 -2 -6 14 -63
17 -63 2 0 -5 12 -10 26 -10 14 0 32 -6 40 -14 16 -17 19 -46 4 -46 -5 0 -10
5 -10 10 0 22 -53 9 -80 -20 -31 -33 -45 -37 -66 -16 -16 17 -19 66 -4 66 6 0
10 14 10 30 0 17 -4 30 -10 30 -5 0 -10 -8 -10 -18z m206 -36 c8 -8 14 -24 14
-36 0 -20 -21 -50 -34 -50 -3 0 -6 9 -6 20 0 11 5 20 10 20 6 0 10 9 10 20 0
11 -4 20 -10 20 -5 0 -10 5 -10 10 0 14 9 12 26 -4z m-46 -66 c0 -13 -7 -20
-20 -20 -13 0 -20 7 -20 20 0 13 7 20 20 20 13 0 20 -7 20 -20z m-40 -40 c0
-13 -7 -20 -20 -20 -13 0 -20 7 -20 20 0 13 7 20 20 20 13 0 20 -7 20 -20z
m60 -20 c0 -13 -7 -20 -20 -20 -13 0 -20 7 -20 20 0 13 7 20 20 20 13 0 20 -7
20 -20z"/>
<path d="M80 350 c0 -16 5 -30 10 -30 6 0 10 14 10 30 0 17 -4 30 -10 30 -5 0
-10 -13 -10 -30z"/>
</g>
</svg>
