<?xml version="1.0" standalone="no"?>
<!DOCTYPE svg PUBLIC "-//W3C//DTD SVG 20010904//EN"
 "http://www.w3.org/TR/2001/REC-SVG-20010904/DTD/svg10.dtd">
<svg version="1.0" xmlns="http://www.w3.org/2000/svg"
 width="32.000000pt" height="48.000000pt" viewBox="0 0 32.000000 48.000000"
 preserveAspectRatio="xMidYMid meet">
<metadata>
Created by potrace 1.10, written by Peter Selinger 2001-2011
</metadata>
<g transform="translate(0.000000,48.000000) scale(0.100000,-0.100000)"
fill="#ffffff" stroke="none">
<path d="M80 474 c0 -3 23 -27 50 -54 34 -33 50 -57 50 -74 0 -31 -10 -33 -30
-6 -15 21 -50 28 -50 10 0 -14 -38 -12 -42 2 -6 17 -38 -14 -38 -36 0 -9 -4
-16 -10 -16 -5 0 -10 -13 -10 -30 0 -16 5 -30 10 -30 6 0 10 12 10 26 0 23 20
54 34 54 3 0 6 -13 6 -30 0 -16 -4 -30 -10 -30 -5 0 -10 -16 -10 -36 0 -27 7
-43 30 -64 16 -15 30 -35 30 -44 0 -9 5 -16 10 -16 6 0 10 -13 10 -30 0 -16 5
-30 10 -30 6 0 10 14 10 30 0 17 -4 30 -10 30 -15 0 -12 29 4 46 8 8 31 14 50
14 28 0 36 -4 36 -18 0 -10 9 -24 20 -32 12 -8 20 -26 20 -42 0 -15 5 -28 10
-28 6 0 10 35 10 85 0 78 -2 88 -25 110 -18 19 -35 25 -70 25 -38 0 -45 -3
-45 -20 0 -11 -4 -20 -10 -20 -5 0 -10 9 -10 20 0 11 5 20 10 20 6 0 10 9 10
20 0 12 7 20 16 20 9 0 25 10 35 21 l19 22 30 -33 c17 -18 33 -30 36 -27 6 5
-180 197 -191 197 -3 0 -5 -3 -5 -6z"/>
<path d="M60 390 c0 -23 4 -30 20 -30 16 0 20 7 20 30 0 23 -4 30 -20 30 -16
0 -20 -7 -20 -30z"/>
<path d="M260 252 c0 -4 9 -14 20 -22 12 -8 20 -26 20 -42 0 -15 5 -28 10 -28
20 0 10 51 -15 75 -25 26 -35 31 -35 17z"/>
<path d="M40 140 c0 -11 5 -20 10 -20 6 0 10 -18 10 -40 0 -22 5 -40 10 -40 6
0 10 18 10 40 0 22 -4 40 -10 40 -5 0 -10 9 -10 20 0 11 -4 20 -10 20 -5 0
-10 -9 -10 -20z"/>
<path d="M180 132 c0 -4 9 -14 20 -22 12 -8 20 -26 20 -42 0 -15 5 -28 10 -28
20 0 10 51 -15 75 -25 26 -35 31 -35 17z"/>
</g>
</svg>
