<?xml version="1.0" standalone="no"?>
<!DOCTYPE svg PUBLIC "-//W3C//DTD SVG 20010904//EN"
 "http://www.w3.org/TR/2001/REC-SVG-20010904/DTD/svg10.dtd">
<svg version="1.0" xmlns="http://www.w3.org/2000/svg"
 width="32.000000pt" height="48.000000pt" viewBox="0 0 32.000000 48.000000"
 preserveAspectRatio="xMidYMid meet">
<metadata>
Created by potrace 1.10, written by Peter Selinger 2001-2011
</metadata>
<g transform="translate(0.000000,48.000000) scale(0.100000,-0.100000)"
fill="#ffffff" stroke="none">
<path d="M180 450 c0 -5 -9 -10 -20 -10 -22 0 -27 -16 -7 -23 7 -2 8 -8 3 -13
-5 -5 -11 -4 -13 4 -6 14 -83 17 -83 2 0 -5 7 -10 15 -10 18 0 65 -44 65 -60
0 -15 -50 -64 -57 -56 -4 3 4 15 16 26 21 17 22 21 8 35 -23 22 -34 19 -74
-21 -29 -29 -33 -38 -22 -46 11 -7 11 -11 2 -15 -16 -6 -18 -143 -3 -143 6 0
10 14 10 30 0 17 5 30 10 30 6 0 10 12 10 26 0 14 7 32 15 40 13 14 17 14 30
0 23 -23 18 -55 -15 -86 -16 -15 -30 -38 -30 -49 0 -25 42 -71 65 -71 8 0 15
-4 15 -10 0 -5 18 -10 40 -10 22 0 40 5 40 10 0 6 7 10 16 10 18 0 44 23 44
40 0 15 -25 40 -40 40 -17 0 -44 -30 -35 -38 4 -4 10 -1 12 6 8 21 43 14 43
-8 0 -17 -7 -20 -46 -20 -47 0 -74 16 -74 44 0 9 8 16 20 16 11 0 20 5 20 10
0 6 7 10 16 10 25 0 44 26 44 60 0 28 18 60 34 60 3 0 6 -13 6 -30 0 -16 5
-30 10 -30 6 0 10 -22 10 -50 0 -27 5 -50 10 -50 6 0 10 9 10 20 0 11 5 20 10
20 15 0 13 117 -2 123 -10 4 -10 8 1 15 11 8 7 17 -22 46 -40 40 -51 43 -74
21 -14 -14 -13 -18 8 -35 12 -11 20 -23 16 -26 -9 -9 -57 42 -57 61 0 8 5 15
10 15 6 0 10 9 10 20 0 13 7 20 20 20 11 0 20 5 20 10 0 6 -13 10 -30 10 -16
0 -30 5 -30 10 0 6 9 10 20 10 11 0 20 5 20 10 0 6 -9 10 -20 10 -11 0 -20 -4
-20 -10z m0 -200 c0 -16 -4 -30 -10 -30 -5 0 -10 -7 -10 -16 0 -9 -13 -29 -30
-44 -31 -29 -41 -75 -17 -83 6 -2 9 -8 5 -12 -11 -11 -38 21 -38 45 0 12 14
35 30 50 17 15 30 35 30 44 0 9 5 16 10 16 6 0 10 14 10 30 0 17 5 30 10 30 6
0 10 -13 10 -30z"/>
<path d="M11 344 c-18 -21 -6 -30 14 -11 8 9 15 18 15 21 0 11 -15 5 -29 -10z"/>
<path d="M280 354 c0 -10 31 -36 37 -31 3 3 -2 13 -10 22 -16 15 -27 19 -27 9z"/>
</g>
</svg>
