<?xml version="1.0" standalone="no"?>
<!DOCTYPE svg PUBLIC "-//W3C//DTD SVG 20010904//EN"
 "http://www.w3.org/TR/2001/REC-SVG-20010904/DTD/svg10.dtd">
<svg version="1.0" xmlns="http://www.w3.org/2000/svg"
 width="32.000000pt" height="48.000000pt" viewBox="0 0 32.000000 48.000000"
 preserveAspectRatio="xMidYMid meet">
<metadata>
Created by potrace 1.10, written by Peter Selinger 2001-2011
</metadata>
<g transform="translate(0.000000,48.000000) scale(0.100000,-0.100000)"
fill="#ffffff" stroke="none">
<path d="M160 470 c0 -5 5 -10 10 -10 6 0 10 5 10 10 0 6 -4 10 -10 10 -5 0
-10 -4 -10 -10z"/>
<path d="M120 430 c0 -5 5 -10 10 -10 6 0 10 5 10 10 0 6 -4 10 -10 10 -5 0
-10 -4 -10 -10z"/>
<path d="M160 430 c0 -5 5 -10 10 -10 6 0 10 -9 10 -19 0 -11 6 -22 13 -24 9
-4 8 -8 -3 -16 -8 -5 -11 -13 -7 -18 5 -4 12 -1 17 7 5 8 12 11 16 8 3 -4 -1
-14 -10 -23 -15 -15 -17 -15 -33 0 -13 14 -14 18 -3 25 22 14 -13 40 -53 40
-20 0 -37 6 -40 13 -2 6 -8 8 -13 4 -5 -4 -2 -12 6 -17 12 -7 10 -13 -10 -30
-20 -17 -22 -23 -10 -30 12 -7 11 -12 -8 -28 -12 -11 -22 -25 -22 -31 0 -17
25 -41 42 -41 8 0 20 -9 28 -20 8 -11 20 -20 28 -20 18 0 42 -25 42 -43 0 -9
6 -17 12 -19 9 -3 8 -10 -5 -22 -17 -17 -19 -16 -46 13 -16 17 -39 31 -51 31
-23 0 -50 -21 -50 -40 0 -17 30 -44 38 -35 4 4 1 10 -5 12 -19 7 -16 43 3 43
18 0 44 -23 44 -40 0 -25 30 -40 80 -40 41 0 56 5 75 25 25 24 35 75 15 75 -5
0 -10 7 -10 16 0 9 -10 25 -22 35 l-21 19 21 19 c28 23 28 39 0 63 -19 16 -20
21 -8 29 13 8 13 10 0 19 -13 9 -13 11 0 19 8 6 11 14 6 18 -5 4 -11 2 -13 -4
-7 -18 -23 -16 -23 3 0 15 -23 44 -34 44 -3 0 -6 -4 -6 -10z m-60 -59 c0 -5
-6 -12 -12 -14 -10 -4 -9 -8 2 -16 8 -5 11 -13 8 -17 -4 -3 -14 1 -23 10 -13
13 -14 18 -3 30 15 17 28 20 28 7z m40 -21 c0 -5 -4 -10 -10 -10 -5 0 -10 5
-10 10 0 6 5 10 10 10 6 0 10 -4 10 -10z m4 -62 c5 -10 7 -10 12 0 7 14 44 16
44 2 0 -5 -9 -10 -19 -10 -11 0 -22 -6 -25 -12 -5 -10 -7 -10 -12 0 -3 6 -14
12 -25 12 -10 0 -19 5 -19 10 0 14 37 12 44 -2z"/>
</g>
</svg>
