<?xml version="1.0" standalone="no"?>
<!DOCTYPE svg PUBLIC "-//W3C//DTD SVG 20010904//EN"
 "http://www.w3.org/TR/2001/REC-SVG-20010904/DTD/svg10.dtd">
<svg version="1.0" xmlns="http://www.w3.org/2000/svg"
 width="32.000000pt" height="48.000000pt" viewBox="0 0 32.000000 48.000000"
 preserveAspectRatio="xMidYMid meet">
<metadata>
Created by potrace 1.10, written by Peter Selinger 2001-2011
</metadata>
<g transform="translate(0.000000,48.000000) scale(0.100000,-0.100000)"
fill="#ffffff" stroke="none">
<path d="M93 425 c-7 -8 -13 -21 -13 -30 0 -18 -17 -20 -22 -3 -6 17 -38 -14
-38 -36 0 -9 -4 -16 -10 -16 -15 0 -12 -57 3 -64 9 -5 9 -7 0 -12 -18 -8 -16
-72 2 -91 9 -8 19 -12 23 -9 3 4 0 12 -8 17 -11 8 -12 12 -2 16 7 3 12 24 12
54 0 27 5 49 10 49 6 0 10 -7 10 -16 0 -20 24 -44 44 -44 23 0 20 -8 -14 -40
-23 -21 -30 -37 -30 -64 0 -20 -4 -36 -10 -36 -5 0 -10 -9 -10 -20 0 -22 15
-27 23 -7 4 9 8 9 15 -2 9 -12 13 -12 26 2 18 17 23 107 6 107 -5 0 -10 5 -10
10 0 6 18 10 40 10 22 0 40 -4 40 -10 0 -5 -4 -10 -10 -10 -17 0 -12 -90 6
-107 13 -14 17 -14 26 -2 7 11 11 11 15 2 8 -20 23 -15 23 7 0 11 -4 20 -10
20 -5 0 -10 16 -10 36 0 27 -7 43 -30 64 -34 32 -37 40 -14 40 20 0 44 24 44
44 0 9 5 16 10 16 6 0 10 -17 10 -38 0 -26 6 -42 20 -52 11 -8 20 -18 20 -22
0 -4 -9 -8 -20 -8 -11 0 -20 -4 -20 -10 0 -15 29 -12 46 4 17 18 19 82 2 90
-10 5 -10 7 -1 12 25 11 14 54 -24 91 -22 23 -38 32 -41 25 -5 -17 -22 -15
-22 4 0 40 -79 61 -107 29z m10 -77 c4 -10 8 -9 16 2 10 13 12 13 21 0 9 -13
11 -13 19 0 6 8 13 11 18 7 4 -5 1 -12 -7 -18 -13 -8 -13 -10 -1 -18 12 -8 11
-12 -3 -27 -15 -14 -19 -15 -27 -3 -8 12 -10 12 -18 0 -8 -12 -12 -11 -27 3
-15 15 -15 19 -3 28 11 7 11 11 2 15 -7 2 -13 9 -13 14 0 13 18 11 23 -3z"/>
<path d="M100 310 c0 -5 5 -10 10 -10 6 0 10 5 10 10 0 6 -4 10 -10 10 -5 0
-10 -4 -10 -10z"/>
<path d="M140 310 c0 -5 5 -10 10 -10 6 0 10 5 10 10 0 6 -4 10 -10 10 -5 0
-10 -4 -10 -10z"/>
</g>
</svg>
