<?xml version="1.0" standalone="no"?>
<!DOCTYPE svg PUBLIC "-//W3C//DTD SVG 20010904//EN"
 "http://www.w3.org/TR/2001/REC-SVG-20010904/DTD/svg10.dtd">
<svg version="1.0" xmlns="http://www.w3.org/2000/svg"
 width="32.000000pt" height="48.000000pt" viewBox="0 0 32.000000 48.000000"
 preserveAspectRatio="xMidYMid meet">
<metadata>
Created by potrace 1.10, written by Peter Selinger 2001-2011
</metadata>
<g transform="translate(0.000000,48.000000) scale(0.100000,-0.100000)"
fill="#ffffff" stroke="none">
<path d="M120 410 c0 -5 -9 -10 -19 -10 -11 0 -22 -6 -24 -12 -4 -10 -8 -10
-15 1 -8 11 -15 9 -36 -12 -26 -26 -35 -57 -16 -57 6 0 10 -16 10 -36 0 -38
18 -64 44 -64 9 0 16 -4 16 -10 0 -5 14 -10 30 -10 17 0 30 -4 30 -10 0 -5 14
-10 30 -10 17 0 30 -4 30 -10 0 -6 -32 -10 -75 -10 -67 0 -79 -3 -100 -25 -29
-28 -31 -41 -11 -61 17 -16 46 -19 46 -4 0 6 -9 10 -20 10 -24 0 -25 6 -6 26
10 10 39 14 100 14 51 0 86 4 86 10 0 6 7 10 16 10 18 0 44 23 44 40 0 25 -49
60 -85 60 -19 0 -35 5 -35 10 0 6 -7 10 -16 10 -19 0 -49 28 -40 38 4 3 11 0
16 -8 5 -8 13 -11 17 -6 4 5 2 11 -4 13 -19 7 -16 23 3 23 9 0 25 -10 35 -22
11 -11 22 -19 25 -15 9 9 -42 57 -61 57 -8 0 -15 5 -15 10 0 6 12 10 26 10 17
0 39 -14 64 -40 36 -38 70 -52 70 -30 0 6 -7 10 -16 10 -8 0 -33 18 -54 40
-25 26 -47 40 -64 40 -14 0 -26 5 -26 10 0 6 18 10 40 10 22 0 40 -4 40 -10 0
-5 8 -10 18 -10 10 0 24 -9 32 -20 15 -21 50 -28 50 -10 0 6 -8 10 -18 10 -10
0 -24 9 -32 20 -8 11 -22 20 -32 20 -10 0 -18 5 -18 10 0 6 -18 10 -40 10 -22
0 -40 -4 -40 -10z m-56 -42 c5 -10 7 -10 12 0 7 14 44 16 44 2 0 -5 -9 -10
-20 -10 -11 0 -20 -4 -20 -10 0 -5 9 -10 20 -10 11 0 20 -2 20 -5 0 -8 -47
-55 -55 -55 -11 0 -4 39 7 42 9 3 8 9 -4 21 -22 22 -28 21 -28 -3 0 -11 -4
-20 -10 -20 -14 0 -12 28 3 45 15 18 24 18 31 3z"/>
</g>
</svg>
