<?xml version="1.0" standalone="no"?>
<!DOCTYPE svg PUBLIC "-//W3C//DTD SVG 20010904//EN"
 "http://www.w3.org/TR/2001/REC-SVG-20010904/DTD/svg10.dtd">
<svg version="1.0" xmlns="http://www.w3.org/2000/svg"
 width="32.000000pt" height="48.000000pt" viewBox="0 0 32.000000 48.000000"
 preserveAspectRatio="xMidYMid meet">
<metadata>
Created by potrace 1.10, written by Peter Selinger 2001-2011
</metadata>
<g transform="translate(0.000000,48.000000) scale(0.100000,-0.100000)"
fill="#ffffff" stroke="none">
<path d="M140 410 c0 -5 -8 -10 -18 -10 -10 0 -24 -9 -32 -20 -8 -11 -18 -20
-22 -20 -4 0 -8 9 -8 20 0 11 -4 20 -10 20 -5 0 -10 -9 -10 -20 0 -11 -4 -20
-10 -20 -5 0 -10 -9 -10 -20 0 -11 5 -20 10 -20 6 0 10 -16 10 -35 0 -43 37
-85 75 -85 14 0 25 -4 25 -10 0 -5 14 -10 30 -10 17 0 30 -4 30 -10 0 -6 -32
-10 -75 -10 -67 0 -79 -3 -100 -25 -29 -28 -31 -41 -11 -61 17 -16 46 -19 46
-4 0 6 -9 10 -20 10 -24 0 -25 6 -6 26 10 10 39 14 100 14 51 0 86 4 86 10 0
6 7 10 16 10 18 0 44 23 44 40 0 20 -49 60 -75 60 -14 0 -25 5 -25 10 0 6 -7
10 -16 10 -19 0 -49 28 -40 38 4 3 11 0 16 -8 5 -8 13 -11 17 -6 4 5 2 11 -4
13 -19 7 -16 23 3 23 9 0 25 -10 35 -22 11 -11 22 -19 25 -15 9 9 -42 57 -61
57 -8 0 -15 5 -15 10 0 6 11 10 25 10 26 0 75 -40 75 -60 0 -17 30 -44 38 -35
4 4 1 10 -5 12 -7 3 -13 11 -13 19 0 25 -67 84 -95 84 -14 0 -25 5 -25 10 0 6
18 10 40 10 22 0 40 -4 40 -10 0 -5 9 -10 20 -10 11 0 20 -4 20 -10 0 -5 7
-10 16 -10 20 0 49 29 39 38 -4 4 -10 1 -12 -5 -5 -15 -43 -17 -43 -3 0 6 -9
10 -20 10 -11 0 -20 5 -20 10 0 6 -18 10 -40 10 -22 0 -40 -4 -40 -10z m0 -40
c0 -5 -9 -10 -20 -10 -11 0 -20 -4 -20 -10 0 -5 9 -10 20 -10 11 0 20 -2 20
-5 0 -8 -47 -55 -55 -55 -11 0 -5 39 8 43 9 4 9 8 -2 15 -12 8 -12 12 0 26 16
17 49 21 49 6z m-80 -30 c0 -11 -4 -20 -10 -20 -5 0 -10 9 -10 20 0 11 5 20
10 20 6 0 10 -9 10 -20z"/>
</g>
</svg>
