<?xml version="1.0" standalone="no"?>
<!DOCTYPE svg PUBLIC "-//W3C//DTD SVG 20010904//EN"
 "http://www.w3.org/TR/2001/REC-SVG-20010904/DTD/svg10.dtd">
<svg version="1.0" xmlns="http://www.w3.org/2000/svg"
 width="32.000000pt" height="48.000000pt" viewBox="0 0 32.000000 48.000000"
 preserveAspectRatio="xMidYMid meet">
<metadata>
Created by potrace 1.10, written by Peter Selinger 2001-2011
</metadata>
<g transform="translate(0.000000,48.000000) scale(0.100000,-0.100000)"
fill="#ffffff" stroke="none">
<path d="M60 414 c0 -10 28 -34 41 -34 6 0 20 -10 30 -22 l19 -21 19 21 c10
12 24 22 30 22 17 0 45 30 36 38 -4 4 -10 1 -12 -5 -6 -16 -143 -18 -143 -3 0
6 -4 10 -10 10 -5 0 -10 -3 -10 -6z"/>
<path d="M280 410 c0 -5 5 -10 10 -10 6 0 10 -18 10 -40 0 -22 -4 -40 -10 -40
-5 0 -10 -7 -10 -16 0 -15 -23 -44 -34 -44 -3 0 -6 7 -6 15 0 9 -11 27 -25 40
-29 30 -55 32 -55 5 0 -11 -4 -20 -10 -20 -5 0 -10 9 -10 20 0 27 -26 25 -55
-5 -17 -16 -25 -35 -25 -60 0 -19 -4 -35 -10 -35 -5 0 -10 9 -10 20 0 11 -4
20 -10 20 -15 0 -13 97 3 103 6 2 9 8 5 12 -4 4 -14 0 -23 -8 -17 -17 -21
-107 -5 -107 6 0 10 -7 10 -15 0 -19 49 -70 58 -61 3 4 0 11 -8 16 -12 7 -10
13 10 30 20 17 22 23 10 30 -8 5 -11 12 -8 16 4 3 14 -1 23 -9 17 -17 21 -67
5 -67 -5 0 -10 -9 -10 -20 0 -11 -4 -20 -10 -20 -5 0 -10 -9 -10 -20 0 -11 -4
-20 -10 -20 -5 0 -10 -9 -10 -20 0 -13 -7 -20 -20 -20 -22 0 -29 35 -7 43 6 2
9 8 5 12 -8 9 -38 -18 -38 -35 0 -15 25 -40 40 -40 17 0 40 26 40 44 0 9 7 16
16 16 33 0 60 -53 32 -63 -7 -2 -10 -8 -6 -12 4 -4 14 0 23 8 17 17 21 67 5
67 -5 0 -10 9 -10 20 0 11 7 20 15 20 18 0 65 -44 65 -60 0 -15 50 -64 57 -56
4 3 -4 14 -15 25 -16 13 -22 30 -22 60 0 44 -17 71 -44 71 -11 0 -16 9 -16 30
0 17 5 30 10 30 6 0 10 -4 10 -10 0 -5 14 -10 30 -10 30 0 41 -14 18 -23 -7
-2 -10 -8 -6 -12 4 -4 19 5 34 20 22 22 24 29 13 37 -11 7 -11 11 -1 15 6 2
12 13 12 24 0 10 5 19 10 19 15 0 12 70 -4 86 -17 16 -26 18 -26 4z"/>
</g>
</svg>
