<?xml version="1.0" standalone="no"?>
<!DOCTYPE svg PUBLIC "-//W3C//DTD SVG 20010904//EN"
 "http://www.w3.org/TR/2001/REC-SVG-20010904/DTD/svg10.dtd">
<svg version="1.0" xmlns="http://www.w3.org/2000/svg"
 width="32.000000pt" height="48.000000pt" viewBox="0 0 32.000000 48.000000"
 preserveAspectRatio="xMidYMid meet">
<metadata>
Created by potrace 1.10, written by Peter Selinger 2001-2011
</metadata>
<g transform="translate(0.000000,48.000000) scale(0.100000,-0.100000)"
fill="#ffffff" stroke="none">
<path d="M60 414 c0 -10 28 -34 41 -34 6 0 20 -10 30 -22 l19 -21 19 21 c10
12 24 22 30 22 17 0 45 30 36 38 -4 4 -10 1 -12 -5 -6 -16 -143 -18 -143 -3 0
6 -4 10 -10 10 -5 0 -10 -3 -10 -6z"/>
<path d="M280 390 c0 -5 5 -10 10 -10 6 0 10 -18 10 -40 0 -22 -4 -40 -10 -40
-5 0 -10 -7 -10 -16 0 -15 -23 -44 -34 -44 -3 0 -6 11 -6 25 0 29 -40 75 -65
75 -8 0 -15 -9 -15 -20 0 -11 -4 -20 -10 -20 -5 0 -10 9 -10 20 0 23 -25 27
-46 6 -8 -8 -14 -22 -14 -30 0 -9 -4 -16 -10 -16 -5 0 -10 -18 -10 -40 0 -22
-4 -40 -10 -40 -5 0 -10 9 -10 20 0 11 -4 20 -10 20 -15 0 -13 97 3 103 6 2 9
8 5 12 -4 4 -14 0 -23 -8 -17 -17 -21 -107 -5 -107 6 0 10 -7 10 -16 0 -9 14
-29 30 -44 29 -27 40 -60 20 -60 -5 0 -10 -9 -10 -20 0 -13 -7 -20 -20 -20
-16 0 -20 7 -20 30 0 17 -4 30 -10 30 -5 0 -10 -12 -10 -26 0 -26 20 -54 40
-54 17 0 40 26 40 44 0 9 7 16 16 16 33 0 60 -53 32 -63 -7 -2 -10 -8 -6 -12
4 -4 14 0 23 8 17 17 21 67 5 67 -5 0 -10 9 -10 20 0 11 7 20 15 20 18 0 65
-44 65 -60 0 -15 50 -64 57 -56 4 3 -4 14 -15 25 -16 13 -22 30 -22 61 0 34 6
47 32 72 26 24 29 31 17 40 -11 7 -11 11 -1 15 6 2 12 13 12 24 0 10 5 19 10
19 15 0 12 70 -4 86 -17 16 -26 18 -26 4z m-160 -160 c0 -16 -4 -30 -10 -30
-5 0 -10 -9 -10 -20 0 -24 -6 -25 -27 -5 -14 14 -13 18 8 37 16 14 20 22 12
25 -20 7 -15 23 7 23 16 0 20 -7 20 -30z m90 10 c8 -11 22 -20 32 -20 22 0 23
-7 1 -28 -12 -12 -18 -13 -21 -4 -2 6 -12 12 -23 12 -14 0 -19 7 -19 30 0 35
10 38 30 10z"/>
</g>
</svg>
