<?xml version="1.0" standalone="no"?>
<!DOCTYPE svg PUBLIC "-//W3C//DTD SVG 20010904//EN"
 "http://www.w3.org/TR/2001/REC-SVG-20010904/DTD/svg10.dtd">
<svg version="1.0" xmlns="http://www.w3.org/2000/svg"
 width="32.000000pt" height="48.000000pt" viewBox="0 0 32.000000 48.000000"
 preserveAspectRatio="xMidYMid meet">
<metadata>
Created by potrace 1.10, written by Peter Selinger 2001-2011
</metadata>
<g transform="translate(0.000000,48.000000) scale(0.100000,-0.100000)"
fill="#ffffff" stroke="none">
<path d="M103 335 c-13 -13 -23 -31 -23 -40 0 -8 -4 -15 -10 -15 -5 0 -10 -8
-10 -18 0 -10 -9 -24 -20 -32 -11 -8 -20 -20 -20 -28 0 -18 25 -42 44 -42 9 0
16 -4 16 -10 0 -6 33 -10 80 -10 47 0 80 4 80 10 0 6 7 10 16 10 19 0 44 24
44 42 0 8 -9 20 -20 28 -11 8 -20 22 -20 32 0 10 -4 18 -10 18 -5 0 -10 7 -10
15 0 9 -11 27 -25 40 -32 33 -82 33 -112 0z m37 -25 c0 -14 38 -12 42 2 3 9
10 7 24 -6 13 -14 15 -21 6 -24 -19 -6 -14 -33 10 -53 11 -11 18 -22 14 -26
-4 -4 -11 -1 -17 7 -8 13 -10 13 -20 0 -8 -11 -12 -12 -16 -2 -2 6 -13 12 -23
12 -10 0 -21 -6 -23 -12 -4 -10 -8 -9 -16 2 -10 13 -12 13 -20 0 -6 -8 -13
-11 -17 -7 -4 4 3 15 14 26 24 20 29 47 10 53 -9 3 -8 9 2 21 17 19 30 22 30
7z"/>
<path d="M120 290 c0 -5 5 -10 10 -10 14 0 12 -38 -2 -43 -8 -2 -9 -8 -4 -13
5 -5 11 -4 13 4 6 16 40 16 46 0 2 -8 8 -9 13 -4 5 5 4 11 -3 13 -7 3 -13 13
-13 23 0 10 6 20 13 23 7 2 8 8 3 13 -5 5 -11 4 -13 -3 -5 -15 -43 -17 -43 -3
0 6 -4 10 -10 10 -5 0 -10 -4 -10 -10z"/>
</g>
</svg>
