<?xml version="1.0" standalone="no"?>
<!DOCTYPE svg PUBLIC "-//W3C//DTD SVG 20010904//EN"
 "http://www.w3.org/TR/2001/REC-SVG-20010904/DTD/svg10.dtd">
<svg version="1.0" xmlns="http://www.w3.org/2000/svg"
 width="32.000000pt" height="48.000000pt" viewBox="0 0 32.000000 48.000000"
 preserveAspectRatio="xMidYMid meet">
<metadata>
Created by potrace 1.10, written by Peter Selinger 2001-2011
</metadata>
<g transform="translate(0.000000,48.000000) scale(0.100000,-0.100000)"
fill="#ffffff" stroke="none">
<path d="M103 355 c-13 -13 -23 -36 -23 -50 0 -14 -4 -25 -10 -25 -5 0 -10 -8
-10 -18 0 -10 -9 -24 -20 -32 -11 -8 -20 -20 -20 -28 0 -18 25 -42 44 -42 9 0
16 -4 16 -10 0 -6 33 -10 80 -10 47 0 80 4 80 10 0 6 7 10 16 10 19 0 44 24
44 42 0 8 -9 20 -20 28 -11 8 -20 22 -20 32 0 10 -4 18 -10 18 -5 0 -10 11
-10 25 0 65 -92 98 -137 50z m37 -25 c0 -14 38 -12 42 2 3 9 10 7 24 -6 13
-14 15 -21 6 -24 -16 -5 -16 -39 1 -45 9 -4 8 -8 -3 -16 -13 -10 -13 -12 0
-20 8 -6 11 -13 7 -17 -4 -4 -15 3 -26 14 -23 28 -39 28 -62 0 -11 -11 -22
-18 -26 -14 -4 4 -1 11 7 17 13 8 13 10 0 20 -11 8 -12 12 -2 16 15 6 16 40 0
45 -9 3 -8 9 2 21 17 19 30 22 30 7z"/>
<path d="M120 310 c0 -5 5 -10 10 -10 14 0 12 -38 -2 -43 -8 -2 -9 -8 -4 -13
5 -5 11 -4 13 4 6 16 40 16 46 0 2 -8 8 -9 13 -4 5 5 4 11 -3 13 -7 3 -13 13
-13 23 0 10 6 20 13 23 7 2 8 8 3 13 -5 5 -11 4 -13 -3 -5 -15 -43 -17 -43 -3
0 6 -4 10 -10 10 -5 0 -10 -4 -10 -10z"/>
</g>
</svg>
