<?xml version="1.0" standalone="no"?>
<!DOCTYPE svg PUBLIC "-//W3C//DTD SVG 20010904//EN"
 "http://www.w3.org/TR/2001/REC-SVG-20010904/DTD/svg10.dtd">
<svg version="1.0" xmlns="http://www.w3.org/2000/svg"
 width="32.000000pt" height="48.000000pt" viewBox="0 0 32.000000 48.000000"
 preserveAspectRatio="xMidYMid meet">
<metadata>
Created by potrace 1.10, written by Peter Selinger 2001-2011
</metadata>
<g transform="translate(0.000000,48.000000) scale(0.100000,-0.100000)"
fill="#ffffff" stroke="none">
<path d="M100 425 c0 -20 -45 -65 -65 -65 -8 0 -15 -4 -15 -10 0 -5 7 -10 16
-10 15 0 44 -23 44 -34 0 -3 -7 -6 -16 -6 -8 0 -22 -6 -30 -14 -16 -17 -19
-46 -4 -46 6 0 10 5 10 10 0 6 9 10 19 10 11 0 21 6 24 13 2 6 8 9 12 5 5 -5
-2 -16 -13 -27 -12 -10 -22 -26 -22 -35 0 -9 -4 -16 -10 -16 -5 0 -10 -13 -10
-30 0 -16 5 -30 10 -30 15 0 12 -58 -2 -63 -7 -2 -10 -8 -6 -12 4 -4 14 0 23
8 17 17 21 67 5 67 -18 0 -10 31 15 55 29 30 35 31 35 5 0 -11 -4 -20 -10 -20
-16 0 -12 -50 5 -67 9 -8 19 -12 23 -8 4 4 1 10 -5 12 -15 5 -18 63 -3 63 6 0
10 9 10 20 0 23 25 27 46 6 17 -18 19 -83 2 -89 -7 -2 -10 -8 -6 -12 4 -4 14
0 23 8 17 17 21 87 5 87 -5 0 -10 9 -10 20 0 26 6 25 35 -5 17 -16 25 -35 25
-60 0 -19 5 -35 10 -35 6 0 10 -9 10 -20 0 -11 5 -20 10 -20 6 0 10 9 10 20 0
11 -4 20 -10 20 -5 0 -10 25 -10 56 0 46 -4 60 -22 75 -11 11 -19 22 -15 25
11 11 57 -45 57 -71 0 -14 5 -25 10 -25 6 0 10 14 10 30 0 17 -4 30 -10 30 -5
0 -10 7 -10 16 0 9 -9 25 -21 35 -19 16 -20 20 -6 34 9 8 23 15 31 15 9 0 16
5 16 10 0 6 -7 10 -15 10 -20 0 -65 45 -65 65 0 8 -4 15 -10 15 -5 0 -10 -9
-10 -20 0 -11 -4 -20 -10 -20 -5 0 -10 5 -10 10 0 6 -13 10 -30 10 -16 0 -30
-4 -30 -10 0 -5 -4 -10 -10 -10 -5 0 -10 9 -10 20 0 11 -4 20 -10 20 -5 0 -10
-7 -10 -15z m96 -90 l25 -25 -26 -25 -25 -26 -25 25 -26 26 23 24 c13 14 24
25 26 25 2 1 14 -10 28 -24z"/>
<path d="M152 324 c-11 -12 -10 -17 2 -30 15 -14 17 -14 32 0 14 14 14 18 0
31 -18 18 -18 18 -34 -1z m28 -14 c0 -5 -4 -10 -10 -10 -5 0 -10 5 -10 10 0 6
5 10 10 10 6 0 10 -4 10 -10z"/>
</g>
</svg>
