<?xml version="1.0" standalone="no"?>
<!DOCTYPE svg PUBLIC "-//W3C//DTD SVG 20010904//EN"
 "http://www.w3.org/TR/2001/REC-SVG-20010904/DTD/svg10.dtd">
<svg version="1.0" xmlns="http://www.w3.org/2000/svg"
 width="32.000000pt" height="48.000000pt" viewBox="0 0 32.000000 48.000000"
 preserveAspectRatio="xMidYMid meet">
<metadata>
Created by potrace 1.10, written by Peter Selinger 2001-2011
</metadata>
<g transform="translate(0.000000,48.000000) scale(0.100000,-0.100000)"
fill="#ffffff" stroke="none">
<path d="M80 430 c0 -5 5 -10 10 -10 6 0 10 -9 10 -20 0 -13 7 -20 19 -20 11
0 22 -6 25 -12 5 -10 7 -10 12 0 3 6 12 12 20 12 18 0 69 49 60 57 -3 4 -14
-4 -25 -15 -20 -24 -47 -29 -54 -9 -4 9 -8 8 -16 -3 -8 -12 -13 -11 -29 8 -21
24 -32 28 -32 12z"/>
<path d="M80 350 c0 -5 5 -10 10 -10 6 0 10 -9 10 -20 0 -11 -4 -20 -10 -20
-5 0 -10 -9 -10 -20 0 -11 -4 -20 -10 -20 -5 0 -10 -9 -10 -20 0 -11 5 -20 10
-20 6 0 10 9 10 20 0 11 5 20 10 20 6 0 10 7 10 16 0 8 7 22 15 31 14 14 18
13 34 -6 10 -12 26 -21 35 -21 9 0 16 -4 16 -10 0 -18 -32 -11 -51 12 -11 11
-22 18 -27 13 -4 -4 -1 -10 6 -12 19 -7 14 -37 -8 -53 -12 -8 -20 -26 -20 -42
0 -15 -4 -28 -10 -28 -5 0 -10 -9 -10 -20 0 -11 -4 -20 -10 -20 -5 0 -10 -4
-10 -10 0 -5 9 -10 20 -10 11 0 20 -4 20 -10 0 -5 18 -10 40 -10 22 0 40 5 40
10 0 6 -4 10 -10 10 -5 0 -10 18 -10 40 0 22 -4 40 -10 40 -5 0 -10 -9 -10
-20 0 -11 -4 -20 -10 -20 -5 0 -10 -9 -10 -20 0 -11 -4 -20 -10 -20 -5 0 -10
9 -10 20 0 11 5 20 10 20 6 0 10 9 10 20 0 11 5 20 10 20 6 0 10 14 10 30 0
23 4 30 20 30 11 0 20 -4 20 -10 0 -5 -4 -10 -10 -10 -5 0 -10 -9 -10 -20 0
-11 5 -20 10 -20 6 0 10 -16 10 -36 0 -19 6 -42 14 -50 17 -16 46 -19 46 -4 0
6 9 10 20 10 11 0 20 5 20 10 0 6 -7 10 -15 10 -20 0 -65 44 -65 64 0 8 -6 17
-12 20 -10 5 -10 7 0 12 6 3 12 12 12 21 0 8 7 21 15 29 13 14 17 14 30 0 8
-8 15 -22 15 -30 0 -9 5 -16 10 -16 18 0 11 35 -10 50 -11 8 -20 22 -20 31 0
10 -6 20 -12 22 -10 4 -9 8 2 16 8 5 11 13 7 18 -5 4 -13 1 -18 -7 -8 -11 -12
-12 -16 -2 -2 6 -13 12 -23 12 -10 0 -21 -6 -23 -12 -4 -10 -8 -9 -16 2 -10
13 -12 13 -22 0 -8 -11 -12 -12 -16 -2 -6 14 -23 16 -23 2z"/>
</g>
</svg>
