<?xml version="1.0" standalone="no"?>
<!DOCTYPE svg PUBLIC "-//W3C//DTD SVG 20010904//EN"
 "http://www.w3.org/TR/2001/REC-SVG-20010904/DTD/svg10.dtd">
<svg version="1.0" xmlns="http://www.w3.org/2000/svg"
 width="32.000000pt" height="48.000000pt" viewBox="0 0 32.000000 48.000000"
 preserveAspectRatio="xMidYMid meet">
<metadata>
Created by potrace 1.10, written by Peter Selinger 2001-2011
</metadata>
<g transform="translate(0.000000,48.000000) scale(0.100000,-0.100000)"
fill="#ffffff" stroke="none">
<path d="M240 441 c0 -11 -6 -22 -12 -25 -10 -5 -10 -7 0 -12 7 -3 12 -25 12
-55 0 -42 -3 -49 -20 -49 -11 0 -20 7 -20 15 0 29 -47 65 -85 65 -19 0 -35 -4
-35 -10 0 -5 9 -10 20 -10 11 0 20 -4 20 -10 0 -5 -9 -10 -20 -10 -11 0 -20
-4 -20 -10 0 -5 5 -10 10 -10 6 0 10 -13 10 -30 0 -16 -4 -30 -10 -30 -5 0
-10 -13 -10 -29 0 -16 -5 -31 -12 -33 -16 -6 35 -58 57 -58 8 0 15 -4 15 -10
0 -6 27 -10 60 -10 33 0 60 -4 60 -10 0 -6 -29 -10 -66 -10 -46 0 -70 -5 -81
-15 -8 -9 -12 -19 -8 -23 4 -4 10 -1 12 6 3 8 28 12 74 12 39 0 69 4 69 10 0
6 9 10 20 10 11 0 20 5 20 10 0 6 -9 10 -20 10 -11 0 -20 5 -20 10 0 6 -9 10
-20 10 -11 0 -20 5 -20 10 0 6 -7 10 -16 10 -8 0 -22 6 -30 14 -16 17 -19 66
-4 66 6 0 10 14 10 30 0 17 5 30 10 30 6 0 10 -4 10 -10 0 -5 9 -10 20 -10 18
0 20 -7 20 -60 0 -33 4 -60 10 -60 6 0 10 26 10 59 0 38 5 61 13 65 10 5 10 7
0 12 -8 3 -13 25 -13 54 0 29 5 51 13 54 10 5 10 7 0 12 -7 3 -13 14 -13 25 0
10 -4 19 -10 19 -5 0 -10 -9 -10 -19z m20 -31 c0 -5 -4 -10 -10 -10 -5 0 -10
5 -10 10 0 6 5 10 10 10 6 0 10 -4 10 -10z"/>
<path d="M13 365 c-16 -17 -18 -165 -3 -165 6 0 10 -9 10 -20 0 -11 5 -20 10
-20 6 0 10 9 10 20 0 11 5 20 10 20 6 0 10 22 10 49 0 30 5 52 13 55 10 5 10
7 0 12 -7 3 -13 12 -13 21 0 13 -23 44 -32 43 -2 -1 -9 -7 -15 -15z"/>
</g>
</svg>
