<?xml version="1.0" standalone="no"?>
<!DOCTYPE svg PUBLIC "-//W3C//DTD SVG 20010904//EN"
 "http://www.w3.org/TR/2001/REC-SVG-20010904/DTD/svg10.dtd">
<svg version="1.0" xmlns="http://www.w3.org/2000/svg"
 width="32.000000pt" height="48.000000pt" viewBox="0 0 32.000000 48.000000"
 preserveAspectRatio="xMidYMid meet">
<metadata>
Created by potrace 1.10, written by Peter Selinger 2001-2011
</metadata>
<g transform="translate(0.000000,48.000000) scale(0.100000,-0.100000)"
fill="#ffffff" stroke="none">
<path d="M260 441 c0 -11 -6 -22 -12 -25 -10 -5 -10 -7 0 -12 7 -3 12 -25 12
-55 0 -42 -3 -49 -20 -49 -11 0 -20 7 -20 15 0 29 -47 65 -85 65 -19 0 -35 -4
-35 -10 0 -5 9 -10 20 -10 11 0 20 -4 20 -10 0 -5 -9 -10 -20 -10 -11 0 -20
-4 -20 -10 0 -5 5 -10 10 -10 6 0 10 -13 10 -30 0 -16 -4 -30 -10 -30 -5 0
-10 -13 -10 -30 0 -16 -4 -30 -10 -30 -15 0 -12 -29 4 -46 8 -8 22 -14 30 -14
9 0 16 -4 16 -10 0 -6 27 -10 60 -10 33 0 60 -4 60 -10 0 -15 -137 -13 -143 3
-2 6 -8 9 -12 5 -4 -4 0 -14 8 -23 18 -17 147 -22 147 -5 0 6 9 10 20 10 11 0
20 5 20 10 0 6 -9 10 -20 10 -11 0 -20 5 -20 10 0 6 -7 10 -15 10 -25 0 -65
46 -65 75 0 14 5 25 10 25 6 0 10 14 10 30 0 17 5 30 10 30 6 0 10 -4 10 -10
0 -5 9 -10 20 -10 18 0 20 -7 20 -60 0 -33 4 -60 10 -60 6 0 10 26 10 59 0 38
5 61 13 65 10 5 10 7 0 12 -8 3 -13 25 -13 54 0 29 5 51 13 54 10 5 10 7 0 12
-7 3 -13 14 -13 25 0 10 -4 19 -10 19 -5 0 -10 -9 -10 -19z m20 -31 c0 -5 -4
-10 -10 -10 -5 0 -10 5 -10 10 0 6 5 10 10 10 6 0 10 -4 10 -10z"/>
<path d="M33 365 c-16 -17 -18 -165 -3 -165 6 0 10 -9 10 -20 0 -11 5 -20 10
-20 6 0 10 9 10 20 0 11 5 20 10 20 6 0 10 22 10 49 0 30 5 52 13 55 10 5 10
7 0 12 -7 3 -13 12 -13 21 0 13 -23 44 -32 43 -2 -1 -9 -7 -15 -15z"/>
</g>
</svg>
