<?xml version="1.0" standalone="no"?>
<!DOCTYPE svg PUBLIC "-//W3C//DTD SVG 20010904//EN"
 "http://www.w3.org/TR/2001/REC-SVG-20010904/DTD/svg10.dtd">
<svg version="1.0" xmlns="http://www.w3.org/2000/svg"
 width="32.000000pt" height="48.000000pt" viewBox="0 0 32.000000 48.000000"
 preserveAspectRatio="xMidYMid meet">
<metadata>
Created by potrace 1.10, written by Peter Selinger 2001-2011
</metadata>
<g transform="translate(0.000000,48.000000) scale(0.100000,-0.100000)"
fill="#ffffff" stroke="none">
<path d="M140 430 c0 -5 -13 -10 -30 -10 -27 0 -30 -3 -30 -30 0 -23 5 -30 19
-30 11 0 21 6 24 13 2 6 8 9 12 5 10 -9 -19 -38 -39 -38 -9 0 -16 5 -16 10 0
6 -9 10 -20 10 -16 0 -20 -7 -20 -30 0 -16 -4 -30 -10 -30 -5 0 -10 -18 -10
-40 0 -22 5 -40 10 -40 6 0 10 14 10 30 0 23 4 30 20 30 11 0 20 5 20 10 0 6
5 10 10 10 6 0 10 -9 10 -20 0 -11 -4 -20 -10 -20 -5 0 -10 -13 -10 -30 0 -16
-4 -30 -10 -30 -5 0 -10 -18 -10 -40 0 -22 5 -40 10 -40 6 0 10 -13 10 -30 0
-16 5 -30 10 -30 6 0 10 22 10 49 0 30 5 51 13 54 9 4 9 8 -2 15 -20 14 29 62
64 62 18 0 25 5 25 20 0 13 -7 20 -20 20 -11 0 -20 5 -20 10 0 18 31 10 55
-15 31 -30 34 -75 5 -75 -11 0 -20 5 -20 10 0 16 -50 12 -66 -5 -14 -13 -14
-17 0 -30 16 -17 66 -21 66 -5 0 6 23 10 50 10 28 0 50 5 50 10 0 6 -9 10 -20
10 -18 0 -20 7 -20 60 0 33 -4 60 -10 60 -5 0 -10 7 -10 16 0 20 -24 44 -44
44 -9 0 -16 5 -16 10 0 6 -9 10 -20 10 -11 0 -20 5 -20 10 0 14 38 12 43 -2 2
-7 8 -10 12 -6 10 9 -19 38 -39 38 -9 0 -16 -4 -16 -10z"/>
<path d="M180 125 c0 -20 49 -70 58 -60 4 4 1 10 -5 12 -7 3 -13 18 -13 34 0
22 -5 29 -20 29 -11 0 -20 -7 -20 -15z"/>
</g>
</svg>
