<?xml version="1.0" standalone="no"?>
<!DOCTYPE svg PUBLIC "-//W3C//DTD SVG 20010904//EN"
 "http://www.w3.org/TR/2001/REC-SVG-20010904/DTD/svg10.dtd">
<svg version="1.0" xmlns="http://www.w3.org/2000/svg"
 width="32.000000pt" height="48.000000pt" viewBox="0 0 32.000000 48.000000"
 preserveAspectRatio="xMidYMid meet">
<metadata>
Created by potrace 1.10, written by Peter Selinger 2001-2011
</metadata>
<g transform="translate(0.000000,48.000000) scale(0.100000,-0.100000)"
fill="#ffffff" stroke="none">
<path d="M140 430 c0 -5 -13 -10 -30 -10 -23 0 -30 -4 -30 -20 0 -13 -7 -20
-20 -20 -16 0 -20 -7 -20 -30 0 -16 -4 -30 -10 -30 -5 0 -10 -18 -10 -40 0
-22 5 -40 10 -40 6 0 10 12 10 26 0 14 7 32 15 40 13 14 17 14 30 0 17 -17 20
-46 5 -46 -5 0 -10 -13 -10 -30 0 -16 -4 -30 -10 -30 -5 0 -10 -18 -10 -40 0
-22 5 -40 10 -40 6 0 10 -13 10 -30 0 -16 5 -30 10 -30 6 0 10 23 10 50 0 28
5 50 10 50 14 0 12 38 -2 42 -21 7 38 58 67 58 18 0 25 5 25 20 0 13 -7 20
-20 20 -11 0 -20 5 -20 10 0 18 31 10 55 -15 31 -30 34 -75 5 -75 -11 0 -20 5
-20 10 0 16 -50 12 -66 -5 -14 -13 -14 -17 0 -30 16 -17 66 -21 66 -5 0 6 23
10 50 10 28 0 50 5 50 10 0 6 -9 10 -20 10 -18 0 -20 7 -20 60 0 33 -4 60 -10
60 -5 0 -10 7 -10 16 0 26 -26 44 -64 44 -20 0 -36 5 -36 10 0 6 14 10 30 10
17 0 30 5 30 10 0 6 -13 10 -30 10 -16 0 -30 -4 -30 -10z m0 -56 c0 -3 -6 -12
-14 -20 -17 -16 -46 -19 -46 -4 0 6 9 10 20 10 11 0 20 5 20 10 0 6 5 10 10
10 6 0 10 -3 10 -6z"/>
<path d="M180 135 c0 -27 46 -82 58 -70 4 4 1 10 -5 12 -8 3 -13 22 -13 44 0
32 -3 39 -20 39 -15 0 -20 -7 -20 -25z"/>
</g>
</svg>
