<?xml version="1.0" standalone="no"?>
<!DOCTYPE svg PUBLIC "-//W3C//DTD SVG 20010904//EN"
 "http://www.w3.org/TR/2001/REC-SVG-20010904/DTD/svg10.dtd">
<svg version="1.0" xmlns="http://www.w3.org/2000/svg"
 width="32.000000pt" height="48.000000pt" viewBox="0 0 32.000000 48.000000"
 preserveAspectRatio="xMidYMid meet">
<metadata>
Created by potrace 1.10, written by Peter Selinger 2001-2011
</metadata>
<g transform="translate(0.000000,48.000000) scale(0.100000,-0.100000)"
fill="#ffffff" stroke="none">
<path d="M110 400 c-8 -11 -20 -20 -28 -20 -25 0 -62 -48 -62 -80 0 -32 25
-68 38 -55 4 4 1 10 -5 12 -13 5 -19 43 -7 43 11 0 34 -29 34 -44 0 -9 5 -16
10 -16 6 0 10 -13 10 -30 0 -16 5 -30 10 -30 6 0 10 -7 10 -16 0 -19 24 -44
42 -44 8 0 20 -9 28 -20 8 -11 18 -20 22 -20 13 0 9 38 -4 43 -7 2 -10 8 -6
12 4 4 26 -12 48 -35 22 -23 44 -40 47 -36 3 3 -4 14 -15 25 -12 10 -22 26
-22 35 0 22 9 20 31 -6 11 -11 22 -18 25 -15 4 4 -7 20 -25 36 -17 16 -31 36
-31 45 0 9 -4 16 -10 16 -5 0 -10 23 -10 50 0 28 5 50 10 50 6 0 10 -9 10 -20
0 -22 15 -27 23 -7 4 9 8 8 16 -3 5 -8 13 -11 17 -7 4 4 -3 15 -14 26 -12 10
-22 24 -22 30 0 17 -46 61 -64 61 -8 0 -16 -6 -19 -12 -2 -7 -8 -9 -13 -5 -5
4 -2 12 5 17 12 7 12 11 -2 24 -22 22 -60 20 -77 -4z m50 -30 c0 -5 -4 -10
-10 -10 -5 0 -10 5 -10 10 0 6 5 10 10 10 6 0 10 -4 10 -10z m20 -49 c0 -11 6
-21 13 -24 6 -2 9 -8 5 -12 -9 -10 -38 19 -38 39 0 9 5 16 10 16 6 0 10 -9 10
-19z"/>
<path d="M300 230 c0 -5 5 -10 10 -10 6 0 10 5 10 10 0 6 -4 10 -10 10 -5 0
-10 -4 -10 -10z"/>
<path d="M60 210 c0 -5 5 -10 10 -10 6 0 10 5 10 10 0 6 -4 10 -10 10 -5 0
-10 -4 -10 -10z"/>
</g>
</svg>
