<?xml version="1.0" standalone="no"?>
<!DOCTYPE svg PUBLIC "-//W3C//DTD SVG 20010904//EN"
 "http://www.w3.org/TR/2001/REC-SVG-20010904/DTD/svg10.dtd">
<svg version="1.0" xmlns="http://www.w3.org/2000/svg"
 width="32.000000pt" height="48.000000pt" viewBox="0 0 32.000000 48.000000"
 preserveAspectRatio="xMidYMid meet">
<metadata>
Created by potrace 1.10, written by Peter Selinger 2001-2011
</metadata>
<g transform="translate(0.000000,48.000000) scale(0.100000,-0.100000)"
fill="#ffffff" stroke="none">
<path d="M123 435 c-13 -13 -23 -31 -23 -39 0 -8 -6 -17 -12 -19 -10 -4 -10
-8 1 -15 12 -9 9 -16 -17 -40 -20 -19 -32 -40 -32 -56 0 -14 -4 -26 -10 -26
-5 0 -10 -9 -10 -20 0 -11 5 -20 10 -20 6 0 10 9 10 20 0 11 5 20 10 20 6 0
10 7 10 16 0 15 23 44 34 44 3 0 6 -9 6 -20 0 -11 -4 -20 -10 -20 -5 0 -10 -9
-10 -20 0 -11 -4 -20 -10 -20 -5 0 -10 -13 -10 -30 0 -16 -4 -30 -10 -30 -16
0 -12 -50 5 -67 9 -8 19 -12 23 -8 4 4 1 10 -5 12 -15 5 -17 43 -3 43 6 0 10
8 10 18 0 10 9 24 20 32 15 11 20 26 20 62 0 26 -4 48 -10 48 -18 0 -11 35 10
50 22 16 27 46 8 52 -9 3 -8 9 5 22 16 17 18 17 34 0 13 -13 14 -19 5 -22 -19
-6 -14 -36 8 -52 21 -15 28 -50 10 -50 -5 0 -10 -21 -10 -46 0 -40 5 -50 40
-84 22 -21 40 -46 40 -54 0 -19 -16 -21 -23 -3 -2 6 -8 9 -12 5 -4 -4 0 -14 9
-23 14 -15 18 -15 31 -1 22 22 19 79 -5 96 -11 8 -20 21 -20 30 0 9 -9 22 -20
30 -18 13 -29 50 -14 50 11 0 34 -29 34 -44 0 -9 5 -16 10 -16 6 0 10 -9 10
-20 0 -11 5 -20 10 -20 6 0 10 9 10 20 0 11 -4 20 -10 20 -5 0 -10 12 -10 26
0 16 -12 37 -32 56 -26 24 -29 31 -17 40 11 7 11 11 2 15 -7 2 -13 11 -13 19
0 13 -43 65 -52 63 -2 0 -13 -11 -25 -24z m-3 -65 c0 -5 -4 -10 -10 -10 -5 0
-10 5 -10 10 0 6 5 10 10 10 6 0 10 -4 10 -10z m80 0 c0 -5 -4 -10 -10 -10 -5
0 -10 5 -10 10 0 6 5 10 10 10 6 0 10 -4 10 -10z"/>
<path d="M140 222 c0 -10 -9 -24 -20 -32 -14 -10 -20 -26 -20 -52 0 -21 5 -38
10 -38 6 0 10 -12 10 -26 0 -14 7 -32 15 -40 13 -14 17 -14 30 0 8 8 15 26 15
40 0 14 5 26 10 26 6 0 10 17 10 38 0 26 -6 42 -20 52 -11 8 -20 22 -20 32 0
10 -4 18 -10 18 -5 0 -10 -8 -10 -18z m26 -36 c16 -16 19 -86 4 -86 -5 0 -10
-13 -10 -30 0 -16 -4 -30 -10 -30 -5 0 -10 14 -10 30 0 17 -4 30 -10 30 -14 0
-12 68 3 85 15 18 16 18 33 1z"/>
</g>
</svg>
