<?xml version="1.0" standalone="no"?>
<!DOCTYPE svg PUBLIC "-//W3C//DTD SVG 20010904//EN"
 "http://www.w3.org/TR/2001/REC-SVG-20010904/DTD/svg10.dtd">
<svg version="1.0" xmlns="http://www.w3.org/2000/svg"
 width="32.000000pt" height="48.000000pt" viewBox="0 0 32.000000 48.000000"
 preserveAspectRatio="xMidYMid meet">
<metadata>
Created by potrace 1.10, written by Peter Selinger 2001-2011
</metadata>
<g transform="translate(0.000000,48.000000) scale(0.100000,-0.100000)"
fill="#ffffff" stroke="none">
<path d="M113 405 c-7 -8 -13 -24 -13 -35 0 -18 -40 -70 -55 -70 -3 0 -5 14
-5 30 0 17 -4 30 -10 30 -16 0 -11 -50 7 -68 12 -12 18 -13 21 -4 6 19 22 14
22 -8 0 -11 5 -20 10 -20 6 0 10 -7 10 -16 0 -9 9 -25 21 -35 19 -16 20 -20 6
-34 -9 -8 -23 -15 -31 -15 -9 0 -16 -4 -16 -10 0 -19 31 -10 57 16 20 21 23
28 12 34 -7 5 -10 12 -7 15 11 11 78 -63 78 -85 0 -23 -22 -50 -40 -50 -17 0
-44 -30 -35 -38 4 -4 10 -1 12 6 3 6 11 12 19 12 28 0 64 47 64 85 0 19 -4 35
-10 35 -5 0 -10 9 -10 20 0 11 -4 20 -10 20 -5 0 -10 5 -10 10 0 14 38 12 42
-2 3 -9 10 -8 22 5 10 10 15 21 12 25 -4 3 -12 0 -17 -8 -8 -11 -12 -12 -16
-2 -6 14 -43 16 -43 2 0 -18 -31 -10 -55 15 -14 13 -25 27 -25 30 0 11 39 4
42 -7 3 -9 10 -8 22 5 10 10 15 21 12 25 -4 3 -12 0 -17 -8 -8 -11 -12 -12
-16 -2 -2 6 -13 12 -24 12 -25 0 -24 12 1 30 26 19 28 70 3 70 -10 -1 -24 -7
-30 -15z"/>
</g>
</svg>
