<?xml version="1.0" standalone="no"?>
<!DOCTYPE svg PUBLIC "-//W3C//DTD SVG 20010904//EN"
 "http://www.w3.org/TR/2001/REC-SVG-20010904/DTD/svg10.dtd">
<svg version="1.0" xmlns="http://www.w3.org/2000/svg"
 width="32.000000pt" height="48.000000pt" viewBox="0 0 32.000000 48.000000"
 preserveAspectRatio="xMidYMid meet">
<metadata>
Created by potrace 1.10, written by Peter Selinger 2001-2011
</metadata>
<g transform="translate(0.000000,48.000000) scale(0.100000,-0.100000)"
fill="#ffffff" stroke="none">
<path d="M170 420 c-11 -15 -26 -20 -61 -20 -29 0 -49 5 -52 13 -2 7 -8 8 -13
3 -5 -5 -4 -11 4 -13 19 -7 14 -23 -8 -23 -24 0 -25 -6 -3 -28 12 -12 18 -13
21 -4 4 14 42 17 42 3 0 -5 -6 -11 -12 -14 -8 -2 -9 -8 -4 -13 5 -5 11 -4 13
4 5 12 43 18 43 6 0 -16 -33 -34 -64 -34 -29 0 -36 -4 -36 -20 0 -11 -4 -20
-10 -20 -16 0 -12 -90 5 -107 9 -8 19 -12 23 -8 4 4 1 10 -5 12 -15 5 -18 63
-4 63 5 0 11 -6 14 -12 2 -8 8 -9 13 -4 5 5 4 11 -3 13 -18 6 -16 31 2 49 13
14 17 13 32 -2 13 -13 14 -19 5 -22 -7 -2 -12 -21 -12 -43 0 -21 -4 -39 -10
-39 -14 0 -12 -38 3 -43 8 -3 4 -11 -12 -26 -13 -11 -22 -24 -18 -27 3 -3 18
6 33 21 21 21 24 29 13 35 -11 7 -9 13 9 28 12 11 22 27 22 36 0 9 8 16 20 16
16 0 20 -7 20 -30 0 -16 5 -30 10 -30 6 0 10 -7 10 -15 0 -20 49 -70 58 -60 4
4 1 10 -5 12 -7 3 -13 13 -13 24 0 10 -4 19 -10 19 -5 0 -10 21 -10 46 0 35
-5 51 -21 65 -19 17 -20 20 -5 34 14 15 18 14 42 -10 21 -21 24 -29 13 -35 -7
-5 -10 -13 -5 -17 5 -4 11 -2 13 5 3 6 9 12 14 12 14 0 11 -58 -3 -63 -7 -2
-10 -8 -6 -12 4 -4 14 0 23 8 17 17 21 107 5 107 -5 0 -10 9 -10 20 0 11 -4
20 -10 20 -5 0 -10 7 -10 15 0 20 -44 65 -64 65 -8 0 -16 -6 -19 -12 -2 -8 -8
-9 -13 -4 -5 5 -4 11 4 13 6 3 12 13 12 24 0 10 5 19 10 19 6 0 10 5 10 10 0
16 -15 11 -30 -10z m-30 -50 c0 -5 -4 -10 -10 -10 -5 0 -10 5 -10 10 0 6 5 10
10 10 6 0 10 -4 10 -10z"/>
</g>
</svg>
