<?xml version="1.0" standalone="no"?>
<!DOCTYPE svg PUBLIC "-//W3C//DTD SVG 20010904//EN"
 "http://www.w3.org/TR/2001/REC-SVG-20010904/DTD/svg10.dtd">
<svg version="1.0" xmlns="http://www.w3.org/2000/svg"
 width="32.000000pt" height="48.000000pt" viewBox="0 0 32.000000 48.000000"
 preserveAspectRatio="xMidYMid meet">
<metadata>
Created by potrace 1.10, written by Peter Selinger 2001-2011
</metadata>
<g transform="translate(0.000000,48.000000) scale(0.100000,-0.100000)"
fill="#ffffff" stroke="none">
<path d="M120 410 c0 -5 -7 -10 -15 -10 -20 0 -65 -45 -65 -65 0 -8 -4 -15
-10 -15 -5 0 -10 -9 -10 -20 0 -11 5 -20 10 -20 6 0 10 -7 10 -16 0 -20 24
-44 44 -44 9 0 16 -4 16 -10 0 -5 14 -10 30 -10 17 0 30 -4 30 -10 0 -15 58
-12 63 3 2 6 8 9 12 5 4 -4 0 -14 -8 -23 -11 -11 -36 -15 -87 -15 -62 0 -74
-3 -95 -25 -29 -28 -31 -41 -11 -61 17 -16 46 -19 46 -4 0 6 -9 10 -20 10 -24
0 -25 6 -6 26 10 10 39 14 100 14 51 0 86 4 86 10 0 6 7 10 16 10 18 0 44 23
44 40 0 25 -49 60 -85 60 -19 0 -35 5 -35 10 0 6 -13 10 -30 10 -16 0 -30 5
-30 10 0 6 9 10 20 10 26 0 25 8 -2 31 -11 11 -18 22 -15 25 4 4 20 -7 36 -25
16 -17 36 -31 45 -31 9 0 16 -4 16 -10 0 -18 31 -10 55 15 14 13 25 34 25 45
0 24 -42 70 -65 70 -8 0 -15 5 -15 10 0 6 -22 10 -50 10 -27 0 -50 -4 -50 -10z
m146 -44 c18 -19 18 -53 -1 -72 -13 -14 -17 -14 -30 0 -18 18 -19 52 -2 71 15
18 16 18 33 1z"/>
<path d="M240 330 c0 -5 5 -10 10 -10 6 0 10 5 10 10 0 6 -4 10 -10 10 -5 0
-10 -4 -10 -10z"/>
</g>
</svg>
