<?xml version="1.0" standalone="no"?>
<!DOCTYPE svg PUBLIC "-//W3C//DTD SVG 20010904//EN"
 "http://www.w3.org/TR/2001/REC-SVG-20010904/DTD/svg10.dtd">
<svg version="1.0" xmlns="http://www.w3.org/2000/svg"
 width="32.000000pt" height="48.000000pt" viewBox="0 0 32.000000 48.000000"
 preserveAspectRatio="xMidYMid meet">
<metadata>
Created by potrace 1.10, written by Peter Selinger 2001-2011
</metadata>
<g transform="translate(0.000000,48.000000) scale(0.100000,-0.100000)"
fill="#ffffff" stroke="none">
<path d="M100 410 c0 -5 5 -10 10 -10 6 0 10 5 10 10 0 6 -4 10 -10 10 -5 0
-10 -4 -10 -10z"/>
<path d="M140 402 c0 -10 -9 -24 -20 -32 -11 -8 -20 -22 -20 -32 0 -10 -4 -18
-10 -18 -5 0 -10 -9 -10 -19 0 -11 -6 -21 -12 -24 -7 -2 -10 -8 -6 -12 8 -9
38 18 38 35 0 6 7 18 15 27 14 14 18 13 34 -6 10 -12 26 -21 35 -21 9 0 16 -4
16 -10 0 -18 -32 -11 -51 12 -11 11 -22 18 -27 13 -4 -4 -1 -10 6 -12 19 -7
14 -37 -8 -53 -12 -8 -20 -26 -20 -42 0 -15 -4 -28 -10 -28 -5 0 -10 -9 -10
-20 0 -11 -4 -20 -10 -20 -5 0 -10 -13 -10 -30 0 -23 4 -30 20 -30 17 0 20 7
20 40 0 22 5 40 10 40 6 0 10 14 10 30 0 17 5 30 10 30 6 0 10 9 10 20 0 13 7
20 20 20 26 0 26 -12 0 -30 -21 -15 -28 -70 -10 -70 6 0 10 -18 10 -40 l0 -40
50 0 c28 0 50 5 50 10 0 6 -4 10 -10 10 -5 0 -10 9 -10 20 0 11 -4 20 -10 20
-5 0 -10 9 -10 20 0 11 -4 20 -10 20 -5 0 -10 9 -10 19 0 11 -6 22 -12 25 -10
5 -10 7 0 12 6 3 12 12 12 21 0 8 7 21 15 30 14 14 18 13 35 -8 11 -12 23 -19
27 -16 3 4 -4 15 -15 26 -12 10 -22 24 -22 30 0 17 -46 61 -64 61 -8 0 -16 -6
-19 -12 -2 -8 -8 -9 -13 -4 -5 5 -4 11 4 13 14 5 16 43 2 43 -5 0 -10 -8 -10
-18z"/>
<path d="M180 410 c0 -5 5 -10 10 -10 6 0 10 5 10 10 0 6 -4 10 -10 10 -5 0
-10 -4 -10 -10z"/>
<path d="M120 120 c0 -22 5 -40 10 -40 6 0 10 18 10 40 0 22 -4 40 -10 40 -5
0 -10 -18 -10 -40z"/>
</g>
</svg>
