<?xml version="1.0" standalone="no"?>
<!DOCTYPE svg PUBLIC "-//W3C//DTD SVG 20010904//EN"
 "http://www.w3.org/TR/2001/REC-SVG-20010904/DTD/svg10.dtd">
<svg version="1.0" xmlns="http://www.w3.org/2000/svg"
 width="32.000000pt" height="48.000000pt" viewBox="0 0 32.000000 48.000000"
 preserveAspectRatio="xMidYMid meet">
<metadata>
Created by potrace 1.10, written by Peter Selinger 2001-2011
</metadata>
<g transform="translate(0.000000,48.000000) scale(0.100000,-0.100000)"
fill="#ffffff" stroke="none">
<path d="M100 430 c0 -5 5 -10 10 -10 6 0 10 5 10 10 0 6 -4 10 -10 10 -5 0
-10 -4 -10 -10z"/>
<path d="M140 422 c0 -10 -9 -24 -20 -32 -11 -8 -20 -22 -20 -32 0 -10 -4 -18
-10 -18 -5 0 -10 -9 -10 -19 0 -11 -6 -21 -12 -24 -7 -2 -10 -8 -6 -12 8 -9
38 18 38 35 0 6 7 18 15 27 14 14 18 13 34 -6 10 -12 25 -21 34 -21 8 0 18 -6
20 -12 4 -10 8 -9 16 2 8 12 13 11 31 -9 11 -14 23 -21 27 -18 3 4 -4 15 -15
26 -12 10 -22 24 -22 30 0 17 -46 61 -64 61 -8 0 -16 -6 -19 -12 -2 -8 -8 -9
-13 -4 -5 5 -4 11 4 13 14 5 16 43 2 43 -5 0 -10 -8 -10 -18z"/>
<path d="M180 430 c0 -5 5 -10 10 -10 6 0 10 5 10 10 0 6 -4 10 -10 10 -5 0
-10 -4 -10 -10z"/>
<path d="M120 330 c0 -5 5 -10 10 -10 18 0 11 -55 -10 -70 -12 -8 -20 -26 -20
-42 0 -15 -4 -28 -10 -28 -5 0 -10 -9 -10 -20 0 -11 -4 -20 -10 -20 -5 0 -10
-13 -10 -30 0 -23 4 -30 20 -30 17 0 20 7 20 40 0 22 5 40 10 40 6 0 10 14 10
30 0 17 5 30 10 30 6 0 10 9 10 20 0 13 7 20 20 20 11 0 20 -4 20 -8 0 -4 -9
-14 -20 -22 -21 -15 -28 -70 -10 -70 6 0 10 -18 10 -40 l0 -40 50 0 c28 0 50
5 50 10 0 6 -4 10 -10 10 -5 0 -10 9 -10 20 0 11 -4 20 -10 20 -5 0 -10 9 -10
20 0 11 -4 20 -10 20 -5 0 -10 9 -10 19 0 11 -6 22 -12 25 -10 5 -10 7 0 12 6
3 12 19 12 35 0 21 -5 29 -18 29 -10 0 -24 9 -32 20 -15 21 -30 26 -30 10z"/>
<path d="M120 120 c0 -22 5 -40 10 -40 6 0 10 18 10 40 0 22 -4 40 -10 40 -5
0 -10 -18 -10 -40z"/>
</g>
</svg>
