<?xml version="1.0" standalone="no"?>
<!DOCTYPE svg PUBLIC "-//W3C//DTD SVG 20010904//EN"
 "http://www.w3.org/TR/2001/REC-SVG-20010904/DTD/svg10.dtd">
<svg version="1.0" xmlns="http://www.w3.org/2000/svg"
 width="32.000000pt" height="48.000000pt" viewBox="0 0 32.000000 48.000000"
 preserveAspectRatio="xMidYMid meet">
<metadata>
Created by potrace 1.10, written by Peter Selinger 2001-2011
</metadata>
<g transform="translate(0.000000,48.000000) scale(0.100000,-0.100000)"
fill="#ffffff" stroke="none">
<path d="M100 420 c0 -13 7 -20 20 -20 13 0 20 7 20 20 0 13 -7 20 -20 20 -13
0 -20 -7 -20 -20z"/>
<path d="M73 385 c-7 -8 -13 -20 -13 -27 0 -8 -9 -20 -20 -28 -12 -8 -20 -26
-20 -42 0 -15 -4 -28 -10 -28 -16 0 -12 -50 5 -67 9 -8 19 -12 23 -8 4 4 1 10
-5 12 -15 5 -18 63 -4 63 5 0 11 -6 14 -12 2 -8 8 -9 13 -4 5 5 4 11 -3 13
-17 6 -16 31 2 49 13 13 18 12 42 -12 17 -18 23 -29 15 -32 -7 -2 -12 -21 -12
-43 0 -21 -4 -39 -10 -39 -5 0 -10 -22 -10 -50 0 -27 5 -50 10 -50 6 0 10 23
10 50 0 28 5 50 10 50 6 0 10 14 10 30 0 27 3 30 30 30 28 0 30 -2 30 -40 0
-22 5 -40 10 -40 6 0 10 -7 10 -15 0 -19 48 -70 57 -61 4 3 -4 14 -15 25 -12
10 -22 26 -22 35 0 9 -4 16 -10 16 -5 0 -10 21 -10 46 0 35 -5 51 -21 65 -19
17 -20 20 -5 34 14 15 18 14 42 -10 21 -21 24 -29 13 -35 -7 -5 -10 -13 -5
-17 5 -4 11 -2 13 5 3 6 9 12 14 12 14 0 11 -58 -3 -63 -7 -2 -10 -8 -6 -12
11 -12 38 21 38 47 0 13 -9 30 -20 38 -11 8 -20 22 -20 32 0 10 -4 18 -10 18
-5 0 -10 7 -10 15 0 9 -11 27 -25 40 -24 25 -55 33 -55 15 0 -5 -9 -10 -20
-10 -11 0 -20 5 -20 10 0 14 -13 12 -27 -5z"/>
</g>
</svg>
