<?xml version="1.0" standalone="no"?>
<!DOCTYPE svg PUBLIC "-//W3C//DTD SVG 20010904//EN"
 "http://www.w3.org/TR/2001/REC-SVG-20010904/DTD/svg10.dtd">
<svg version="1.0" xmlns="http://www.w3.org/2000/svg"
 width="32.000000pt" height="48.000000pt" viewBox="0 0 32.000000 48.000000"
 preserveAspectRatio="xMidYMid meet">
<metadata>
Created by potrace 1.10, written by Peter Selinger 2001-2011
</metadata>
<g transform="translate(0.000000,48.000000) scale(0.100000,-0.100000)"
fill="#ffffff" stroke="none">
<path d="M140 390 c0 -5 5 -10 10 -10 6 0 10 5 10 10 0 6 -4 10 -10 10 -5 0
-10 -4 -10 -10z"/>
<path d="M20 350 c0 -5 7 -10 16 -10 20 0 44 -24 44 -44 0 -19 17 -21 22 -4 3
9 9 8 21 -4 19 -18 23 -48 7 -48 -5 0 -10 -13 -10 -30 0 -16 -4 -30 -10 -30
-5 0 -10 -18 -10 -40 0 -22 5 -40 10 -40 6 0 10 18 10 40 0 22 5 40 10 40 6 0
10 9 10 20 0 13 7 20 20 20 16 0 20 -7 20 -30 0 -16 5 -30 10 -30 6 0 10 -7
10 -16 0 -20 29 -49 38 -39 4 4 1 10 -5 12 -7 3 -13 13 -13 24 0 10 -4 19 -10
19 -5 0 -10 9 -10 20 0 22 16 27 23 8 2 -7 8 -10 12 -6 10 9 -40 58 -60 58 -8
0 -15 5 -15 10 0 6 9 10 20 10 11 0 20 5 20 10 0 6 -13 10 -30 10 -16 0 -30 5
-30 10 0 6 18 10 40 10 30 0 40 -4 40 -16 0 -8 6 -22 14 -30 17 -16 46 -19 46
-4 0 6 -9 10 -20 10 -16 0 -20 7 -20 30 0 17 5 30 10 30 6 0 10 9 10 20 0 11
-4 20 -10 20 -5 0 -10 -9 -10 -20 0 -11 -4 -20 -8 -20 -4 0 -14 9 -22 20 -20
28 -77 27 -101 -2 l-19 -21 -19 21 c-19 23 -51 30 -51 12z m180 -20 c0 -5 -18
-10 -40 -10 -22 0 -40 5 -40 10 0 6 18 10 40 10 22 0 40 -4 40 -10z"/>
</g>
</svg>
