<?xml version="1.0" standalone="no"?>
<!DOCTYPE svg PUBLIC "-//W3C//DTD SVG 20010904//EN"
 "http://www.w3.org/TR/2001/REC-SVG-20010904/DTD/svg10.dtd">
<svg version="1.0" xmlns="http://www.w3.org/2000/svg"
 width="32.000000pt" height="48.000000pt" viewBox="0 0 32.000000 48.000000"
 preserveAspectRatio="xMidYMid meet">
<metadata>
Created by potrace 1.10, written by Peter Selinger 2001-2011
</metadata>
<g transform="translate(0.000000,48.000000) scale(0.100000,-0.100000)"
fill="#ffffff" stroke="none">
<path d="M160 390 c0 -5 5 -10 10 -10 6 0 10 5 10 10 0 6 -4 10 -10 10 -5 0
-10 -4 -10 -10z"/>
<path d="M0 350 c0 -5 7 -10 16 -10 9 0 29 -14 46 -32 23 -24 31 -29 38 -18 7
11 11 10 24 -3 18 -17 21 -47 6 -47 -5 0 -10 -13 -10 -30 0 -16 -4 -30 -10
-30 -5 0 -10 -18 -10 -40 0 -22 5 -40 10 -40 6 0 10 18 10 40 0 22 5 40 10 40
6 0 10 9 10 20 0 13 7 20 20 20 16 0 20 -7 20 -30 0 -16 5 -30 10 -30 6 0 10
-7 10 -16 0 -20 29 -49 38 -39 4 4 1 10 -6 12 -6 3 -12 13 -12 24 0 10 -4 19
-10 19 -5 0 -10 9 -10 20 0 22 16 27 23 8 2 -7 8 -10 12 -6 10 9 -40 58 -60
58 -8 0 -15 5 -15 10 0 6 9 10 20 10 11 0 20 5 20 10 0 6 -13 10 -30 10 -16 0
-30 5 -30 10 0 6 18 10 40 10 29 0 40 -4 40 -15 0 -19 48 -70 57 -61 4 3 -4
14 -15 25 -24 20 -30 67 -10 73 9 3 8 10 -5 23 -16 15 -20 16 -29 4 -7 -11
-11 -11 -15 -1 -8 20 -77 15 -93 -8 -8 -11 -21 -20 -30 -20 -9 0 -22 9 -30 20
-15 21 -50 28 -50 10z m200 -20 c0 -5 -18 -10 -40 -10 -22 0 -40 5 -40 10 0 6
18 10 40 10 22 0 40 -4 40 -10z m40 0 c0 -5 -4 -10 -10 -10 -5 0 -10 5 -10 10
0 6 5 10 10 10 6 0 10 -4 10 -10z"/>
</g>
</svg>
