<?xml version="1.0" standalone="no"?>
<!DOCTYPE svg PUBLIC "-//W3C//DTD SVG 20010904//EN"
 "http://www.w3.org/TR/2001/REC-SVG-20010904/DTD/svg10.dtd">
<svg version="1.0" xmlns="http://www.w3.org/2000/svg"
 width="32.000000pt" height="48.000000pt" viewBox="0 0 32.000000 48.000000"
 preserveAspectRatio="xMidYMid meet">
<metadata>
Created by potrace 1.10, written by Peter Selinger 2001-2011
</metadata>
<g transform="translate(0.000000,48.000000) scale(0.100000,-0.100000)"
fill="#ffffff" stroke="none">
<path d="M120 330 c0 -5 -7 -10 -16 -10 -20 0 -44 -24 -44 -44 0 -9 -4 -16
-10 -16 -5 0 -10 -9 -10 -20 0 -13 7 -20 20 -20 13 0 20 7 20 20 0 11 5 20 10
20 6 0 10 -18 10 -40 l0 -40 60 0 60 0 0 40 c0 22 5 40 10 40 6 0 10 -9 10
-20 0 -13 7 -20 20 -20 13 0 20 7 20 20 0 11 -4 20 -10 20 -5 0 -10 7 -10 16
0 20 -24 44 -43 44 -9 0 -18 6 -21 13 -5 10 -7 10 -12 0 -7 -15 -44 -17 -44
-3 0 6 -4 10 -10 10 -5 0 -10 -4 -10 -10z m20 -20 c0 -14 38 -12 43 3 2 6 8 9
12 5 9 -8 -18 -38 -35 -38 -12 0 -40 24 -40 34 0 3 5 6 10 6 6 0 10 -4 10 -10z"/>
<path d="M100 150 c0 -6 27 -10 60 -10 33 0 60 4 60 10 0 6 -27 10 -60 10 -33
0 -60 -4 -60 -10z"/>
</g>
</svg>
