<?xml version="1.0" standalone="no"?>
<!DOCTYPE svg PUBLIC "-//W3C//DTD SVG 20010904//EN"
 "http://www.w3.org/TR/2001/REC-SVG-20010904/DTD/svg10.dtd">
<svg version="1.0" xmlns="http://www.w3.org/2000/svg"
 width="32.000000pt" height="48.000000pt" viewBox="0 0 32.000000 48.000000"
 preserveAspectRatio="xMidYMid meet">
<metadata>
Created by potrace 1.10, written by Peter Selinger 2001-2011
</metadata>
<g transform="translate(0.000000,48.000000) scale(0.100000,-0.100000)"
fill="#ffffff" stroke="none">
<path d="M80 430 c0 -5 5 -10 10 -10 6 0 10 -9 10 -20 0 -11 5 -20 10 -20 6 0
10 -9 10 -20 0 -26 -8 -25 -31 1 -17 20 -19 20 -35 5 -15 -16 -15 -18 7 -38
16 -14 20 -22 12 -25 -7 -3 -13 -13 -13 -24 0 -12 -7 -19 -20 -19 -11 0 -20
-4 -20 -10 0 -5 9 -10 20 -10 13 0 20 -7 20 -19 0 -11 6 -21 13 -24 8 -3 4
-11 -12 -25 -22 -20 -22 -22 -7 -38 16 -15 18 -15 35 5 23 26 31 27 31 1 0
-11 -4 -20 -10 -20 -5 0 -10 -9 -10 -19 0 -11 -6 -21 -12 -24 -7 -2 -10 -8 -6
-12 9 -10 38 19 38 39 0 9 5 16 10 16 14 0 12 37 -2 43 -10 4 -10 8 1 15 12 9
11 13 -4 29 -13 13 -20 14 -23 5 -6 -19 -22 -14 -22 8 0 22 35 28 43 8 4 -10
8 -9 16 2 5 8 13 11 18 7 4 -5 1 -12 -7 -18 -13 -8 -13 -10 0 -19 13 -9 13
-11 0 -21 -11 -8 -12 -12 -2 -16 7 -3 12 -24 12 -54 0 -27 5 -49 10 -49 6 0
10 22 10 49 0 30 5 51 13 54 9 4 8 8 -3 16 -13 10 -13 12 0 21 13 9 13 11 0
19 -8 6 -11 13 -7 18 5 4 13 1 18 -7 8 -11 12 -12 16 -2 8 20 43 14 43 -8 0
-22 -16 -27 -22 -8 -3 9 -10 8 -23 -5 -15 -16 -16 -20 -4 -29 11 -7 11 -11 2
-15 -15 -6 -17 -43 -3 -43 6 0 10 -7 10 -16 0 -20 29 -49 38 -39 4 4 1 10 -5
12 -7 3 -13 13 -13 24 0 10 -4 19 -10 19 -5 0 -10 9 -10 20 0 26 8 25 31 -1
17 -20 19 -20 35 -5 15 16 15 18 -7 38 -16 14 -20 22 -11 25 6 3 12 13 12 24
0 12 7 19 20 19 11 0 20 5 20 10 0 6 -9 10 -20 10 -13 0 -20 7 -20 19 0 11 -6
21 -12 24 -9 3 -5 11 11 25 22 20 22 22 7 38 -16 15 -18 15 -35 -5 -23 -26
-31 -27 -31 -1 0 11 5 20 10 20 6 0 10 9 10 19 0 11 6 21 13 24 6 2 9 8 5 12
-9 10 -38 -19 -38 -39 0 -9 -4 -16 -10 -16 -14 0 -12 -37 3 -43 9 -4 9 -8 -2
-15 -12 -9 -11 -13 4 -29 13 -13 20 -14 23 -5 6 19 22 14 22 -8 0 -22 -35 -28
-43 -7 -4 9 -8 8 -16 -3 -5 -8 -13 -11 -18 -7 -4 5 -1 12 7 18 13 8 13 10 0
19 -13 9 -13 11 0 21 11 8 12 12 3 16 -8 3 -13 24 -13 54 0 27 -4 49 -10 49
-5 0 -10 -22 -10 -49 0 -30 -5 -51 -12 -54 -10 -4 -9 -8 2 -16 13 -10 13 -12
0 -21 -13 -9 -13 -11 0 -19 8 -6 11 -13 7 -18 -5 -4 -13 -1 -18 7 -8 11 -12
12 -16 3 -8 -21 -43 -15 -43 7 0 22 16 27 22 8 3 -9 10 -8 23 5 15 16 16 20 4
29 -11 7 -11 11 -1 15 14 6 16 43 2 43 -5 0 -10 7 -10 16 0 15 -23 44 -34 44
-3 0 -6 -4 -6 -10z m17 -96 c14 -14 23 -28 20 -31 -6 -5 -57 41 -57 52 0 11
12 4 37 -21z m183 21 c0 -11 -51 -57 -57 -52 -3 3 6 17 18 31 23 24 39 32 39
21z m-160 -160 c0 -11 -51 -57 -57 -52 -3 3 6 17 18 31 23 24 39 32 39 21z
m137 -21 c14 -14 23 -28 20 -31 -6 -5 -57 41 -57 52 0 11 12 4 37 -21z"/>
</g>
</svg>
