<?xml version="1.0" standalone="no"?>
<!DOCTYPE svg PUBLIC "-//W3C//DTD SVG 20010904//EN"
 "http://www.w3.org/TR/2001/REC-SVG-20010904/DTD/svg10.dtd">
<svg version="1.0" xmlns="http://www.w3.org/2000/svg"
 width="32.000000pt" height="48.000000pt" viewBox="0 0 32.000000 48.000000"
 preserveAspectRatio="xMidYMid meet">
<metadata>
Created by potrace 1.10, written by Peter Selinger 2001-2011
</metadata>
<g transform="translate(0.000000,48.000000) scale(0.100000,-0.100000)"
fill="#ffffff" stroke="none">
<path d="M180 400 c0 -13 7 -20 20 -20 13 0 20 7 20 20 0 13 -7 20 -20 20 -13
0 -20 -7 -20 -20z"/>
<path d="M140 360 c0 -13 -7 -20 -20 -20 -11 0 -20 5 -20 10 0 14 -37 12 -43
-2 -4 -10 -8 -9 -16 2 -5 8 -14 11 -18 6 -4 -5 -2 -11 5 -13 14 -5 16 -43 2
-43 -18 0 -11 -35 10 -50 21 -15 28 -50 10 -50 -15 0 -12 -29 4 -46 8 -8 22
-14 30 -14 9 0 16 -4 16 -10 0 -5 9 -10 20 -10 13 0 20 7 20 20 0 13 7 20 20
20 11 0 20 -4 20 -10 0 -18 35 -11 50 10 8 11 18 20 22 20 4 0 8 -9 8 -20 0
-13 7 -20 20 -20 13 0 20 7 20 20 0 11 -7 20 -15 20 -19 0 -65 44 -65 62 0 8
9 20 20 28 11 8 20 20 20 28 0 18 -46 62 -65 62 -8 0 -15 5 -15 10 0 6 -9 10
-20 10 -13 0 -20 -7 -20 -20z m26 -55 c14 -13 14 -17 0 -31 -15 -14 -17 -14
-32 0 -12 13 -13 18 -2 30 16 19 16 19 34 1z m-20 -80 c14 -13 14 -17 0 -31
-15 -14 -17 -14 -32 0 -12 13 -13 18 -2 30 16 19 16 19 34 1z"/>
<path d="M140 290 c0 -5 5 -10 10 -10 6 0 10 5 10 10 0 6 -4 10 -10 10 -5 0
-10 -4 -10 -10z"/>
<path d="M120 210 c0 -5 5 -10 10 -10 6 0 10 5 10 10 0 6 -4 10 -10 10 -5 0
-10 -4 -10 -10z"/>
<path d="M20 120 c0 -13 7 -20 20 -20 13 0 20 7 20 20 0 13 -7 20 -20 20 -13
0 -20 -7 -20 -20z"/>
<path d="M220 110 c0 -5 5 -10 10 -10 6 0 10 5 10 10 0 6 -4 10 -10 10 -5 0
-10 -4 -10 -10z"/>
</g>
</svg>
