<?xml version="1.0" standalone="no"?>
<!DOCTYPE svg PUBLIC "-//W3C//DTD SVG 20010904//EN"
 "http://www.w3.org/TR/2001/REC-SVG-20010904/DTD/svg10.dtd">
<svg version="1.0" xmlns="http://www.w3.org/2000/svg"
 width="32.000000pt" height="48.000000pt" viewBox="0 0 32.000000 48.000000"
 preserveAspectRatio="xMidYMid meet">
<metadata>
Created by potrace 1.10, written by Peter Selinger 2001-2011
</metadata>
<g transform="translate(0.000000,48.000000) scale(0.100000,-0.100000)"
fill="#ffffff" stroke="none">
<path d="M120 410 c0 -5 5 -10 10 -10 6 0 10 -4 10 -10 0 -14 -38 -12 -43 3
-2 7 -8 8 -13 3 -5 -5 -4 -11 4 -13 14 -5 17 -43 3 -43 -5 0 -11 6 -14 13 -2
7 -8 8 -13 3 -5 -5 -4 -11 4 -13 6 -3 12 -13 12 -23 0 -10 -6 -20 -12 -23 -8
-2 -9 -8 -4 -13 5 -5 11 -4 13 4 3 6 9 12 14 12 14 0 11 -38 -3 -43 -7 -2 -9
-8 -5 -13 4 -5 12 -2 17 5 7 12 11 11 26 -3 14 -15 15 -19 3 -26 -7 -5 -10
-12 -6 -17 5 -4 12 -1 17 6 7 12 11 11 26 -3 15 -15 15 -19 3 -28 -11 -7 -11
-11 -1 -15 14 -5 17 -43 3 -43 -5 0 -11 6 -14 13 -2 7 -8 8 -13 3 -5 -5 -4
-11 4 -13 6 -3 12 -9 12 -14 0 -14 -38 -11 -43 4 -2 6 -8 8 -13 4 -5 -4 -2
-12 6 -18 13 -8 13 -10 0 -18 -8 -6 -11 -13 -7 -18 5 -4 12 -1 18 7 8 13 10
13 19 0 9 -13 11 -13 20 0 9 13 11 13 19 0 6 -8 14 -11 18 -6 4 5 2 11 -4 13
-7 3 -13 9 -13 14 0 14 38 11 43 -3 2 -8 8 -9 13 -4 5 5 4 11 -3 13 -15 5 -18
43 -4 43 5 0 11 -6 14 -12 2 -8 8 -9 13 -4 5 5 4 11 -3 13 -17 6 -17 40 0 46
7 2 8 8 3 13 -5 5 -11 4 -13 -3 -3 -7 -9 -13 -14 -13 -14 0 -11 38 4 43 6 2 8
8 4 13 -4 5 -12 2 -17 -5 -7 -12 -11 -11 -26 3 -14 15 -15 19 -3 26 7 5 10 12
6 17 -5 4 -12 1 -17 -6 -7 -12 -11 -11 -26 3 -15 15 -15 19 -3 28 11 7 11 11
2 15 -15 5 -18 43 -4 43 5 0 11 -6 14 -12 2 -8 8 -9 13 -4 5 5 4 11 -3 13 -7
3 -13 9 -13 14 0 14 38 11 43 -3 2 -7 8 -9 13 -5 5 4 2 12 -6 18 -13 8 -13 10
0 18 8 6 11 13 7 18 -5 4 -12 1 -18 -7 -8 -13 -10 -13 -19 0 -9 13 -11 13 -21
0 -8 -11 -12 -12 -16 -2 -6 14 -23 16 -23 2z"/>
</g>
</svg>
