<?xml version="1.0" standalone="no"?>
<!DOCTYPE svg PUBLIC "-//W3C//DTD SVG 20010904//EN"
 "http://www.w3.org/TR/2001/REC-SVG-20010904/DTD/svg10.dtd">
<svg version="1.0" xmlns="http://www.w3.org/2000/svg"
 width="32.000000pt" height="48.000000pt" viewBox="0 0 32.000000 48.000000"
 preserveAspectRatio="xMidYMid meet">
<metadata>
Created by potrace 1.10, written by Peter Selinger 2001-2011
</metadata>
<g transform="translate(0.000000,48.000000) scale(0.100000,-0.100000)"
fill="#ffffff" stroke="none">
<path d="M120 381 c0 -11 6 -21 13 -24 7 -2 8 -8 3 -13 -5 -5 -11 -4 -13 4
-10 28 -63 1 -63 -32 0 -9 -4 -16 -10 -16 -5 0 -10 -13 -10 -29 0 -16 -6 -31
-12 -34 -7 -2 -10 -8 -6 -12 12 -12 38 22 38 49 0 31 10 33 30 6 15 -21 70
-28 70 -10 0 6 9 10 20 10 11 0 20 -4 20 -10 0 -5 9 -10 19 -10 11 0 21 -6 23
-12 3 -9 10 -7 24 6 13 14 15 21 6 24 -6 2 -12 15 -12 29 0 26 -27 60 -38 48
-4 -4 -1 -10 6 -12 6 -3 12 -18 12 -34 0 -22 -5 -29 -20 -29 -12 0 -20 7 -20
16 0 9 -13 29 -30 44 -16 15 -30 35 -30 44 0 9 -4 16 -10 16 -5 0 -10 -9 -10
-19z"/>
<path d="M113 225 c-7 -8 -13 -26 -13 -40 0 -14 -4 -25 -10 -25 -5 0 -10 -9
-10 -20 0 -11 -4 -20 -10 -20 -5 0 -10 -4 -10 -10 0 -6 40 -10 100 -10 55 0
100 4 100 8 0 4 -9 14 -20 22 -11 8 -20 22 -20 32 0 10 -4 18 -10 18 -5 0 -10
7 -10 16 0 38 -61 59 -87 29z"/>
</g>
</svg>
