<?xml version="1.0" standalone="no"?>
<!DOCTYPE svg PUBLIC "-//W3C//DTD SVG 20010904//EN"
 "http://www.w3.org/TR/2001/REC-SVG-20010904/DTD/svg10.dtd">
<svg version="1.0" xmlns="http://www.w3.org/2000/svg"
 width="32.000000pt" height="48.000000pt" viewBox="0 0 32.000000 48.000000"
 preserveAspectRatio="xMidYMid meet">
<metadata>
Created by potrace 1.10, written by Peter Selinger 2001-2011
</metadata>
<g transform="translate(0.000000,48.000000) scale(0.100000,-0.100000)"
fill="#ffffff" stroke="none">
<path d="M183 435 c-13 -13 -23 -34 -23 -45 0 -23 22 -50 40 -50 16 0 60 -47
60 -65 0 -8 5 -15 10 -15 18 0 10 52 -11 71 -19 16 -20 20 -6 34 9 8 23 15 31
15 9 0 16 5 16 10 0 15 -77 12 -83 -2 -2 -7 -8 -10 -12 -6 -10 9 40 58 60 58
8 0 15 5 15 10 0 6 -17 10 -37 9 -27 0 -45 -7 -60 -24z"/>
<path d="M31 424 c-12 -14 -12 -17 0 -24 10 -7 8 -13 -10 -29 -22 -19 -22 -21
-5 -38 12 -13 19 -14 22 -5 2 6 12 12 23 12 10 0 19 5 19 10 0 6 9 10 20 10
12 0 20 -7 20 -16 0 -18 -24 -44 -41 -44 -6 0 -20 -10 -31 -22 -16 -19 -21
-20 -28 -8 -5 8 -12 11 -17 7 -4 -5 -1 -12 7 -18 13 -8 13 -10 0 -18 -8 -6
-11 -13 -8 -17 4 -4 21 7 37 25 16 17 36 31 45 31 22 0 20 -9 -6 -31 -11 -11
-18 -22 -14 -26 4 -4 11 -1 17 7 8 13 10 13 18 0 6 -8 14 -11 18 -6 4 5 2 11
-4 13 -20 7 -15 23 7 23 11 0 20 5 20 10 0 6 -9 10 -20 10 -11 0 -20 5 -20 10
0 18 35 11 50 -10 8 -11 22 -20 32 -20 10 0 18 -3 18 -6 0 -10 -28 -34 -40
-34 -6 0 -19 -7 -27 -16 -14 -13 -14 -17 -2 -25 12 -8 12 -10 -1 -18 -8 -6
-11 -13 -8 -17 4 -3 15 2 25 12 13 12 14 19 5 22 -23 7 -12 22 18 22 30 0 41
-14 18 -23 -7 -2 -10 -8 -6 -12 5 -5 17 2 28 14 17 21 21 22 35 8 19 -20 20
-74 1 -93 -18 -17 -43 -18 -49 -1 -2 6 -8 9 -12 5 -9 -8 18 -38 35 -38 6 0 22
11 35 25 19 18 25 35 25 70 0 25 -4 45 -10 45 -5 0 -10 8 -10 18 0 10 -9 24
-20 32 -11 8 -20 20 -20 28 0 18 -25 42 -44 42 -9 0 -16 8 -16 20 0 11 -4 20
-10 20 -5 0 -10 7 -10 15 0 24 -46 65 -72 65 -13 -1 -29 -8 -37 -16z m55 -19
c14 -13 14 -17 0 -30 -8 -8 -21 -15 -29 -15 -9 0 -17 -6 -20 -12 -2 -7 -8 -10
-12 -6 -10 9 19 38 39 38 9 0 16 5 16 10 0 6 -9 10 -20 10 -11 0 -20 5 -20 10
0 15 29 12 46 -5z"/>
</g>
</svg>
