<?xml version="1.0" standalone="no"?>
<!DOCTYPE svg PUBLIC "-//W3C//DTD SVG 20010904//EN"
 "http://www.w3.org/TR/2001/REC-SVG-20010904/DTD/svg10.dtd">
<svg version="1.0" xmlns="http://www.w3.org/2000/svg"
 width="32.000000pt" height="48.000000pt" viewBox="0 0 32.000000 48.000000"
 preserveAspectRatio="xMidYMid meet">
<metadata>
Created by potrace 1.10, written by Peter Selinger 2001-2011
</metadata>
<g transform="translate(0.000000,48.000000) scale(0.100000,-0.100000)"
fill="#ffffff" stroke="none">
<path d="M80 380 c0 -11 5 -20 10 -20 6 0 10 -9 10 -20 0 -13 7 -20 20 -20 11
0 20 -4 20 -10 0 -5 -13 -10 -30 -10 -16 0 -30 5 -30 10 0 15 -49 12 -66 -4
-31 -31 -8 -86 36 -86 25 0 50 22 50 44 0 9 5 16 10 16 6 0 10 -13 10 -30 0
-16 -4 -30 -10 -30 -5 0 -10 -13 -10 -30 0 -16 -4 -30 -10 -30 -5 0 -10 -13
-10 -30 0 -16 5 -30 10 -30 6 0 10 12 10 26 0 29 21 54 44 54 9 0 16 -7 16
-15 0 -19 48 -70 57 -61 4 3 -4 14 -15 25 -22 18 -31 71 -12 71 6 0 10 14 10
30 0 17 5 30 10 30 6 0 10 -4 10 -10 0 -5 9 -10 20 -10 13 0 20 -7 20 -20 0
-11 5 -20 10 -20 6 0 10 9 10 19 0 11 6 22 13 25 10 5 10 7 0 12 -8 4 -13 27
-13 65 0 33 -4 59 -10 59 -6 0 -10 -27 -10 -60 0 -53 -2 -60 -20 -60 -12 0
-20 7 -20 16 0 9 -15 30 -32 47 -21 19 -28 32 -20 34 14 5 17 43 2 43 -5 0
-10 -9 -10 -20 0 -16 -7 -20 -30 -20 -23 0 -30 4 -30 20 0 11 -4 20 -10 20 -5
0 -10 -9 -10 -20z m-20 -110 c0 -5 -4 -10 -10 -10 -5 0 -10 5 -10 10 0 6 5 10
10 10 6 0 10 -4 10 -10z"/>
</g>
</svg>
