<?xml version="1.0" standalone="no"?>
<!DOCTYPE svg PUBLIC "-//W3C//DTD SVG 20010904//EN"
 "http://www.w3.org/TR/2001/REC-SVG-20010904/DTD/svg10.dtd">
<svg version="1.0" xmlns="http://www.w3.org/2000/svg"
 width="32.000000pt" height="48.000000pt" viewBox="0 0 32.000000 48.000000"
 preserveAspectRatio="xMidYMid meet">
<metadata>
Created by potrace 1.10, written by Peter Selinger 2001-2011
</metadata>
<g transform="translate(0.000000,48.000000) scale(0.100000,-0.100000)"
fill="#ffffff" stroke="none">
<path d="M50 363 c-10 -12 -11 -18 -2 -21 7 -2 12 -12 12 -22 0 -10 6 -20 13
-23 8 -3 5 -11 -10 -24 -13 -11 -23 -27 -23 -36 0 -8 -6 -17 -12 -20 -7 -2
-10 -8 -6 -12 9 -10 38 19 38 39 0 20 7 20 27 1 14 -14 13 -18 -6 -34 -12 -10
-21 -24 -21 -30 0 -17 30 -45 38 -36 4 4 1 10 -5 12 -20 7 -15 23 7 23 11 0
20 -7 20 -15 0 -19 48 -70 57 -61 4 3 -4 15 -16 26 -22 18 -22 20 -5 37 12 13
19 14 22 5 6 -19 31 -14 57 13 30 29 32 65 5 85 -11 8 -20 22 -20 32 0 10 -4
18 -10 18 -18 0 -11 -35 10 -50 33 -24 18 -90 -20 -90 -19 0 -40 27 -40 53 0
14 -6 27 -12 30 -7 2 -10 8 -6 12 9 10 38 -19 38 -39 0 -9 5 -16 10 -16 18 0
10 31 -15 55 -13 14 -31 25 -40 25 -22 0 -18 30 7 51 11 11 18 22 15 26 -4 3
-15 -4 -26 -15 -18 -22 -71 -31 -71 -12 0 6 5 10 10 10 6 0 10 5 10 10 0 15
-13 12 -30 -7z"/>
<path d="M200 355 c0 -8 47 -55 55 -55 3 0 5 14 5 30 0 27 -3 30 -30 30 -16 0
-30 -2 -30 -5z"/>
</g>
</svg>
