<?xml version="1.0" standalone="no"?>
<!DOCTYPE svg PUBLIC "-//W3C//DTD SVG 20010904//EN"
 "http://www.w3.org/TR/2001/REC-SVG-20010904/DTD/svg10.dtd">
<svg version="1.0" xmlns="http://www.w3.org/2000/svg"
 width="32.000000pt" height="48.000000pt" viewBox="0 0 32.000000 48.000000"
 preserveAspectRatio="xMidYMid meet">
<metadata>
Created by potrace 1.10, written by Peter Selinger 2001-2011
</metadata>
<g transform="translate(0.000000,48.000000) scale(0.100000,-0.100000)"
fill="#ffffff" stroke="none">
<path d="M40 310 c0 -23 -4 -30 -20 -30 -13 0 -20 -7 -20 -20 0 -16 7 -20 30
-20 17 0 30 -4 30 -10 0 -5 9 -10 20 -10 11 0 20 -4 20 -10 0 -5 9 -10 20 -10
11 0 20 -4 20 -10 0 -5 -4 -10 -10 -10 -5 0 -10 -9 -10 -20 0 -11 -4 -20 -10
-20 -5 0 -10 14 -10 30 0 17 -4 30 -10 30 -5 0 -10 -13 -10 -29 0 -16 -6 -31
-13 -34 -6 -2 -8 -8 -4 -13 4 -5 12 -2 18 6 8 13 10 13 18 1 8 -12 12 -12 25
2 9 8 16 21 16 27 0 16 47 60 65 60 8 0 15 -9 15 -20 0 -11 -4 -20 -10 -20 -5
0 -10 -9 -10 -19 0 -11 -6 -21 -12 -24 -7 -2 -10 -8 -6 -12 9 -10 38 19 38 39
0 9 3 16 6 16 11 0 34 -29 34 -44 0 -9 5 -16 10 -16 6 0 10 18 10 40 0 22 -4
40 -10 40 -5 0 -10 9 -10 20 0 11 3 20 6 20 11 0 34 -29 34 -44 0 -9 5 -16 10
-16 6 0 10 9 10 20 0 11 -4 20 -10 20 -5 0 -10 7 -10 15 0 25 -46 65 -75 65
-14 0 -25 5 -25 10 0 6 -18 10 -40 10 -22 0 -40 -4 -40 -10 0 -5 -4 -10 -10
-10 -5 0 -10 9 -10 20 0 11 -4 20 -10 20 -5 0 -10 -9 -10 -20 0 -11 -4 -20
-10 -20 -5 0 -10 9 -10 20 0 11 -4 20 -10 20 -5 0 -10 -13 -10 -30z"/>
</g>
</svg>
