<?xml version="1.0" standalone="no"?>
<!DOCTYPE svg PUBLIC "-//W3C//DTD SVG 20010904//EN"
 "http://www.w3.org/TR/2001/REC-SVG-20010904/DTD/svg10.dtd">
<svg version="1.0" xmlns="http://www.w3.org/2000/svg"
 width="32.000000pt" height="48.000000pt" viewBox="0 0 32.000000 48.000000"
 preserveAspectRatio="xMidYMid meet">
<metadata>
Created by potrace 1.10, written by Peter Selinger 2001-2011
</metadata>
<g transform="translate(0.000000,48.000000) scale(0.100000,-0.100000)"
fill="#ffffff" stroke="none">
<path d="M60 320 c0 -16 -7 -20 -30 -20 -23 0 -30 -4 -30 -20 0 -11 7 -20 15
-20 21 0 93 -72 77 -78 -7 -2 -12 -12 -12 -22 0 -10 -6 -20 -13 -23 -6 -2 -8
-8 -4 -13 4 -5 12 -2 18 6 8 13 10 13 18 1 7 -11 18 -6 50 28 38 39 42 41 57
26 15 -14 14 -17 -7 -35 -12 -11 -19 -23 -16 -27 4 -3 16 4 27 17 l20 23 19
-21 c25 -29 31 -28 31 8 0 17 -4 30 -10 30 -5 0 -10 9 -10 20 0 11 3 20 6 20
11 0 34 -29 34 -44 0 -9 5 -16 10 -16 6 0 10 9 10 20 0 11 -4 20 -10 20 -5 0
-10 7 -10 15 0 25 -46 65 -75 65 -14 0 -25 5 -25 10 0 6 -18 10 -40 10 -33 0
-40 3 -40 20 0 11 -4 20 -10 20 -5 0 -10 -9 -10 -20 0 -11 -4 -20 -10 -20 -5
0 -10 9 -10 20 0 11 -4 20 -10 20 -5 0 -10 -9 -10 -20z m80 -146 c0 -7 -27
-34 -34 -34 -3 0 -6 9 -6 20 0 13 7 20 20 20 11 0 20 -3 20 -6z"/>
</g>
</svg>
