<?xml version="1.0" standalone="no"?>
<!DOCTYPE svg PUBLIC "-//W3C//DTD SVG 20010904//EN"
 "http://www.w3.org/TR/2001/REC-SVG-20010904/DTD/svg10.dtd">
<svg version="1.0" xmlns="http://www.w3.org/2000/svg"
 width="32.000000pt" height="48.000000pt" viewBox="0 0 32.000000 48.000000"
 preserveAspectRatio="xMidYMid meet">
<metadata>
Created by potrace 1.10, written by Peter Selinger 2001-2011
</metadata>
<g transform="translate(0.000000,48.000000) scale(0.100000,-0.100000)"
fill="#ffffff" stroke="none">
<path d="M220 410 c0 -5 5 -10 10 -10 6 0 10 -13 10 -30 0 -16 5 -30 10 -30 6
0 10 -13 10 -30 0 -23 -4 -30 -20 -30 -12 0 -20 7 -20 16 0 9 -14 29 -32 46
-25 23 -29 31 -18 38 8 5 11 13 6 17 -5 4 -11 2 -13 -4 -3 -7 -13 -13 -24 -13
-10 0 -19 -4 -19 -10 0 -5 -9 -10 -20 -10 -11 0 -20 -4 -20 -10 0 -5 14 -10
30 -10 17 0 30 -4 30 -10 0 -5 -9 -10 -20 -10 -11 0 -20 -4 -20 -10 0 -5 -9
-10 -20 -10 -11 0 -20 -4 -20 -10 0 -5 -9 -10 -20 -10 -11 0 -20 -4 -20 -10 0
-5 9 -10 20 -10 11 0 20 5 20 10 0 6 9 10 20 10 11 0 20 5 20 10 0 6 5 10 10
10 6 0 10 -13 10 -30 0 -16 -4 -30 -10 -30 -5 0 -10 -13 -10 -30 0 -16 -4 -30
-10 -30 -5 0 -10 -18 -10 -40 0 -22 5 -40 10 -40 6 0 10 16 10 36 0 38 18 64
44 64 9 0 16 -8 16 -20 0 -11 5 -20 10 -20 6 0 10 -7 10 -16 0 -20 29 -49 38
-39 4 4 1 10 -5 12 -7 3 -13 13 -13 24 0 10 -4 19 -10 19 -5 0 -10 14 -10 30
0 17 5 30 10 30 6 0 10 14 10 30 0 17 5 30 10 30 6 0 10 -4 10 -10 0 -5 9 -10
20 -10 13 0 20 -7 20 -20 0 -11 5 -20 10 -20 6 0 10 9 10 19 0 11 6 22 13 25
10 5 10 7 0 12 -7 3 -13 19 -13 35 0 16 -4 29 -10 29 -5 0 -10 12 -10 26 0 14
-6 32 -14 40 -17 16 -26 18 -26 4z"/>
</g>
</svg>
