<?xml version="1.0" standalone="no"?>
<!DOCTYPE svg PUBLIC "-//W3C//DTD SVG 20010904//EN"
 "http://www.w3.org/TR/2001/REC-SVG-20010904/DTD/svg10.dtd">
<svg version="1.0" xmlns="http://www.w3.org/2000/svg"
 width="32.000000pt" height="48.000000pt" viewBox="0 0 32.000000 48.000000"
 preserveAspectRatio="xMidYMid meet">
<metadata>
Created by potrace 1.10, written by Peter Selinger 2001-2011
</metadata>
<g transform="translate(0.000000,48.000000) scale(0.100000,-0.100000)"
fill="#ffffff" stroke="none">
<path d="M180 390 c0 -5 -9 -10 -20 -10 -11 0 -20 -4 -20 -10 0 -5 -9 -10 -20
-10 -11 0 -20 -4 -20 -10 0 -5 14 -10 30 -10 17 0 30 -4 30 -10 0 -5 -9 -10
-20 -10 -11 0 -20 -4 -20 -10 0 -5 -9 -10 -20 -10 -11 0 -20 -4 -20 -10 0 -5
-9 -10 -20 -10 -11 0 -20 -4 -20 -10 0 -5 9 -10 20 -10 11 0 20 5 20 10 0 6 9
10 20 10 11 0 20 5 20 10 0 6 5 10 10 10 6 0 10 -13 10 -30 0 -16 -4 -30 -10
-30 -5 0 -10 -13 -10 -30 0 -16 -4 -30 -10 -30 -5 0 -10 -9 -10 -20 0 -11 -4
-20 -10 -20 -5 0 -10 -9 -10 -20 0 -11 5 -20 10 -20 6 0 10 9 10 20 0 11 5 20
10 20 6 0 10 7 10 16 0 20 24 44 44 44 11 0 16 -9 16 -30 0 -16 5 -30 10 -30
6 0 10 -9 10 -20 0 -11 5 -20 10 -20 6 0 10 9 10 20 0 11 -4 20 -10 20 -5 0
-10 18 -10 40 0 22 5 40 10 40 6 0 10 14 10 30 0 17 2 30 5 30 13 0 55 -50 55
-65 0 -8 5 -15 10 -15 6 0 10 9 10 19 0 11 6 22 13 25 10 5 10 7 0 12 -7 3
-13 19 -13 35 0 16 -4 29 -10 29 -5 0 -10 12 -10 26 0 27 -26 61 -38 49 -4 -4
-1 -10 6 -12 6 -3 12 -18 12 -34 0 -16 5 -29 10 -29 6 0 10 -13 10 -30 0 -16
-3 -30 -6 -30 -10 0 -34 28 -34 40 0 7 -15 26 -32 43 -21 19 -28 32 -20 34 14
5 16 23 2 23 -5 0 -10 -4 -10 -10z"/>
</g>
</svg>
