<?xml version="1.0" standalone="no"?>
<!DOCTYPE svg PUBLIC "-//W3C//DTD SVG 20010904//EN"
 "http://www.w3.org/TR/2001/REC-SVG-20010904/DTD/svg10.dtd">
<svg version="1.0" xmlns="http://www.w3.org/2000/svg"
 width="32.000000pt" height="48.000000pt" viewBox="0 0 32.000000 48.000000"
 preserveAspectRatio="xMidYMid meet">
<metadata>
Created by potrace 1.10, written by Peter Selinger 2001-2011
</metadata>
<g transform="translate(0.000000,48.000000) scale(0.100000,-0.100000)"
fill="#ffffff" stroke="none">
<path d="M80 341 c0 -11 6 -21 13 -24 8 -3 5 -11 -10 -24 -13 -11 -23 -27 -23
-36 0 -8 -6 -17 -12 -20 -7 -2 -10 -8 -6 -12 9 -10 38 19 38 39 0 20 7 20 27
1 14 -14 13 -18 -8 -36 -20 -17 -21 -22 -9 -30 13 -8 13 -10 0 -18 -8 -6 -11
-13 -7 -17 4 -4 15 3 26 14 22 26 31 28 31 7 0 -19 48 -70 57 -61 4 3 -4 15
-16 26 -22 18 -22 20 -5 37 12 13 19 14 22 5 6 -19 31 -14 57 13 30 29 32 65
5 85 -22 16 -27 46 -7 53 6 2 9 8 5 12 -9 9 -38 -19 -38 -37 0 -8 9 -20 20
-28 33 -24 18 -90 -20 -90 -19 0 -40 27 -40 53 0 14 -6 27 -12 30 -7 2 -10 8
-6 12 9 10 38 -19 38 -39 0 -9 5 -16 10 -16 18 0 10 31 -15 55 -13 14 -31 25
-40 25 -8 0 -15 9 -15 20 0 16 -7 20 -30 20 -23 0 -30 -5 -30 -19z"/>
</g>
</svg>
