<?xml version="1.0" standalone="no"?>
<!DOCTYPE svg PUBLIC "-//W3C//DTD SVG 20010904//EN"
 "http://www.w3.org/TR/2001/REC-SVG-20010904/DTD/svg10.dtd">
<svg version="1.0" xmlns="http://www.w3.org/2000/svg"
 width="32.000000pt" height="48.000000pt" viewBox="0 0 32.000000 48.000000"
 preserveAspectRatio="xMidYMid meet">
<metadata>
Created by potrace 1.10, written by Peter Selinger 2001-2011
</metadata>
<g transform="translate(0.000000,48.000000) scale(0.100000,-0.100000)"
fill="#ffffff" stroke="none">
<path d="M80 321 c0 -11 6 -21 13 -24 8 -3 5 -11 -10 -24 -13 -11 -23 -27 -23
-36 0 -8 -6 -17 -12 -20 -7 -2 -10 -8 -6 -12 9 -10 38 19 38 39 0 20 7 20 27
1 14 -14 13 -18 -6 -34 -12 -10 -21 -26 -21 -35 0 -19 36 -22 43 -3 2 7 16 -1
36 -22 17 -19 35 -30 39 -26 4 4 1 10 -5 12 -15 5 -17 43 -3 43 6 0 10 -4 10
-10 0 -18 31 -10 55 15 30 29 32 65 5 85 -22 16 -27 46 -7 53 6 2 9 8 5 12 -9
9 -38 -19 -38 -37 0 -8 9 -20 20 -28 33 -24 18 -90 -20 -90 -19 0 -40 27 -40
53 0 14 -6 27 -12 30 -7 2 -10 8 -6 12 9 10 38 -19 38 -39 0 -9 5 -16 10 -16
18 0 10 31 -15 55 -13 14 -31 25 -40 25 -8 0 -15 9 -15 20 0 16 -7 20 -30 20
-23 0 -30 -5 -30 -19z"/>
</g>
</svg>
