<?xml version="1.0" standalone="no"?>
<!DOCTYPE svg PUBLIC "-//W3C//DTD SVG 20010904//EN"
 "http://www.w3.org/TR/2001/REC-SVG-20010904/DTD/svg10.dtd">
<svg version="1.0" xmlns="http://www.w3.org/2000/svg"
 width="32.000000pt" height="48.000000pt" viewBox="0 0 32.000000 48.000000"
 preserveAspectRatio="xMidYMid meet">
<metadata>
Created by potrace 1.10, written by Peter Selinger 2001-2011
</metadata>
<g transform="translate(0.000000,48.000000) scale(0.100000,-0.100000)"
fill="#ffffff" stroke="none">
<path d="M220 390 c-25 -27 -52 -49 -62 -49 -9 -1 -19 -7 -21 -13 -4 -10 -8
-10 -15 1 -9 12 -13 12 -26 -2 -9 -8 -16 -23 -16 -31 0 -9 -4 -16 -10 -16 -5
0 -10 -9 -10 -20 0 -11 -4 -20 -10 -20 -5 0 -10 -9 -10 -20 0 -11 5 -20 10
-20 6 0 10 9 10 20 0 11 5 20 10 20 6 0 10 9 10 20 0 24 6 25 26 6 16 -17 19
-46 4 -46 -5 0 -10 -9 -10 -19 0 -11 -5 -21 -12 -23 -8 -3 -2 -15 15 -32 16
-16 31 -25 34 -22 4 3 -4 15 -16 26 -21 17 -22 21 -8 35 26 25 47 19 47 -15 0
-16 5 -30 10 -30 6 0 10 -7 10 -16 0 -20 29 -49 38 -39 4 4 1 10 -5 12 -7 3
-13 13 -13 24 0 10 -4 19 -10 19 -5 0 -10 18 -10 40 0 22 -4 40 -10 40 -15 0
-12 29 5 47 14 13 19 11 45 -17 17 -18 33 -30 37 -26 3 3 -4 14 -15 25 -12 10
-22 25 -22 32 0 8 -9 21 -20 29 -27 20 -25 30 6 30 29 0 54 21 54 44 0 9 5 16
10 16 6 0 10 9 10 20 0 29 -10 24 -60 -30z"/>
<path d="M40 384 c0 -20 24 -44 44 -44 22 0 20 7 -9 35 -28 29 -35 31 -35 9z"/>
<path d="M120 360 c0 -11 5 -20 10 -20 6 0 10 9 10 20 0 11 -4 20 -10 20 -5 0
-10 -9 -10 -20z"/>
</g>
</svg>
