<?xml version="1.0" standalone="no"?>
<!DOCTYPE svg PUBLIC "-//W3C//DTD SVG 20010904//EN"
 "http://www.w3.org/TR/2001/REC-SVG-20010904/DTD/svg10.dtd">
<svg version="1.0" xmlns="http://www.w3.org/2000/svg"
 width="32.000000pt" height="48.000000pt" viewBox="0 0 32.000000 48.000000"
 preserveAspectRatio="xMidYMid meet">
<metadata>
Created by potrace 1.10, written by Peter Selinger 2001-2011
</metadata>
<g transform="translate(0.000000,48.000000) scale(0.100000,-0.100000)"
fill="#ffffff" stroke="none">
<path d="M260 390 c0 -5 -9 -10 -20 -10 -11 0 -20 -4 -20 -10 0 -5 -9 -10 -20
-10 -24 0 -25 -6 -3 -28 12 -12 18 -13 21 -4 2 6 10 12 18 12 14 0 64 43 64
55 0 3 -9 5 -20 5 -11 0 -20 -4 -20 -10z"/>
<path d="M20 375 c0 -3 11 -17 25 -31 22 -22 27 -23 40 -10 20 20 19 26 -5 26
-11 0 -20 5 -20 10 0 6 -9 10 -20 10 -11 0 -20 -2 -20 -5z"/>
<path d="M120 362 c0 -10 -9 -24 -20 -32 -11 -8 -20 -22 -20 -32 0 -10 -4 -18
-10 -18 -5 0 -10 -9 -10 -20 0 -11 -4 -20 -10 -20 -5 0 -10 -9 -10 -20 0 -11
5 -20 10 -20 6 0 10 9 10 20 0 11 5 20 10 20 6 0 10 9 10 20 0 24 6 25 26 6
16 -17 19 -46 4 -46 -5 0 -10 -9 -10 -19 0 -11 -5 -21 -12 -23 -8 -3 -2 -15
15 -32 16 -16 31 -25 34 -22 4 3 -4 15 -16 26 -21 17 -22 21 -8 35 26 25 47
19 47 -15 0 -16 5 -30 10 -30 6 0 10 -7 10 -16 0 -20 29 -49 38 -39 4 4 1 10
-5 12 -7 3 -13 13 -13 24 0 10 -4 19 -10 19 -5 0 -10 18 -10 40 0 22 -4 40
-10 40 -15 0 -12 29 5 47 14 13 19 11 45 -17 17 -18 33 -30 37 -26 3 3 -4 14
-15 25 -12 10 -22 24 -22 30 0 17 -46 61 -64 61 -8 0 -16 -6 -19 -12 -2 -8 -8
-9 -13 -4 -5 5 -4 11 4 13 14 5 16 43 2 43 -5 0 -10 -8 -10 -18z"/>
</g>
</svg>
