<?xml version="1.0" standalone="no"?>
<!DOCTYPE svg PUBLIC "-//W3C//DTD SVG 20010904//EN"
 "http://www.w3.org/TR/2001/REC-SVG-20010904/DTD/svg10.dtd">
<svg version="1.0" xmlns="http://www.w3.org/2000/svg"
 width="32.000000pt" height="48.000000pt" viewBox="0 0 32.000000 48.000000"
 preserveAspectRatio="xMidYMid meet">
<metadata>
Created by potrace 1.10, written by Peter Selinger 2001-2011
</metadata>
<g transform="translate(0.000000,48.000000) scale(0.100000,-0.100000)"
fill="#ffffff" stroke="none">
<path d="M231 304 c-7 -8 -10 -18 -6 -22 4 -4 10 -1 12 6 7 18 43 15 43 -4 0
-19 -24 -44 -42 -44 -8 0 -20 9 -28 20 -15 21 -70 28 -70 10 0 -5 -7 -10 -16
-10 -9 0 -29 -13 -44 -30 -15 -16 -35 -30 -44 -30 -9 0 -16 -4 -16 -10 0 -5
14 -10 30 -10 30 0 41 -14 18 -23 -7 -2 -10 -8 -6 -12 5 -5 17 2 28 15 l20 23
20 -23 c11 -13 23 -20 28 -15 4 4 1 10 -5 12 -19 7 -16 23 3 23 9 0 25 -10 36
-22 16 -19 21 -20 29 -8 8 13 10 13 18 0 6 -8 14 -11 18 -6 4 5 2 11 -4 13
-24 8 -14 54 17 83 33 31 37 45 16 66 -19 18 -37 17 -55 -2z m-11 -134 c0 -5
-4 -10 -10 -10 -5 0 -10 5 -10 10 0 6 5 10 10 10 6 0 10 -4 10 -10z"/>
</g>
</svg>
