<?xml version="1.0" standalone="no"?>
<!DOCTYPE svg PUBLIC "-//W3C//DTD SVG 20010904//EN"
 "http://www.w3.org/TR/2001/REC-SVG-20010904/DTD/svg10.dtd">
<svg version="1.0" xmlns="http://www.w3.org/2000/svg"
 width="32.000000pt" height="48.000000pt" viewBox="0 0 32.000000 48.000000"
 preserveAspectRatio="xMidYMid meet">
<metadata>
Created by potrace 1.10, written by Peter Selinger 2001-2011
</metadata>
<g transform="translate(0.000000,48.000000) scale(0.100000,-0.100000)"
fill="#ffffff" stroke="none">
<path d="M52 284 c-19 -20 -31 -38 -28 -41 3 -3 19 9 36 27 25 27 33 31 40 20
5 -8 12 -11 16 -8 5 6 -19 39 -28 37 -2 0 -18 -16 -36 -35z"/>
<path d="M211 304 c-7 -8 -10 -18 -6 -22 3 -3 10 0 15 8 7 11 15 7 40 -20 17
-18 33 -30 36 -27 5 5 -60 78 -68 77 -2 -1 -9 -8 -17 -16z"/>
<path d="M130 280 c-8 -11 -20 -20 -28 -20 -16 0 -86 -69 -78 -77 3 -3 19 8
35 26 31 33 61 41 61 15 0 -18 23 -44 40 -44 17 0 40 26 40 44 0 26 30 18 61
-15 16 -18 32 -29 35 -26 8 8 -62 77 -78 77 -8 0 -20 9 -28 20 -8 11 -21 20
-30 20 -9 0 -22 -9 -30 -20z"/>
<path d="M62 174 c-21 -22 -22 -26 -7 -40 9 -9 19 -13 23 -10 3 4 0 11 -8 16
-12 7 -11 12 8 28 12 11 22 22 22 26 0 12 -15 4 -38 -20z"/>
<path d="M220 194 c0 -4 10 -15 22 -26 19 -16 20 -21 8 -28 -8 -5 -11 -12 -8
-16 4 -3 14 1 23 10 15 14 14 18 -9 41 -25 25 -36 31 -36 19z"/>
<path d="M140 150 c0 -5 9 -10 20 -10 11 0 20 5 20 10 0 6 -9 10 -20 10 -11 0
-20 -4 -20 -10z"/>
</g>
</svg>
