<?xml version="1.0" standalone="no"?>
<!DOCTYPE svg PUBLIC "-//W3C//DTD SVG 20010904//EN"
 "http://www.w3.org/TR/2001/REC-SVG-20010904/DTD/svg10.dtd">
<svg version="1.0" xmlns="http://www.w3.org/2000/svg"
 width="32.000000pt" height="48.000000pt" viewBox="0 0 32.000000 48.000000"
 preserveAspectRatio="xMidYMid meet">
<metadata>
Created by potrace 1.10, written by Peter Selinger 2001-2011
</metadata>
<g transform="translate(0.000000,48.000000) scale(0.100000,-0.100000)"
fill="#ffffff" stroke="none">
<path d="M63 315 c-13 -13 -23 -31 -23 -39 0 -8 -6 -17 -12 -20 -10 -5 -10 -7
0 -12 6 -3 12 -14 12 -24 0 -10 -6 -20 -12 -23 -8 -2 -9 -8 -4 -13 5 -5 11 -4
13 4 3 6 9 12 14 12 14 0 11 -38 -3 -42 -9 -3 -8 -10 5 -22 10 -10 21 -15 25
-12 3 4 0 12 -8 17 -11 8 -12 12 -2 16 6 2 12 13 12 23 0 10 6 20 13 23 7 2 8
8 3 13 -5 5 -11 4 -13 -3 -7 -18 -23 -16 -23 3 0 20 24 44 44 44 9 0 16 -7 16
-16 0 -18 23 -44 40 -44 17 0 40 26 40 44 0 9 7 16 16 16 20 0 44 -24 44 -44
0 -19 -16 -21 -23 -3 -2 7 -8 8 -13 3 -5 -5 -4 -11 4 -13 6 -3 12 -13 12 -23
0 -10 6 -21 13 -23 9 -4 8 -8 -3 -16 -8 -5 -11 -13 -8 -17 4 -3 15 2 25 12 13
12 14 19 5 22 -14 4 -17 42 -3 42 5 0 11 -6 14 -12 2 -8 8 -9 13 -4 5 5 4 11
-3 13 -7 3 -13 13 -13 23 0 10 6 21 13 24 10 5 10 7 0 12 -7 3 -13 12 -13 20
0 8 -11 26 -25 40 -23 23 -27 24 -41 9 -9 -9 -13 -19 -10 -23 4 -3 11 0 16 7
7 12 11 12 24 -2 18 -17 21 -47 6 -47 -5 0 -10 5 -10 10 0 6 -8 10 -18 10 -10
0 -24 9 -32 20 -8 11 -21 20 -30 20 -9 0 -22 -9 -30 -20 -8 -11 -22 -20 -32
-20 -10 0 -18 -4 -18 -10 0 -5 -4 -10 -10 -10 -15 0 -12 30 6 47 13 14 17 14
24 2 5 -7 12 -10 16 -7 5 6 -19 39 -28 37 -2 0 -13 -11 -25 -24z m-3 -65 c0
-5 -4 -10 -10 -10 -5 0 -10 5 -10 10 0 6 5 10 10 10 6 0 10 -4 10 -10z m220 0
c0 -5 -4 -10 -10 -10 -5 0 -10 5 -10 10 0 6 5 10 10 10 6 0 10 -4 10 -10z"/>
<path d="M120 170 c0 -5 5 -10 10 -10 6 0 10 5 10 10 0 6 -4 10 -10 10 -5 0
-10 -4 -10 -10z"/>
<path d="M180 170 c0 -5 5 -10 10 -10 6 0 10 5 10 10 0 6 -4 10 -10 10 -5 0
-10 -4 -10 -10z"/>
</g>
</svg>
