<?xml version="1.0" standalone="no"?>
<!DOCTYPE svg PUBLIC "-//W3C//DTD SVG 20010904//EN"
 "http://www.w3.org/TR/2001/REC-SVG-20010904/DTD/svg10.dtd">
<svg version="1.0" xmlns="http://www.w3.org/2000/svg"
 width="32.000000pt" height="48.000000pt" viewBox="0 0 32.000000 48.000000"
 preserveAspectRatio="xMidYMid meet">
<metadata>
Created by potrace 1.10, written by Peter Selinger 2001-2011
</metadata>
<g transform="translate(0.000000,48.000000) scale(0.100000,-0.100000)"
fill="#ffffff" stroke="none">
<path d="M63 295 c-28 -30 -30 -55 -3 -55 13 0 20 -7 20 -20 0 -22 15 -27 24
-7 5 10 7 10 12 0 3 -8 25 -13 55 -13 27 0 49 -4 49 -10 0 -5 -18 -10 -40 -10
-22 0 -40 -3 -40 -6 0 -11 29 -34 44 -34 9 0 16 -4 16 -10 0 -5 14 -10 30 -10
17 0 30 5 30 10 0 6 -9 10 -20 10 -11 0 -20 5 -20 10 0 6 14 10 30 10 30 0 40
14 18 24 -10 5 -10 7 0 12 19 9 15 44 -6 44 -10 0 -24 9 -32 20 -8 11 -22 20
-32 20 -10 0 -18 5 -18 10 0 6 -13 10 -30 10 -16 0 -30 5 -30 10 0 18 -35 9
-57 -15z m37 -25 c0 -5 -4 -10 -10 -10 -5 0 -10 5 -10 10 0 6 5 10 10 10 6 0
10 -4 10 -10z"/>
<path d="M90 180 c-8 -11 -22 -20 -32 -20 -10 0 -18 -4 -18 -10 0 -5 9 -10 20
-10 11 0 20 5 20 10 0 6 9 10 20 10 13 0 20 7 20 20 0 11 -4 20 -8 20 -4 0
-14 -9 -22 -20z"/>
</g>
</svg>
