<?xml version="1.0" standalone="no"?>
<!DOCTYPE svg PUBLIC "-//W3C//DTD SVG 20010904//EN"
 "http://www.w3.org/TR/2001/REC-SVG-20010904/DTD/svg10.dtd">
<svg version="1.0" xmlns="http://www.w3.org/2000/svg"
 width="32.000000pt" height="48.000000pt" viewBox="0 0 32.000000 48.000000"
 preserveAspectRatio="xMidYMid meet">
<metadata>
Created by potrace 1.10, written by Peter Selinger 2001-2011
</metadata>
<g transform="translate(0.000000,48.000000) scale(0.100000,-0.100000)"
fill="#ffffff" stroke="none">
<path d="M63 375 c-13 -13 -23 -31 -23 -40 0 -8 -4 -15 -10 -15 -5 0 -10 -18
-10 -40 0 -22 5 -40 10 -40 6 0 10 -9 10 -20 0 -11 5 -20 10 -20 6 0 10 14 10
30 0 30 14 41 23 18 4 -10 8 -10 15 1 9 12 13 12 26 -2 9 -8 16 -23 16 -31 0
-9 5 -16 10 -16 6 0 10 7 10 16 0 8 7 23 16 31 13 14 17 14 26 2 7 -11 11 -11
15 -1 9 23 23 12 23 -18 0 -16 5 -30 10 -30 6 0 10 9 10 20 0 11 5 20 10 20 6
0 10 18 10 40 0 22 -4 40 -10 40 -5 0 -10 7 -10 15 0 20 -49 70 -58 60 -4 -4
-1 -10 6 -12 17 -6 15 -31 -3 -50 -14 -14 -18 -13 -35 7 l-20 23 -20 -23 c-17
-20 -21 -21 -35 -7 -17 17 -20 47 -5 47 6 0 10 5 10 10 0 16 -13 11 -37 -15z
m97 -45 c0 -5 -4 -10 -10 -10 -5 0 -10 5 -10 10 0 6 5 10 10 10 6 0 10 -4 10
-10z"/>
</g>
</svg>
