<?xml version="1.0" standalone="no"?>
<!DOCTYPE svg PUBLIC "-//W3C//DTD SVG 20010904//EN"
 "http://www.w3.org/TR/2001/REC-SVG-20010904/DTD/svg10.dtd">
<svg version="1.0" xmlns="http://www.w3.org/2000/svg"
 width="32.000000pt" height="48.000000pt" viewBox="0 0 32.000000 48.000000"
 preserveAspectRatio="xMidYMid meet">
<metadata>
Created by potrace 1.10, written by Peter Selinger 2001-2011
</metadata>
<g transform="translate(0.000000,48.000000) scale(0.100000,-0.100000)"
fill="#ffffff" stroke="none">
<path d="M127 317 c-14 -18 -19 -19 -26 -8 -8 12 -12 11 -27 -3 -14 -15 -15
-19 -3 -26 11 -7 9 -13 -10 -29 l-24 -21 24 -21 c19 -16 21 -22 10 -29 -12 -7
-11 -11 3 -26 15 -14 19 -15 26 -3 7 11 13 9 29 -10 l21 -24 21 24 c16 19 22
21 29 10 7 -12 11 -11 26 3 14 15 15 19 3 26 -11 7 -9 13 10 29 l24 21 -24 21
c-19 16 -21 22 -10 29 12 7 11 11 -3 26 -15 14 -19 15 -26 3 -7 -11 -13 -9
-28 9 -24 27 -23 27 -45 -1z m-23 -29 c5 -10 7 -10 12 0 3 6 18 12 34 12 16 0
31 -6 33 -12 4 -10 8 -9 16 2 5 8 13 11 18 7 4 -5 1 -13 -7 -18 -11 -8 -12
-12 -2 -16 6 -2 12 -17 12 -33 0 -16 -6 -31 -12 -33 -10 -4 -9 -8 2 -16 8 -5
11 -13 7 -18 -5 -4 -13 -1 -18 7 -8 11 -12 12 -16 3 -6 -17 -60 -17 -66 0 -4
9 -8 8 -16 -3 -5 -8 -13 -11 -18 -7 -4 5 -1 13 7 18 11 8 12 12 3 16 -17 6
-17 60 0 67 10 5 10 7 0 12 -7 3 -13 10 -13 15 0 13 17 11 24 -3z"/>
<path d="M113 265 c-29 -32 -6 -85 37 -85 44 0 67 55 36 86 -18 18 -57 18 -73
-1z"/>
</g>
</svg>
