<?xml version="1.0" standalone="no"?>
<!DOCTYPE svg PUBLIC "-//W3C//DTD SVG 20010904//EN"
 "http://www.w3.org/TR/2001/REC-SVG-20010904/DTD/svg10.dtd">
<svg version="1.0" xmlns="http://www.w3.org/2000/svg"
 width="32.000000pt" height="48.000000pt" viewBox="0 0 32.000000 48.000000"
 preserveAspectRatio="xMidYMid meet">
<metadata>
Created by potrace 1.10, written by Peter Selinger 2001-2011
</metadata>
<g transform="translate(0.000000,48.000000) scale(0.100000,-0.100000)"
fill="#ffffff" stroke="none">
<path d="M0 461 c0 -11 6 -22 13 -24 9 -4 8 -8 -3 -16 -13 -10 -13 -12 0 -21
13 -9 13 -11 1 -19 -12 -8 -8 -15 19 -41 18 -17 30 -33 26 -37 -3 -3 -14 4
-25 15 -10 12 -21 22 -25 22 -12 0 -6 -38 7 -43 9 -4 9 -8 -2 -15 -11 -8 -9
-15 12 -36 14 -14 33 -26 41 -26 8 0 17 -6 20 -12 5 -10 7 -10 12 0 9 19 24
14 24 -7 0 -11 6 -22 13 -25 10 -5 10 -7 -1 -12 -6 -3 -12 -14 -12 -25 0 -21
-16 -26 -23 -6 -2 7 -8 8 -13 3 -5 -5 -4 -11 4 -13 19 -7 14 -23 -8 -23 -11 0
-20 -4 -20 -10 0 -5 9 -10 20 -10 11 0 20 5 20 10 0 6 9 10 20 10 22 0 29 -35
8 -43 -8 -2 -9 -8 -4 -13 5 -5 11 -4 13 4 6 16 40 16 46 0 2 -8 8 -9 13 -4 5
5 4 11 -3 13 -22 8 -15 43 7 43 11 0 20 -4 20 -10 0 -5 9 -10 20 -10 11 0 20
5 20 10 0 6 -9 10 -20 10 -22 0 -27 16 -7 23 7 2 8 8 3 13 -5 5 -11 4 -13 -3
-7 -20 -23 -15 -23 6 0 11 -6 22 -12 25 -10 5 -10 7 0 12 6 3 12 14 12 25 0
21 15 26 24 7 5 -10 7 -10 12 0 3 6 12 12 20 12 8 0 27 12 41 26 21 21 23 28
12 36 -11 7 -11 11 -1 15 12 5 18 43 6 43 -4 0 -15 -10 -25 -22 -11 -11 -22
-18 -25 -15 -4 4 8 20 26 37 27 26 31 33 19 41 -12 8 -12 10 1 19 13 9 13 11
0 21 -11 8 -12 12 -2 16 14 6 16 43 2 43 -5 0 -10 -9 -10 -20 0 -13 -7 -20
-20 -20 -11 0 -20 -4 -20 -10 0 -5 -9 -10 -20 -10 -11 0 -20 -4 -20 -10 0 -5
5 -10 10 -10 6 0 10 -13 10 -30 0 -16 -4 -30 -10 -30 -5 0 -10 -9 -10 -20 0
-24 -6 -25 -26 -6 -17 18 -18 43 -1 49 9 4 8 8 -3 16 -13 10 -13 12 0 20 8 6
11 14 6 18 -5 4 -11 2 -13 -4 -3 -7 -13 -13 -23 -13 -10 0 -20 6 -23 13 -2 6
-8 8 -13 4 -5 -4 -2 -12 6 -18 13 -8 13 -10 0 -20 -11 -8 -12 -12 -2 -16 16
-6 15 -31 -2 -49 -20 -19 -26 -18 -26 6 0 11 -4 20 -10 20 -5 0 -10 14 -10 30
0 17 5 30 10 30 6 0 10 5 10 10 0 6 -9 10 -20 10 -11 0 -20 5 -20 10 0 6 -9
10 -20 10 -13 0 -20 7 -20 20 0 11 -4 20 -10 20 -5 0 -10 -9 -10 -19z m40 -51
c0 -5 -4 -10 -10 -10 -5 0 -10 5 -10 10 0 6 5 10 10 10 6 0 10 -4 10 -10z
m260 0 c0 -5 -4 -10 -10 -10 -5 0 -10 5 -10 10 0 6 5 10 10 10 6 0 10 -4 10
-10z m-260 -40 c0 -5 -4 -10 -10 -10 -5 0 -10 5 -10 10 0 6 5 10 10 10 6 0 10
-4 10 -10z m260 0 c0 -5 -4 -10 -10 -10 -5 0 -10 5 -10 10 0 6 5 10 10 10 6 0
10 -4 10 -10z m-260 -100 c0 -5 9 -10 20 -10 11 0 20 -4 20 -10 0 -15 -29 -12
-46 4 -16 17 -18 26 -4 26 6 0 10 -4 10 -10z m260 4 c0 -3 -6 -12 -14 -20 -17
-16 -46 -19 -46 -4 0 6 9 10 20 10 11 0 20 5 20 10 0 6 5 10 10 10 6 0 10 -3
10 -6z"/>
</g>
</svg>
