<?xml version="1.0" standalone="no"?>
<!DOCTYPE svg PUBLIC "-//W3C//DTD SVG 20010904//EN"
 "http://www.w3.org/TR/2001/REC-SVG-20010904/DTD/svg10.dtd">
<svg version="1.0" xmlns="http://www.w3.org/2000/svg"
 width="32.000000pt" height="48.000000pt" viewBox="0 0 32.000000 48.000000"
 preserveAspectRatio="xMidYMid meet">
<metadata>
Created by potrace 1.10, written by Peter Selinger 2001-2011
</metadata>
<g transform="translate(0.000000,48.000000) scale(0.100000,-0.100000)"
fill="#ffffff" stroke="none">
<path d="M0 441 c0 -11 6 -22 13 -24 9 -4 8 -8 -3 -16 -13 -10 -13 -12 0 -21
13 -9 13 -11 1 -19 -12 -8 -8 -15 19 -41 18 -17 30 -33 26 -37 -3 -3 -14 4
-25 15 -10 12 -21 22 -25 22 -12 0 -6 -38 7 -43 9 -4 9 -8 -2 -15 -11 -8 -9
-15 12 -36 14 -14 33 -26 42 -26 8 0 15 -4 15 -10 0 -5 5 -10 10 -10 6 0 10 9
10 20 0 11 5 20 10 20 6 0 10 -9 10 -19 0 -11 6 -22 13 -25 10 -5 10 -7 0 -12
-7 -3 -13 -14 -13 -25 0 -21 -16 -26 -23 -6 -2 6 -8 8 -13 4 -5 -4 -2 -12 6
-17 12 -7 10 -13 -9 -30 -14 -11 -21 -23 -18 -27 4 -3 15 4 26 15 10 12 26 22
35 22 19 0 22 -36 4 -43 -8 -2 -9 -8 -4 -13 5 -5 11 -4 13 4 3 6 13 12 23 12
10 0 20 -6 23 -12 2 -8 8 -9 13 -4 5 5 4 11 -3 13 -19 7 -16 43 3 43 9 0 25
-10 35 -22 11 -11 22 -18 26 -15 3 4 -4 16 -18 27 -19 17 -21 23 -9 30 8 5 11
13 6 17 -5 4 -11 2 -13 -5 -7 -19 -23 -14 -23 7 0 11 -6 22 -12 25 -10 5 -10
7 0 12 6 3 12 14 12 25 0 10 5 19 10 19 6 0 10 -9 10 -20 0 -11 5 -20 10 -20
6 0 10 5 10 10 0 6 7 10 15 10 9 0 28 12 42 26 21 21 23 28 12 36 -11 7 -11
11 -1 15 12 5 18 43 6 43 -4 0 -15 -10 -25 -22 -11 -11 -22 -18 -25 -15 -4 4
8 20 26 37 27 26 31 33 19 41 -12 8 -12 10 1 19 13 9 13 11 0 21 -11 8 -12 12
-2 16 14 6 16 43 2 43 -5 0 -10 -9 -10 -20 0 -13 -7 -20 -20 -20 -11 0 -20 -4
-20 -10 0 -5 -9 -10 -20 -10 -11 0 -20 -4 -20 -10 0 -5 5 -10 10 -10 16 0 12
-50 -5 -66 -13 -14 -17 -14 -30 0 -18 18 -19 43 -2 49 9 4 8 8 -3 16 -13 10
-13 12 0 20 8 6 11 14 6 18 -5 4 -11 2 -13 -4 -3 -7 -13 -13 -23 -13 -10 0
-20 6 -23 13 -2 6 -8 8 -13 4 -5 -4 -2 -12 6 -18 13 -8 13 -10 0 -20 -11 -8
-12 -12 -2 -16 16 -6 15 -31 -3 -49 -13 -14 -17 -14 -30 0 -17 16 -21 66 -5
66 6 0 10 5 10 10 0 6 -9 10 -20 10 -11 0 -20 5 -20 10 0 6 -9 10 -20 10 -13
0 -20 7 -20 20 0 11 -4 20 -10 20 -5 0 -10 -9 -10 -19z m40 -51 c0 -5 -4 -10
-10 -10 -5 0 -10 5 -10 10 0 6 5 10 10 10 6 0 10 -4 10 -10z m260 0 c0 -5 -4
-10 -10 -10 -5 0 -10 5 -10 10 0 6 5 10 10 10 6 0 10 -4 10 -10z m-260 -40 c0
-5 -4 -10 -10 -10 -5 0 -10 5 -10 10 0 6 5 10 10 10 6 0 10 -4 10 -10z m260 0
c0 -5 -4 -10 -10 -10 -5 0 -10 5 -10 10 0 6 5 10 10 10 6 0 10 -4 10 -10z
m-260 -100 c0 -5 9 -10 20 -10 11 0 20 -4 20 -10 0 -15 -29 -12 -46 4 -16 17
-18 26 -4 26 6 0 10 -4 10 -10z m260 4 c0 -3 -6 -12 -14 -20 -17 -16 -46 -19
-46 -4 0 6 9 10 20 10 11 0 20 5 20 10 0 6 5 10 10 10 6 0 10 -3 10 -6z"/>
</g>
</svg>
