<?xml version="1.0" standalone="no"?>
<!DOCTYPE svg PUBLIC "-//W3C//DTD SVG 20010904//EN"
 "http://www.w3.org/TR/2001/REC-SVG-20010904/DTD/svg10.dtd">
<svg version="1.0" xmlns="http://www.w3.org/2000/svg"
 width="32.000000pt" height="48.000000pt" viewBox="0 0 32.000000 48.000000"
 preserveAspectRatio="xMidYMid meet">
<metadata>
Created by potrace 1.10, written by Peter Selinger 2001-2011
</metadata>
<g transform="translate(0.000000,48.000000) scale(0.100000,-0.100000)"
fill="#ffffff" stroke="none">
<path d="M140 422 c0 -10 -9 -24 -20 -32 -21 -15 -28 -50 -10 -50 6 0 10 -4
10 -10 0 -5 -13 -10 -30 -10 -16 0 -30 5 -30 10 0 6 -9 10 -20 10 -24 0 -26
-25 -3 -48 12 -12 18 -13 21 -4 5 17 199 17 204 0 3 -9 9 -8 21 4 23 23 21 48
-3 48 -11 0 -20 -4 -20 -10 0 -5 -13 -10 -30 -10 -16 0 -30 5 -30 10 0 6 5 10
10 10 21 0 9 32 -25 65 -39 40 -45 42 -45 17z"/>
<path d="M60 182 c0 -86 -2 -99 -20 -112 -28 -20 -25 -30 10 -30 l30 0 0 70
c0 40 4 70 10 70 6 0 10 -30 10 -70 l0 -70 60 0 60 0 0 70 c0 40 4 70 10 70 6
0 10 -30 10 -70 l0 -70 30 0 c35 0 38 10 10 30 -18 13 -20 26 -20 112 l0 98
-100 0 -100 0 0 -98z m80 68 c0 -14 38 -12 42 2 3 9 10 7 24 -6 13 -14 15 -21
6 -24 -8 -2 -12 -29 -12 -83 l0 -79 -40 0 -40 0 0 79 c0 53 -4 81 -12 83 -9 3
-8 9 2 21 17 19 30 22 30 7z"/>
<path d="M120 230 c0 -5 5 -10 10 -10 6 0 10 5 10 10 0 6 -4 10 -10 10 -5 0
-10 -4 -10 -10z"/>
<path d="M180 230 c0 -5 5 -10 10 -10 6 0 10 5 10 10 0 6 -4 10 -10 10 -5 0
-10 -4 -10 -10z"/>
</g>
</svg>
