<?xml version="1.0" standalone="no"?>
<!DOCTYPE svg PUBLIC "-//W3C//DTD SVG 20010904//EN"
 "http://www.w3.org/TR/2001/REC-SVG-20010904/DTD/svg10.dtd">
<svg version="1.0" xmlns="http://www.w3.org/2000/svg"
 width="32.000000pt" height="48.000000pt" viewBox="0 0 32.000000 48.000000"
 preserveAspectRatio="xMidYMid meet">
<metadata>
Created by potrace 1.10, written by Peter Selinger 2001-2011
</metadata>
<g transform="translate(0.000000,48.000000) scale(0.100000,-0.100000)"
fill="#ffffff" stroke="none">
<path d="M83 375 c-28 -30 -30 -55 -3 -55 12 0 20 7 20 16 0 22 25 44 50 44
27 0 50 -23 50 -50 0 -12 -18 -39 -40 -60 -45 -43 -55 -90 -20 -90 15 0 20 7
20 26 0 17 14 39 40 64 46 44 50 71 15 105 -33 34 -100 34 -132 0z"/>
<path d="M120 120 c0 -13 7 -20 20 -20 13 0 20 7 20 20 0 13 -7 20 -20 20 -13
0 -20 -7 -20 -20z"/>
</g>
</svg>
