<?xml version="1.0" standalone="no"?>
<!DOCTYPE svg PUBLIC "-//W3C//DTD SVG 20010904//EN"
 "http://www.w3.org/TR/2001/REC-SVG-20010904/DTD/svg10.dtd">
<svg version="1.0" xmlns="http://www.w3.org/2000/svg"
 width="32.000000pt" height="48.000000pt" viewBox="0 0 32.000000 48.000000"
 preserveAspectRatio="xMidYMid meet">
<metadata>
Created by potrace 1.10, written by Peter Selinger 2001-2011
</metadata>
<g transform="translate(0.000000,48.000000) scale(0.100000,-0.100000)"
fill="#ffffff" stroke="none">
<path d="M180 470 c0 -5 -13 -10 -30 -10 -16 0 -30 -4 -30 -10 0 -15 -97 -13
-103 3 -2 6 -8 9 -12 5 -4 -4 0 -14 8 -23 17 -17 107 -21 107 -5 0 6 14 10 30
10 17 0 30 5 30 10 0 6 23 10 50 10 28 0 50 -4 50 -10 0 -5 9 -10 20 -10 11 0
20 5 20 10 0 6 -9 10 -20 10 -11 0 -20 5 -20 10 0 6 -22 10 -50 10 -27 0 -50
-4 -50 -10z"/>
<path d="M180 390 c0 -5 -13 -10 -30 -10 -16 0 -30 -4 -30 -10 0 -15 -97 -13
-103 3 -2 6 -8 9 -12 5 -4 -4 0 -14 8 -23 17 -17 107 -21 107 -5 0 6 14 10 30
10 17 0 30 5 30 10 0 6 23 10 50 10 28 0 50 -4 50 -10 0 -5 9 -10 20 -10 11 0
20 5 20 10 0 6 -9 10 -20 10 -11 0 -20 5 -20 10 0 6 -22 10 -50 10 -27 0 -50
-4 -50 -10z"/>
<path d="M180 310 c0 -5 -13 -10 -30 -10 -16 0 -30 -4 -30 -10 0 -15 -97 -13
-103 3 -2 6 -8 9 -12 5 -4 -4 0 -14 8 -23 17 -17 107 -21 107 -5 0 6 14 10 30
10 17 0 30 5 30 10 0 6 23 10 50 10 28 0 50 -4 50 -10 0 -5 9 -10 20 -10 11 0
20 5 20 10 0 6 -9 10 -20 10 -11 0 -20 5 -20 10 0 6 -22 10 -50 10 -27 0 -50
-4 -50 -10z"/>
<path d="M180 230 c0 -5 -13 -10 -30 -10 -16 0 -30 -4 -30 -10 0 -15 -97 -13
-103 3 -2 6 -8 9 -12 5 -4 -4 0 -14 8 -23 17 -17 107 -21 107 -5 0 6 14 10 30
10 17 0 30 5 30 10 0 6 23 10 50 10 28 0 50 -4 50 -10 0 -5 9 -10 20 -10 11 0
20 5 20 10 0 6 -9 10 -20 10 -11 0 -20 5 -20 10 0 6 -22 10 -50 10 -27 0 -50
-4 -50 -10z"/>
<path d="M180 150 c0 -5 -13 -10 -30 -10 -16 0 -30 -4 -30 -10 0 -15 -97 -13
-103 3 -2 6 -8 9 -12 5 -4 -4 0 -14 8 -23 17 -17 107 -21 107 -5 0 6 14 10 30
10 17 0 30 5 30 10 0 6 23 10 50 10 28 0 50 -4 50 -10 0 -5 9 -10 20 -10 11 0
20 5 20 10 0 6 -9 10 -20 10 -11 0 -20 5 -20 10 0 6 -22 10 -50 10 -27 0 -50
-4 -50 -10z"/>
<path d="M180 70 c0 -5 -13 -10 -30 -10 -16 0 -30 -4 -30 -10 0 -15 -97 -13
-103 2 -2 7 -8 10 -12 6 -4 -4 0 -14 8 -23 17 -17 107 -21 107 -5 0 6 14 10
30 10 17 0 30 5 30 10 0 6 23 10 50 10 28 0 50 -4 50 -10 0 -5 9 -10 20 -10
11 0 20 5 20 10 0 6 -9 10 -20 10 -11 0 -20 5 -20 10 0 6 -22 10 -50 10 -27 0
-50 -4 -50 -10z"/>
</g>
</svg>
