<?xml version="1.0" standalone="no"?>
<!DOCTYPE svg PUBLIC "-//W3C//DTD SVG 20010904//EN"
 "http://www.w3.org/TR/2001/REC-SVG-20010904/DTD/svg10.dtd">
<svg version="1.0" xmlns="http://www.w3.org/2000/svg"
 width="32.000000pt" height="48.000000pt" viewBox="0 0 32.000000 48.000000"
 preserveAspectRatio="xMidYMid meet">
<metadata>
Created by potrace 1.10, written by Peter Selinger 2001-2011
</metadata>
<g transform="translate(0.000000,48.000000) scale(0.100000,-0.100000)"
fill="#ffffff" stroke="none">
<path d="M40 220 l0 -120 120 0 120 0 0 120 0 120 -120 0 -120 0 0 -120z m220
0 l0 -100 -100 0 -100 0 0 100 0 100 100 0 100 0 0 -100z"/>
<path d="M80 220 l0 -80 80 0 80 0 0 80 0 80 -80 0 -80 0 0 -80z m50 40 c19
-26 38 -25 61 2 11 11 22 18 26 15 3 -4 -4 -15 -15 -26 -28 -23 -28 -39 0 -62
11 -11 18 -22 15 -26 -4 -3 -15 4 -26 15 -23 28 -39 28 -62 0 -11 -11 -22 -18
-26 -15 -3 4 4 15 15 26 27 23 28 42 2 61 -20 15 -27 30 -12 30 4 0 14 -9 22
-20z"/>
</g>
</svg>
