<?xml version="1.0" standalone="no"?>
<!DOCTYPE svg PUBLIC "-//W3C//DTD SVG 20010904//EN"
 "http://www.w3.org/TR/2001/REC-SVG-20010904/DTD/svg10.dtd">
<svg version="1.0" xmlns="http://www.w3.org/2000/svg"
 width="32.000000pt" height="48.000000pt" viewBox="0 0 32.000000 48.000000"
 preserveAspectRatio="xMidYMid meet">
<metadata>
Created by potrace 1.10, written by Peter Selinger 2001-2011
</metadata>
<g transform="translate(0.000000,48.000000) scale(0.100000,-0.100000)"
fill="#ffffff" stroke="none">
<path d="M140 380 c0 -11 -4 -20 -10 -20 -5 0 -10 -12 -10 -26 0 -16 -12 -37
-30 -54 -16 -15 -30 -35 -30 -44 0 -9 -4 -16 -10 -16 -5 0 -10 -18 -10 -40 0
-22 5 -40 10 -40 6 0 10 -7 10 -16 0 -20 24 -44 44 -44 9 0 16 -4 16 -10 0 -5
18 -10 40 -10 22 0 40 5 40 10 0 6 7 10 16 10 20 0 44 24 44 44 0 9 5 16 10
16 6 0 10 14 10 30 0 17 -4 30 -10 30 -5 0 -10 18 -10 40 0 22 -4 40 -10 40
-5 0 -10 18 -10 40 0 22 -4 40 -10 40 -5 0 -10 -9 -10 -20 0 -11 -4 -20 -10
-20 -5 0 -10 -9 -10 -20 0 -24 -6 -25 -26 -6 -8 8 -14 34 -14 60 0 25 -4 46
-10 46 -5 0 -10 -9 -10 -20z m0 -156 c0 -20 24 -44 44 -44 9 0 16 8 16 20 0
11 5 20 10 20 6 0 10 -13 10 -30 0 -16 5 -30 10 -30 6 0 10 -13 10 -30 0 -23
-4 -30 -20 -30 -11 0 -20 -4 -20 -10 0 -5 -16 -10 -35 -10 -67 0 -112 76 -65
110 11 8 20 22 20 32 0 10 5 18 10 18 6 0 10 -7 10 -16z"/>
</g>
</svg>
