<?xml version="1.0" standalone="no"?>
<!DOCTYPE svg PUBLIC "-//W3C//DTD SVG 20010904//EN"
 "http://www.w3.org/TR/2001/REC-SVG-20010904/DTD/svg10.dtd">
<svg version="1.0" xmlns="http://www.w3.org/2000/svg"
 width="32.000000pt" height="48.000000pt" viewBox="0 0 32.000000 48.000000"
 preserveAspectRatio="xMidYMid meet">
<metadata>
Created by potrace 1.10, written by Peter Selinger 2001-2011
</metadata>
<g transform="translate(0.000000,48.000000) scale(0.100000,-0.100000)"
fill="#ffffff" stroke="none">
<path d="M120 410 c0 -5 -9 -10 -20 -10 -13 0 -20 -7 -20 -20 0 -11 -4 -20
-10 -20 -5 0 -10 -18 -10 -40 0 -22 5 -40 10 -40 6 0 10 -9 10 -20 0 -12 7
-20 16 -20 20 0 44 -24 44 -44 0 -9 -8 -16 -20 -16 -11 0 -20 -4 -20 -10 0 -5
9 -10 20 -10 16 0 20 -7 20 -30 0 -16 -4 -30 -10 -30 -5 0 -10 -4 -10 -10 0
-5 18 -10 40 -10 22 0 40 5 40 10 0 6 -4 10 -10 10 -5 0 -10 14 -10 30 0 23 4
30 20 30 11 0 20 5 20 10 0 6 -9 10 -20 10 -23 0 -27 25 -6 46 8 8 22 14 30
14 9 0 16 8 16 20 0 11 5 20 10 20 6 0 10 18 10 40 0 22 -4 40 -10 40 -5 0
-10 9 -10 20 0 13 -7 20 -20 20 -11 0 -20 5 -20 10 0 6 -18 10 -40 10 -22 0
-40 -4 -40 -10z m95 -35 c33 -32 33 -78 0 -110 -72 -73 -183 35 -112 110 30
33 80 33 112 0z"/>
<path d="M140 320 c0 -13 7 -20 20 -20 13 0 20 7 20 20 0 13 -7 20 -20 20 -13
0 -20 -7 -20 -20z"/>
</g>
</svg>
