<?xml version="1.0" standalone="no"?>
<!DOCTYPE svg PUBLIC "-//W3C//DTD SVG 20010904//EN"
 "http://www.w3.org/TR/2001/REC-SVG-20010904/DTD/svg10.dtd">
<svg version="1.0" xmlns="http://www.w3.org/2000/svg"
 width="32.000000pt" height="48.000000pt" viewBox="0 0 32.000000 48.000000"
 preserveAspectRatio="xMidYMid meet">
<metadata>
Created by potrace 1.10, written by Peter Selinger 2001-2011
</metadata>
<g transform="translate(0.000000,48.000000) scale(0.100000,-0.100000)"
fill="#ffffff" stroke="none">
<path d="M83 295 c-13 -13 -23 -31 -23 -40 0 -8 -4 -15 -10 -15 -15 0 -12 -49
4 -66 17 -17 166 -20 166 -4 0 6 -4 10 -10 10 -5 0 -10 14 -10 30 0 17 5 30
10 30 6 0 10 7 10 16 0 19 28 49 38 40 3 -4 0 -11 -8 -16 -8 -5 -11 -12 -8
-16 4 -3 14 1 23 10 15 14 15 18 1 31 -10 11 -35 15 -88 14 -64 0 -76 -3 -95
-24z m117 -5 c0 -5 -22 -10 -50 -10 -27 0 -50 5 -50 10 0 6 23 10 50 10 28 0
50 -4 50 -10z m-20 -40 c0 -5 -22 -10 -50 -10 -27 0 -50 5 -50 10 0 6 23 10
50 10 28 0 50 -4 50 -10z m-20 -40 c0 -5 -22 -10 -50 -10 -27 0 -50 5 -50 10
0 6 23 10 50 10 28 0 50 -4 50 -10z"/>
</g>
</svg>
