<?xml version="1.0" standalone="no"?>
<!DOCTYPE svg PUBLIC "-//W3C//DTD SVG 20010904//EN"
 "http://www.w3.org/TR/2001/REC-SVG-20010904/DTD/svg10.dtd">
<svg version="1.0" xmlns="http://www.w3.org/2000/svg"
 width="32.000000pt" height="48.000000pt" viewBox="0 0 32.000000 48.000000"
 preserveAspectRatio="xMidYMid meet">
<metadata>
Created by potrace 1.10, written by Peter Selinger 2001-2011
</metadata>
<g transform="translate(0.000000,48.000000) scale(0.100000,-0.100000)"
fill="#ffffff" stroke="none">
<path d="M140 354 c0 -27 -20 -54 -41 -54 -6 0 -20 10 -30 22 -11 11 -22 18
-26 15 -3 -4 4 -15 15 -26 23 -19 30 -51 12 -51 -5 0 -10 -13 -10 -30 0 -16 5
-30 10 -30 18 0 11 -32 -12 -51 -11 -11 -18 -22 -15 -26 4 -3 15 4 26 15 10
12 24 22 30 22 21 0 41 -27 41 -54 0 -19 5 -26 20 -26 15 0 20 7 20 26 0 27
20 54 41 54 6 0 20 -10 30 -22 11 -11 22 -18 26 -15 3 4 -4 15 -15 26 -23 19
-30 51 -12 51 6 0 10 14 10 30 0 17 -4 30 -10 30 -18 0 -11 32 12 51 11 11 18
22 15 26 -4 3 -15 -4 -26 -15 -10 -12 -24 -22 -30 -22 -21 0 -41 27 -41 54 0
19 -5 26 -20 26 -15 0 -20 -7 -20 -26z m55 -79 c32 -31 32 -59 0 -90 -30 -31
-40 -31 -70 0 -31 30 -32 59 -2 90 28 31 42 31 72 0z"/>
</g>
</svg>
