<?xml version="1.0" standalone="no"?>
<!DOCTYPE svg PUBLIC "-//W3C//DTD SVG 20010904//EN"
 "http://www.w3.org/TR/2001/REC-SVG-20010904/DTD/svg10.dtd">
<svg version="1.0" xmlns="http://www.w3.org/2000/svg"
 width="32.000000pt" height="48.000000pt" viewBox="0 0 32.000000 48.000000"
 preserveAspectRatio="xMidYMid meet">
<metadata>
Created by potrace 1.10, written by Peter Selinger 2001-2011
</metadata>
<g transform="translate(0.000000,48.000000) scale(0.100000,-0.100000)"
fill="#ffffff" stroke="none">
<path d="M120 370 c0 -5 -7 -10 -15 -10 -20 0 -65 -45 -65 -65 0 -8 -4 -15
-10 -15 -5 0 -10 -22 -10 -50 0 -27 5 -50 10 -50 6 0 10 -7 10 -15 0 -20 45
-65 65 -65 8 0 15 -4 15 -10 0 -5 23 -10 50 -10 28 0 50 5 50 10 0 6 7 10 15
10 20 0 65 45 65 65 0 8 5 15 10 15 6 0 10 23 10 50 0 28 -4 50 -10 50 -5 0
-10 7 -10 15 0 20 -45 65 -65 65 -8 0 -15 5 -15 10 0 6 -22 10 -50 10 -27 0
-50 -4 -50 -10z m100 -20 c0 -5 7 -10 16 -10 20 0 44 -24 44 -44 0 -9 5 -16
10 -16 6 0 10 -22 10 -50 0 -27 -4 -50 -10 -50 -5 0 -10 -7 -10 -16 0 -20 -24
-44 -44 -44 -9 0 -16 -4 -16 -10 0 -5 -22 -10 -50 -10 -27 0 -50 5 -50 10 0 6
-7 10 -16 10 -20 0 -44 24 -44 44 0 9 -4 16 -10 16 -5 0 -10 23 -10 50 0 28 5
50 10 50 6 0 10 7 10 16 0 20 24 44 44 44 9 0 16 5 16 10 0 6 23 10 50 10 28
0 50 -4 50 -10z"/>
<path d="M93 305 c-47 -49 -46 -102 2 -150 28 -29 42 -35 75 -35 58 0 110 52
110 110 0 33 -6 47 -35 75 -29 29 -41 35 -77 34 -35 0 -49 -6 -75 -34z m142
-10 c35 -34 35 -96 0 -130 -34 -35 -96 -35 -130 0 -33 33 -34 96 -2 130 32 34
99 34 132 0z"/>
<path d="M123 275 c-13 -13 -23 -34 -23 -45 0 -27 43 -70 70 -70 27 0 70 43
70 70 0 28 -44 70 -72 69 -13 0 -33 -11 -45 -24z m83 -9 c31 -31 8 -86 -36
-86 -43 0 -66 53 -37 85 16 19 55 19 73 1z"/>
<path d="M152 244 c-11 -12 -10 -17 2 -30 15 -14 17 -14 32 0 14 14 14 18 0
31 -18 18 -18 18 -34 -1z m28 -14 c0 -5 -4 -10 -10 -10 -5 0 -10 5 -10 10 0 6
5 10 10 10 6 0 10 -4 10 -10z"/>
</g>
</svg>
