<?xml version="1.0" standalone="no"?>
<!DOCTYPE svg PUBLIC "-//W3C//DTD SVG 20010904//EN"
 "http://www.w3.org/TR/2001/REC-SVG-20010904/DTD/svg10.dtd">
<svg version="1.0" xmlns="http://www.w3.org/2000/svg"
 width="32.000000pt" height="48.000000pt" viewBox="0 0 32.000000 48.000000"
 preserveAspectRatio="xMidYMid meet">
<metadata>
Created by potrace 1.10, written by Peter Selinger 2001-2011
</metadata>
<g transform="translate(0.000000,48.000000) scale(0.100000,-0.100000)"
fill="#ffffff" stroke="none">
<path d="M83 315 c-36 -38 -43 -51 -43 -85 0 -35 6 -47 45 -85 38 -39 50 -45
85 -45 35 0 47 6 85 45 39 38 45 50 45 85 0 35 -6 47 -45 85 -39 40 -49 45
-87 44 -37 0 -49 -6 -85 -44z m162 -10 c29 -28 35 -42 35 -75 0 -33 -6 -47
-35 -75 -28 -29 -42 -35 -75 -35 -33 0 -47 6 -75 35 -48 48 -49 101 -2 150 26
28 40 34 75 34 36 1 48 -5 77 -34z"/>
<path d="M113 285 c-18 -19 -33 -44 -33 -55 0 -27 63 -90 90 -90 27 0 90 63
90 90 0 28 -64 90 -92 89 -13 0 -38 -16 -55 -34z m102 -10 c14 -13 25 -33 25
-45 0 -27 -43 -70 -70 -70 -27 0 -70 43 -70 70 0 28 40 69 68 69 13 1 34 -10
47 -24z"/>
<path d="M142 254 l-23 -24 26 -26 25 -25 25 26 26 25 -25 25 c-14 14 -26 25
-28 24 -2 0 -13 -11 -26 -25z m44 -9 c14 -13 14 -17 0 -31 -15 -14 -17 -14
-32 0 -12 13 -13 18 -2 30 16 19 16 19 34 1z"/>
<path d="M160 230 c0 -5 5 -10 10 -10 6 0 10 5 10 10 0 6 -4 10 -10 10 -5 0
-10 -4 -10 -10z"/>
</g>
</svg>
