<?xml version="1.0" standalone="no"?>
<!DOCTYPE svg PUBLIC "-//W3C//DTD SVG 20010904//EN"
 "http://www.w3.org/TR/2001/REC-SVG-20010904/DTD/svg10.dtd">
<svg version="1.0" xmlns="http://www.w3.org/2000/svg"
 width="32.000000pt" height="48.000000pt" viewBox="0 0 32.000000 48.000000"
 preserveAspectRatio="xMidYMid meet">
<metadata>
Created by potrace 1.10, written by Peter Selinger 2001-2011
</metadata>
<g transform="translate(0.000000,48.000000) scale(0.100000,-0.100000)"
fill="#ffffff" stroke="none">
<path d="M130 360 c-8 -11 -22 -20 -32 -20 -11 0 -18 -7 -18 -20 0 -22 16 -27
22 -8 3 9 9 8 21 -4 14 -13 17 -36 17 -112 0 -57 4 -96 10 -96 6 0 10 39 10
96 0 76 3 99 17 112 12 12 18 13 21 4 5 -17 22 -15 22 3 0 19 -44 65 -62 65
-8 0 -20 -9 -28 -20z"/>
</g>
</svg>
