<?xml version="1.0" standalone="no"?>
<!DOCTYPE svg PUBLIC "-//W3C//DTD SVG 20010904//EN"
 "http://www.w3.org/TR/2001/REC-SVG-20010904/DTD/svg10.dtd">
<svg version="1.0" xmlns="http://www.w3.org/2000/svg"
 width="32.000000pt" height="48.000000pt" viewBox="0 0 32.000000 48.000000"
 preserveAspectRatio="xMidYMid meet">
<metadata>
Created by potrace 1.10, written by Peter Selinger 2001-2011
</metadata>
<g transform="translate(0.000000,48.000000) scale(0.100000,-0.100000)"
fill="#ffffff" stroke="none">
<path d="M133 305 c-7 -8 -13 -39 -13 -70 0 -54 0 -55 -30 -55 -16 0 -30 -3
-30 -6 0 -10 28 -34 41 -34 6 0 20 -9 30 -21 l18 -21 35 36 c20 19 36 42 36
51 0 21 -13 19 -30 -5 -8 -11 -18 -20 -22 -20 -4 0 -8 36 -8 80 0 80 -5 91
-27 65z"/>
</g>
</svg>
