<?xml version="1.0" standalone="no"?>
<!DOCTYPE svg PUBLIC "-//W3C//DTD SVG 20010904//EN"
 "http://www.w3.org/TR/2001/REC-SVG-20010904/DTD/svg10.dtd">
<svg version="1.0" xmlns="http://www.w3.org/2000/svg"
 width="32.000000pt" height="48.000000pt" viewBox="0 0 32.000000 48.000000"
 preserveAspectRatio="xMidYMid meet">
<metadata>
Created by potrace 1.10, written by Peter Selinger 2001-2011
</metadata>
<g transform="translate(0.000000,48.000000) scale(0.100000,-0.100000)"
fill="#ffffff" stroke="none">
<path d="M140 252 c0 -4 9 -14 20 -22 33 -24 23 -30 -50 -30 -40 0 -70 -4 -70
-10 0 -6 30 -10 70 -10 73 0 83 -6 50 -30 -11 -8 -20 -18 -20 -22 0 -16 36 -7
50 12 8 11 22 20 32 20 28 0 21 28 -17 65 -32 32 -65 46 -65 27z"/>
</g>
</svg>
