<?xml version="1.0" standalone="no"?>
<!DOCTYPE svg PUBLIC "-//W3C//DTD SVG 20010904//EN"
 "http://www.w3.org/TR/2001/REC-SVG-20010904/DTD/svg10.dtd">
<svg version="1.0" xmlns="http://www.w3.org/2000/svg"
 width="32.000000pt" height="48.000000pt" viewBox="0 0 32.000000 48.000000"
 preserveAspectRatio="xMidYMid meet">
<metadata>
Created by potrace 1.10, written by Peter Selinger 2001-2011
</metadata>
<g transform="translate(0.000000,48.000000) scale(0.100000,-0.100000)"
fill="#ffffff" stroke="none">
<path d="M83 355 c-13 -13 -23 -31 -23 -40 0 -8 -4 -15 -10 -15 -6 0 -10 -27
-10 -60 0 -33 4 -60 10 -60 6 0 10 -7 10 -15 0 -9 11 -27 25 -40 42 -43 135
-29 135 19 0 9 5 16 10 16 6 0 10 35 10 85 0 78 -2 88 -25 110 -33 34 -100 34
-132 0z m92 -20 c14 -13 25 -36 25 -50 0 -24 -2 -25 -60 -25 -53 0 -60 2 -60
20 0 11 5 20 10 20 6 0 10 7 10 15 0 20 21 44 38 45 7 0 24 -11 37 -25z m25
-130 c0 -36 -35 -85 -60 -85 -17 0 -40 26 -40 44 0 9 -4 16 -10 16 -5 0 -10 7
-10 15 0 30 24 44 73 45 l47 0 0 -35z"/>
</g>
</svg>
