<?xml version="1.0" standalone="no"?>
<!DOCTYPE svg PUBLIC "-//W3C//DTD SVG 20010904//EN"
 "http://www.w3.org/TR/2001/REC-SVG-20010904/DTD/svg10.dtd">
<svg version="1.0" xmlns="http://www.w3.org/2000/svg"
 width="32.000000pt" height="48.000000pt" viewBox="0 0 32.000000 48.000000"
 preserveAspectRatio="xMidYMid meet">
<metadata>
Created by potrace 1.10, written by Peter Selinger 2001-2011
</metadata>
<g transform="translate(0.000000,48.000000) scale(0.100000,-0.100000)"
fill="#ffffff" stroke="none">
<path d="M163 355 c-13 -13 -23 -29 -23 -35 0 -15 -25 -40 -40 -40 -14 0 -80
-66 -80 -80 0 -14 66 -80 80 -80 15 0 80 67 80 82 0 8 -9 20 -20 28 -11 8 -20
22 -20 32 0 11 7 18 20 18 11 0 20 5 20 10 0 6 14 10 30 10 17 0 30 -4 30 -10
0 -15 29 -12 46 4 20 20 18 33 -11 61 -32 33 -82 33 -112 0z m103 -9 c21 -21
17 -46 -6 -46 -11 0 -20 5 -20 10 0 6 -13 10 -30 10 -16 0 -30 -4 -30 -10 0
-5 -4 -10 -10 -10 -14 0 -12 28 3 45 16 19 74 19 93 1z m-131 -111 c14 -13 25
-29 25 -35 0 -14 -46 -60 -60 -60 -14 0 -60 46 -60 60 0 15 42 59 58 59 7 1
24 -10 37 -24z"/>
<path d="M73 225 c-17 -18 -16 -33 1 -51 18 -18 34 -18 52 0 18 18 18 34 0 52
-18 18 -37 17 -53 -1z"/>
</g>
</svg>
