<?xml version="1.0" standalone="no"?>
<!DOCTYPE svg PUBLIC "-//W3C//DTD SVG 20010904//EN"
 "http://www.w3.org/TR/2001/REC-SVG-20010904/DTD/svg10.dtd">
<svg version="1.0" xmlns="http://www.w3.org/2000/svg"
 width="32.000000pt" height="48.000000pt" viewBox="0 0 32.000000 48.000000"
 preserveAspectRatio="xMidYMid meet">
<metadata>
Created by potrace 1.10, written by Peter Selinger 2001-2011
</metadata>
<g transform="translate(0.000000,48.000000) scale(0.100000,-0.100000)"
fill="#ffffff" stroke="none">
<path d="M80 212 c0 -4 9 -14 20 -22 11 -8 20 -22 20 -32 0 -11 -7 -18 -20
-18 -13 0 -20 -7 -20 -20 0 -11 4 -20 8 -20 4 0 14 9 22 20 8 11 21 20 30 20
9 0 22 -9 30 -20 8 -11 18 -20 22 -20 4 0 8 9 8 20 0 11 -4 20 -10 20 -5 0
-10 9 -10 20 0 11 5 20 10 20 6 0 10 9 10 20 0 26 -8 25 -31 -2 l-19 -21 -19
21 c-18 21 -51 30 -51 14z"/>
</g>
</svg>
