<?xml version="1.0" standalone="no"?>
<!DOCTYPE svg PUBLIC "-//W3C//DTD SVG 20010904//EN"
 "http://www.w3.org/TR/2001/REC-SVG-20010904/DTD/svg10.dtd">
<svg version="1.0" xmlns="http://www.w3.org/2000/svg"
 width="32.000000pt" height="48.000000pt" viewBox="0 0 32.000000 48.000000"
 preserveAspectRatio="xMidYMid meet">
<metadata>
Created by potrace 1.10, written by Peter Selinger 2001-2011
</metadata>
<g transform="translate(0.000000,48.000000) scale(0.100000,-0.100000)"
fill="#ffffff" stroke="none">
<path d="M140 370 c0 -20 -5 -30 -15 -30 -29 0 -85 -67 -85 -100 0 -33 56
-100 85 -100 10 0 15 -10 15 -30 0 -23 4 -30 20 -30 16 0 20 7 20 30 0 27 3
30 30 30 34 0 37 5 13 28 -12 12 -18 13 -21 4 -2 -6 -8 -12 -13 -12 -5 0 -9
36 -9 80 0 47 4 80 10 80 6 0 10 -4 10 -10 0 -5 9 -10 20 -10 11 0 20 3 20 6
0 11 -29 34 -44 34 -11 0 -16 9 -16 30 0 23 -4 30 -20 30 -16 0 -20 -7 -20
-30z m0 -130 c0 -48 -3 -60 -16 -60 -25 0 -44 26 -44 60 0 35 17 59 43 60 14
0 17 -9 17 -60z"/>
</g>
</svg>
