<?xml version="1.0" standalone="no"?>
<!DOCTYPE svg PUBLIC "-//W3C//DTD SVG 20010904//EN"
 "http://www.w3.org/TR/2001/REC-SVG-20010904/DTD/svg10.dtd">
<svg version="1.0" xmlns="http://www.w3.org/2000/svg"
 width="32.000000pt" height="48.000000pt" viewBox="0 0 32.000000 48.000000"
 preserveAspectRatio="xMidYMid meet">
<metadata>
Created by potrace 1.10, written by Peter Selinger 2001-2011
</metadata>
<g transform="translate(0.000000,48.000000) scale(0.100000,-0.100000)"
fill="#ffffff" stroke="none">
<path d="M113 365 c-7 -8 -13 -28 -13 -45 0 -34 -19 -60 -44 -60 -9 0 -16 -4
-16 -10 0 -5 7 -10 16 -10 8 0 22 -6 30 -14 16 -17 19 -46 4 -46 -5 0 -10 -8
-10 -18 0 -10 -9 -24 -20 -32 -11 -8 -20 -18 -20 -22 0 -4 45 -8 100 -8 93 0
100 1 100 20 0 18 -7 20 -60 20 -53 0 -60 2 -60 20 0 11 5 20 10 20 6 0 10 14
10 30 0 27 3 30 30 30 17 0 30 5 30 10 0 6 -13 10 -30 10 -28 0 -30 3 -30 36
0 37 18 64 43 64 9 0 17 -6 19 -12 3 -9 9 -8 21 4 9 9 17 19 17 22 0 13 -115
5 -127 -9z"/>
</g>
</svg>
