<?xml version="1.0" standalone="no"?>
<!DOCTYPE svg PUBLIC "-//W3C//DTD SVG 20010904//EN"
 "http://www.w3.org/TR/2001/REC-SVG-20010904/DTD/svg10.dtd">
<svg version="1.0" xmlns="http://www.w3.org/2000/svg"
 width="32.000000pt" height="48.000000pt" viewBox="0 0 32.000000 48.000000"
 preserveAspectRatio="xMidYMid meet">
<metadata>
Created by potrace 1.10, written by Peter Selinger 2001-2011
</metadata>
<g transform="translate(0.000000,48.000000) scale(0.100000,-0.100000)"
fill="#ffffff" stroke="none">
<path d="M40 320 c0 -11 5 -20 10 -20 6 0 10 -9 10 -20 0 -11 -4 -20 -10 -20
-5 0 -10 -9 -10 -20 0 -11 5 -20 10 -20 6 0 10 -13 10 -30 0 -16 -4 -30 -10
-30 -5 0 -10 -4 -10 -10 0 -5 9 -10 20 -10 11 0 20 5 20 10 0 6 30 10 70 10
40 0 70 -4 70 -10 0 -5 5 -10 10 -10 14 0 12 37 -2 44 -10 5 -10 7 0 12 16 7
16 81 -1 88 -9 5 -9 7 1 12 14 7 16 44 2 44 -5 0 -10 -4 -10 -10 0 -6 -30 -10
-70 -10 -40 0 -70 4 -70 10 0 6 -9 10 -20 10 -13 0 -20 -7 -20 -20z m120 -30
c0 -5 9 -10 20 -10 17 0 20 -7 20 -40 0 -33 -3 -40 -20 -40 -11 0 -20 -4 -20
-10 0 -18 -31 -10 -55 15 -31 30 -31 39 -2 70 22 24 57 33 57 15z"/>
</g>
</svg>
