<?xml version="1.0" standalone="no"?>
<!DOCTYPE svg PUBLIC "-//W3C//DTD SVG 20010904//EN"
 "http://www.w3.org/TR/2001/REC-SVG-20010904/DTD/svg10.dtd">
<svg version="1.0" xmlns="http://www.w3.org/2000/svg"
 width="32.000000pt" height="48.000000pt" viewBox="0 0 32.000000 48.000000"
 preserveAspectRatio="xMidYMid meet">
<metadata>
Created by potrace 1.10, written by Peter Selinger 2001-2011
</metadata>
<g transform="translate(0.000000,48.000000) scale(0.100000,-0.100000)"
fill="#ffffff" stroke="none">
<path d="M40 362 c0 -10 9 -24 20 -32 11 -8 20 -21 20 -30 0 -9 9 -22 20 -30
28 -20 25 -30 -10 -30 -23 0 -30 -4 -30 -20 0 -16 7 -20 30 -20 17 0 30 -4 30
-10 0 -5 -13 -10 -30 -10 -23 0 -30 -4 -30 -20 0 -16 7 -20 30 -20 23 0 30 -4
30 -20 0 -13 7 -20 20 -20 13 0 20 7 20 20 0 16 7 20 30 20 23 0 30 4 30 20 0
16 -7 20 -30 20 -16 0 -30 5 -30 10 0 6 14 10 30 10 23 0 30 4 30 20 0 13 -7
20 -20 20 -13 0 -20 7 -20 18 0 10 9 24 20 32 11 8 20 21 20 30 0 9 9 22 20
30 24 17 26 30 5 30 -18 0 -65 -44 -65 -60 0 -17 -26 -40 -44 -40 -9 0 -16 8
-16 18 0 10 -9 24 -20 32 -11 8 -20 22 -20 32 0 11 -7 18 -20 18 -13 0 -20 -7
-20 -18z"/>
</g>
</svg>
