<?xml version="1.0" standalone="no"?>
<!DOCTYPE svg PUBLIC "-//W3C//DTD SVG 20010904//EN"
 "http://www.w3.org/TR/2001/REC-SVG-20010904/DTD/svg10.dtd">
<svg version="1.0" xmlns="http://www.w3.org/2000/svg"
 width="32.000000pt" height="48.000000pt" viewBox="0 0 32.000000 48.000000"
 preserveAspectRatio="xMidYMid meet">
<metadata>
Created by potrace 1.10, written by Peter Selinger 2001-2011
</metadata>
<g transform="translate(0.000000,48.000000) scale(0.100000,-0.100000)"
fill="#ffffff" stroke="none">
<path d="M100 370 c0 -5 -9 -10 -20 -10 -16 0 -20 -7 -20 -30 0 -16 5 -30 10
-30 6 0 10 -9 10 -20 0 -11 -4 -20 -10 -20 -5 0 -10 -18 -10 -40 0 -32 4 -40
18 -40 10 0 24 -9 32 -20 8 -11 22 -20 32 -20 10 0 18 -4 18 -10 0 -5 9 -10
20 -10 13 0 20 -7 20 -20 0 -13 -7 -20 -20 -20 -11 0 -20 -4 -20 -10 0 -5 -13
-10 -30 -10 -16 0 -30 5 -30 10 0 6 -13 10 -30 10 -34 0 -37 -5 -16 -26 10 -9
36 -14 76 -14 51 0 65 4 85 25 25 24 33 55 15 55 -5 0 -10 9 -10 20 0 11 5 20
10 20 6 0 10 18 10 40 0 32 -4 40 -18 40 -10 0 -24 9 -32 20 -8 11 -22 20 -32
20 -10 0 -18 5 -18 10 0 6 -9 10 -20 10 -23 0 -27 25 -6 46 17 16 66 19 66 4
0 -5 9 -10 20 -10 13 0 20 7 20 20 0 18 -7 20 -60 20 -33 0 -60 -4 -60 -10z
m40 -120 c0 -5 7 -10 16 -10 23 0 44 -25 44 -54 0 -19 -5 -26 -20 -26 -11 0
-20 5 -20 10 0 6 -7 10 -16 10 -23 0 -44 25 -44 54 0 19 5 26 20 26 11 0 20
-4 20 -10z"/>
</g>
</svg>
