<?xml version="1.0" standalone="no"?>
<!DOCTYPE svg PUBLIC "-//W3C//DTD SVG 20010904//EN"
 "http://www.w3.org/TR/2001/REC-SVG-20010904/DTD/svg10.dtd">
<svg version="1.0" xmlns="http://www.w3.org/2000/svg"
 width="32.000000pt" height="48.000000pt" viewBox="0 0 32.000000 48.000000"
 preserveAspectRatio="xMidYMid meet">
<metadata>
Created by potrace 1.10, written by Peter Selinger 2001-2011
</metadata>
<g transform="translate(0.000000,48.000000) scale(0.100000,-0.100000)"
fill="#ffffff" stroke="none">
<path d="M83 355 c-26 -28 -30 -60 -9 -81 16 -16 86 -19 86 -4 0 6 9 10 20 10
11 0 20 -4 20 -10 0 -5 5 -10 10 -10 6 0 10 27 10 60 l0 60 -57 -1 c-48 0 -62
-4 -80 -24z m97 -25 c0 -23 -5 -30 -19 -30 -11 0 -21 -6 -23 -12 -5 -15 -38
13 -38 32 0 20 25 39 53 40 23 0 27 -4 27 -30z"/>
</g>
</svg>
