<?xml version="1.0" standalone="no"?>
<!DOCTYPE svg PUBLIC "-//W3C//DTD SVG 20010904//EN"
 "http://www.w3.org/TR/2001/REC-SVG-20010904/DTD/svg10.dtd">
<svg version="1.0" xmlns="http://www.w3.org/2000/svg"
 width="32.000000pt" height="48.000000pt" viewBox="0 0 32.000000 48.000000"
 preserveAspectRatio="xMidYMid meet">
<metadata>
Created by potrace 1.10, written by Peter Selinger 2001-2011
</metadata>
<g transform="translate(0.000000,48.000000) scale(0.100000,-0.100000)"
fill="#ffffff" stroke="none">
<path d="M73 245 c-18 -19 -33 -39 -33 -45 0 -16 67 -80 85 -80 22 0 19 33 -5
50 -11 8 -20 21 -20 30 0 9 9 22 20 30 25 18 27 50 3 49 -10 0 -33 -16 -50
-34z"/>
<path d="M173 245 c-18 -19 -33 -39 -33 -45 0 -16 67 -80 85 -80 25 0 17 30
-16 61 -27 26 -29 30 -16 44 9 8 23 15 31 15 9 0 16 8 16 20 0 30 -30 23 -67
-15z"/>
</g>
</svg>
