<?xml version="1.0" standalone="no"?>
<!DOCTYPE svg PUBLIC "-//W3C//DTD SVG 20010904//EN"
 "http://www.w3.org/TR/2001/REC-SVG-20010904/DTD/svg10.dtd">
<svg version="1.0" xmlns="http://www.w3.org/2000/svg"
 width="32.000000pt" height="48.000000pt" viewBox="0 0 32.000000 48.000000"
 preserveAspectRatio="xMidYMid meet">
<metadata>
Created by potrace 1.10, written by Peter Selinger 2001-2011
</metadata>
<g transform="translate(0.000000,48.000000) scale(0.100000,-0.100000)"
fill="#ffffff" stroke="none">
<path d="M63 355 c-13 -13 -23 -31 -23 -40 0 -8 -4 -15 -10 -15 -6 0 -10 -27
-10 -60 0 -33 4 -60 10 -60 6 0 10 -7 10 -15 0 -9 11 -27 25 -40 20 -21 34
-25 80 -25 30 0 55 5 55 10 0 6 9 10 20 10 13 0 20 7 20 20 0 11 5 20 10 20 6
0 10 14 10 30 0 17 5 30 10 30 6 0 10 9 10 20 0 11 -4 20 -10 20 -5 0 -10 11
-10 25 0 16 -13 39 -35 60 -31 31 -40 35 -87 34 -43 0 -57 -5 -75 -24z m117
-5 c0 -5 9 -10 20 -10 13 0 20 -7 20 -20 0 -11 5 -20 10 -20 6 0 10 -27 10
-60 0 -33 -4 -60 -10 -60 -5 0 -10 -9 -10 -20 0 -13 -7 -20 -20 -20 -11 0 -20
-4 -20 -10 0 -5 -16 -10 -35 -10 -38 0 -85 36 -85 65 0 8 -4 15 -10 15 -5 0
-10 18 -10 40 0 22 5 40 10 40 6 0 10 7 10 15 0 30 43 64 83 64 20 1 37 -3 37
-9z"/>
<path d="M93 305 c-18 -20 -17 -113 1 -131 21 -21 26 -18 26 16 0 17 3 30 6
30 3 0 19 -13 34 -30 15 -16 31 -30 34 -30 14 0 4 34 -16 51 l-21 19 21 19
c26 21 28 37 8 57 -19 18 -77 18 -93 -1z m67 -25 c0 -13 -7 -20 -20 -20 -13 0
-20 7 -20 20 0 13 7 20 20 20 13 0 20 -7 20 -20z"/>
</g>
</svg>
