<?xml version="1.0" standalone="no"?>
<!DOCTYPE svg PUBLIC "-//W3C//DTD SVG 20010904//EN"
 "http://www.w3.org/TR/2001/REC-SVG-20010904/DTD/svg10.dtd">
<svg version="1.0" xmlns="http://www.w3.org/2000/svg"
 width="32.000000pt" height="48.000000pt" viewBox="0 0 32.000000 48.000000"
 preserveAspectRatio="xMidYMid meet">
<metadata>
Created by potrace 1.10, written by Peter Selinger 2001-2011
</metadata>
<g transform="translate(0.000000,48.000000) scale(0.100000,-0.100000)"
fill="#ffffff" stroke="none">
<path d="M0 471 c0 -5 6 -12 13 -14 9 -4 8 -8 -3 -16 -13 -10 -13 -12 0 -21
13 -9 13 -11 0 -20 -13 -9 -13 -11 0 -20 13 -9 13 -11 0 -20 -13 -9 -13 -11 0
-20 13 -9 13 -11 0 -20 -13 -9 -13 -11 0 -20 13 -9 13 -11 0 -20 -13 -9 -13
-11 0 -20 13 -9 13 -11 0 -20 -13 -9 -13 -11 0 -20 13 -9 13 -11 0 -20 -13 -9
-13 -11 0 -20 13 -9 13 -11 0 -20 -13 -9 -13 -11 0 -20 13 -9 13 -11 0 -20
-13 -9 -13 -11 0 -20 13 -9 13 -11 0 -20 -13 -9 -13 -11 0 -20 13 -9 13 -11 1
-19 -12 -8 -11 -12 3 -27 15 -14 19 -15 27 -3 8 12 10 12 19 -1 9 -13 11 -13
20 0 9 13 11 13 20 0 9 -13 11 -13 20 0 9 13 11 13 20 0 9 -13 11 -13 20 0 9
13 11 13 20 0 9 -13 11 -13 20 0 9 13 11 13 20 0 9 -13 11 -13 20 0 9 13 11
13 20 0 9 -13 11 -13 20 0 9 13 11 13 19 0 6 -8 13 -11 18 -7 4 5 1 12 -7 18
-13 8 -13 10 0 19 13 9 13 11 0 20 -13 9 -13 11 0 20 13 9 13 11 0 20 -13 9
-13 11 0 20 13 9 13 11 0 20 -13 9 -13 11 0 20 13 9 13 11 0 20 -13 9 -13 11
0 20 13 9 13 11 0 20 -13 9 -13 11 0 20 13 9 13 11 0 20 -13 9 -13 11 0 20 13
9 13 11 0 20 -13 9 -13 11 0 20 13 9 13 11 0 20 -13 9 -13 11 0 20 13 9 13 11
0 20 -13 9 -13 11 0 20 13 9 13 11 0 20 -13 9 -13 11 -1 19 12 8 11 12 -3 27
-15 14 -19 15 -27 3 -8 -12 -10 -12 -19 1 -9 13 -11 13 -20 0 -9 -13 -11 -13
-20 0 -9 13 -11 13 -20 0 -9 -13 -11 -13 -20 0 -9 13 -11 13 -20 0 -9 -13 -11
-13 -20 0 -9 13 -11 13 -20 0 -9 -13 -11 -13 -20 0 -9 13 -11 13 -20 0 -9 -13
-11 -13 -20 0 -9 13 -11 13 -21 0 -8 -11 -12 -12 -16 -2 -5 14 -23 16 -23 3z
m63 -23 c4 -10 8 -9 16 2 10 13 12 13 21 0 9 -13 11 -13 20 0 9 13 11 13 20 0
9 -13 11 -13 20 0 9 13 11 13 20 0 9 -13 11 -13 20 0 9 13 11 13 20 0 9 -13
11 -13 20 0 9 13 11 13 20 0 9 -13 11 -13 19 0 6 8 13 11 18 7 4 -5 1 -12 -7
-18 -13 -8 -13 -10 0 -19 13 -9 13 -11 0 -20 -13 -9 -13 -11 0 -20 13 -9 13
-11 0 -20 -13 -9 -13 -11 0 -20 13 -9 13 -11 0 -20 -13 -9 -13 -11 0 -20 13
-9 13 -11 0 -20 -13 -9 -13 -11 0 -20 13 -9 13 -11 0 -20 -13 -9 -13 -11 0
-20 13 -9 13 -11 0 -20 -13 -9 -13 -11 0 -20 13 -9 13 -11 0 -20 -13 -9 -13
-11 0 -20 13 -9 13 -11 0 -20 -13 -9 -13 -11 0 -20 13 -9 13 -11 0 -20 -13 -9
-13 -11 -1 -19 12 -8 11 -12 -3 -27 -15 -14 -19 -15 -27 -3 -8 12 -10 12 -19
-1 -9 -13 -11 -13 -20 0 -9 13 -11 13 -20 0 -9 -13 -11 -13 -20 0 -9 13 -11
13 -20 0 -9 -13 -11 -13 -20 0 -9 13 -11 13 -20 0 -9 -13 -11 -13 -20 0 -9 13
-11 13 -20 0 -9 -13 -11 -13 -20 0 -9 13 -11 13 -19 0 -6 -8 -13 -11 -18 -7
-4 5 -1 12 7 18 13 8 13 10 0 19 -13 9 -13 11 0 20 13 9 13 11 0 20 -13 9 -13
11 0 20 13 9 13 11 0 20 -13 9 -13 11 0 20 13 9 13 11 0 20 -13 9 -13 11 0 20
13 9 13 11 0 20 -13 9 -13 11 0 20 13 9 13 11 0 20 -13 9 -13 11 0 20 13 9 13
11 0 20 -13 9 -13 11 0 20 13 9 13 11 0 20 -13 9 -13 11 0 20 13 9 13 11 0 20
-13 9 -13 11 0 20 13 8 13 11 1 19 -12 8 -12 11 0 25 17 19 26 20 32 4z"/>
<path d="M40 431 c0 -5 6 -12 13 -14 9 -4 8 -8 -3 -16 -13 -10 -13 -12 0 -21
13 -9 13 -11 0 -20 -13 -9 -13 -11 0 -20 13 -9 13 -11 0 -20 -13 -9 -13 -11 0
-20 13 -9 13 -11 0 -20 -13 -9 -13 -11 0 -20 13 -9 13 -11 0 -20 -13 -9 -13
-11 0 -20 13 -9 13 -11 0 -20 -13 -9 -13 -11 0 -20 13 -9 13 -11 0 -20 -13 -9
-13 -11 0 -20 13 -9 13 -11 0 -20 -13 -9 -13 -11 0 -20 13 -9 13 -11 1 -19
-12 -8 -11 -12 3 -27 15 -14 19 -15 27 -3 8 12 10 12 19 -1 9 -13 11 -13 20 0
9 13 11 13 20 0 9 -13 11 -13 20 0 9 13 11 13 20 0 9 -13 11 -13 20 0 9 13 11
13 20 0 9 -13 11 -13 20 0 9 13 11 13 19 0 6 -8 13 -11 18 -7 4 5 1 12 -7 18
-13 8 -13 10 0 19 13 9 13 11 0 20 -13 9 -13 11 0 20 13 9 13 11 0 20 -13 9
-13 11 0 20 13 9 13 11 0 20 -13 9 -13 11 0 20 13 9 13 11 0 20 -13 9 -13 11
0 20 13 9 13 11 0 20 -13 9 -13 11 0 20 13 9 13 11 0 20 -13 9 -13 11 0 20 13
9 13 11 0 20 -13 9 -13 11 0 20 13 9 13 11 0 20 -13 9 -13 11 -1 19 12 8 11
12 -3 27 -15 14 -19 15 -27 3 -8 -12 -10 -12 -19 1 -9 13 -11 13 -20 0 -9 -13
-11 -13 -20 0 -9 13 -11 13 -20 0 -9 -13 -11 -13 -20 0 -9 13 -11 13 -20 0 -9
-13 -11 -13 -20 0 -9 13 -11 13 -21 0 -8 -11 -12 -12 -16 -2 -5 14 -23 16 -23
3z m63 -23 c4 -10 8 -9 16 2 10 13 12 13 21 0 9 -13 11 -13 20 0 9 13 11 13
20 0 9 -13 11 -13 20 0 9 13 11 13 20 0 9 -13 11 -13 19 0 6 8 13 11 18 7 4
-5 1 -12 -7 -18 -13 -8 -13 -10 0 -19 13 -9 13 -11 0 -20 -13 -9 -13 -11 0
-20 13 -9 13 -11 0 -20 -13 -9 -13 -11 0 -20 13 -9 13 -11 0 -20 -13 -9 -13
-11 0 -20 13 -9 13 -11 0 -20 -13 -9 -13 -11 0 -20 13 -9 13 -11 0 -20 -13 -9
-13 -11 0 -20 13 -9 13 -11 0 -20 -13 -9 -13 -11 0 -20 13 -9 13 -11 0 -20
-13 -9 -13 -11 -1 -19 12 -8 11 -12 -3 -27 -15 -14 -19 -15 -27 -3 -8 12 -10
12 -19 -1 -9 -13 -11 -13 -20 0 -9 13 -11 13 -20 0 -9 -13 -11 -13 -20 0 -9
13 -11 13 -20 0 -9 -13 -11 -13 -20 0 -9 13 -11 13 -19 0 -6 -8 -13 -11 -18
-7 -4 5 -1 12 7 18 13 8 13 10 0 19 -13 9 -13 11 0 20 13 9 13 11 0 20 -13 9
-13 11 0 20 13 9 13 11 0 20 -13 9 -13 11 0 20 13 9 13 11 0 20 -13 9 -13 11
0 20 13 9 13 11 0 20 -13 9 -13 11 0 20 13 9 13 11 0 20 -13 9 -13 11 0 20 13
9 13 11 0 20 -13 9 -13 11 0 20 13 8 13 11 1 19 -12 8 -12 11 0 25 17 19 26
20 32 4z"/>
<path d="M80 391 c0 -5 6 -12 13 -14 9 -4 8 -8 -3 -16 -13 -10 -13 -12 0 -21
13 -9 13 -11 0 -20 -13 -9 -13 -11 0 -20 13 -9 13 -11 0 -20 -13 -9 -13 -11 0
-20 13 -9 13 -11 0 -20 -13 -9 -13 -11 0 -20 13 -9 13 -11 0 -20 -13 -9 -13
-11 0 -20 13 -9 13 -11 0 -20 -13 -9 -13 -11 0 -20 13 -9 13 -11 1 -19 -12 -8
-11 -12 3 -27 15 -14 19 -15 27 -3 8 12 10 12 19 -1 9 -13 11 -13 20 0 9 13
11 13 20 0 9 -13 11 -13 20 0 9 13 11 13 19 0 6 -8 13 -11 18 -7 4 5 1 12 -7
18 -13 8 -13 10 0 19 13 9 13 11 0 20 -13 9 -13 11 0 20 13 9 13 11 0 20 -13
9 -13 11 0 20 13 9 13 11 0 20 -13 9 -13 11 0 20 13 9 13 11 0 20 -13 9 -13
11 0 20 13 9 13 11 0 20 -13 9 -13 11 0 20 13 9 13 11 0 20 -13 9 -13 11 -1
19 12 8 11 12 -3 27 -15 14 -19 15 -27 3 -8 -12 -10 -12 -19 1 -9 13 -11 13
-20 0 -9 -13 -11 -13 -20 0 -9 13 -11 13 -21 0 -8 -11 -12 -12 -16 -2 -5 14
-23 16 -23 3z m63 -23 c4 -10 8 -9 16 2 10 13 12 13 21 0 9 -13 11 -13 19 0 6
8 13 11 18 7 4 -5 1 -12 -7 -18 -13 -8 -13 -10 0 -19 13 -9 13 -11 0 -20 -13
-9 -13 -11 0 -20 13 -9 13 -11 0 -20 -13 -9 -13 -11 0 -20 13 -9 13 -11 0 -20
-13 -9 -13 -11 0 -20 13 -9 13 -11 0 -20 -13 -9 -13 -11 0 -20 13 -9 13 -11 0
-20 -13 -9 -13 -11 -1 -19 12 -8 11 -12 -3 -27 -15 -14 -19 -15 -27 -3 -8 12
-10 12 -19 -1 -9 -13 -11 -13 -20 0 -9 13 -11 13 -19 0 -6 -8 -13 -11 -18 -7
-4 5 -1 12 7 18 13 8 13 10 0 19 -13 9 -13 11 0 20 13 9 13 11 0 20 -13 9 -13
11 0 20 13 9 13 11 0 20 -13 9 -13 11 0 20 13 9 13 11 0 20 -13 9 -13 11 0 20
13 9 13 11 0 20 -13 9 -13 11 0 20 13 8 13 11 1 19 -12 8 -12 11 0 25 17 19
26 20 32 4z"/>
<path d="M120 351 c0 -5 6 -12 13 -14 9 -4 8 -8 -3 -16 -13 -10 -13 -12 0 -21
13 -9 13 -11 0 -20 -13 -9 -13 -11 0 -20 13 -9 13 -11 0 -20 -13 -9 -13 -11 0
-20 13 -9 13 -11 0 -20 -13 -9 -13 -11 0 -20 13 -9 13 -11 1 -19 -12 -8 -11
-12 3 -27 15 -14 19 -15 27 -3 8 12 10 12 18 -1 6 -8 13 -11 18 -7 4 5 1 12
-7 18 -13 8 -13 10 0 19 13 9 13 11 0 20 -13 9 -13 11 0 20 13 9 13 11 0 20
-13 9 -13 11 0 20 13 9 13 11 0 20 -13 9 -13 11 0 20 13 9 13 11 0 20 -13 9
-13 11 -1 19 12 8 11 12 -3 27 -15 15 -19 15 -28 3 -7 -11 -11 -11 -15 -1 -5
14 -23 16 -23 3z m60 -20 c0 -5 -6 -12 -12 -14 -10 -4 -9 -8 2 -16 13 -10 13
-12 0 -21 -13 -9 -13 -11 0 -20 13 -9 13 -11 0 -20 -13 -9 -13 -11 0 -20 13
-9 13 -11 0 -20 -13 -9 -13 -11 -1 -19 12 -8 12 -12 -3 -26 -9 -10 -20 -14
-24 -11 -3 4 0 11 8 17 13 8 13 10 0 19 -13 9 -13 11 0 20 13 9 13 11 0 20
-13 9 -13 11 0 20 13 9 13 11 0 20 -13 9 -13 11 0 20 13 8 13 11 1 19 -12 8
-12 11 0 25 16 17 29 21 29 7z"/>
</g>
</svg>
