<?xml version="1.0" standalone="no"?>
<!DOCTYPE svg PUBLIC "-//W3C//DTD SVG 20010904//EN"
 "http://www.w3.org/TR/2001/REC-SVG-20010904/DTD/svg10.dtd">
<svg version="1.0" xmlns="http://www.w3.org/2000/svg"
 width="32.000000pt" height="48.000000pt" viewBox="0 0 32.000000 48.000000"
 preserveAspectRatio="xMidYMid meet">
<metadata>
Created by potrace 1.10, written by Peter Selinger 2001-2011
</metadata>
<g transform="translate(0.000000,48.000000) scale(0.100000,-0.100000)"
fill="#ffffff" stroke="none">
<path d="M80 370 c0 -5 23 -10 50 -10 43 0 50 -3 50 -20 0 -13 -7 -20 -18 -20
-10 0 -24 -9 -32 -20 -8 -11 -22 -20 -32 -20 -11 0 -18 -7 -18 -20 0 -11 -4
-20 -10 -20 -5 0 -10 -4 -10 -10 0 -6 33 -10 80 -10 47 0 80 4 80 10 0 6 -27
10 -60 10 -33 0 -60 3 -60 6 0 10 28 34 40 34 6 0 27 16 46 35 31 31 33 37 20
50 -17 17 -126 21 -126 5z"/>
</g>
</svg>
