<?xml version="1.0" standalone="no"?>
<!DOCTYPE svg PUBLIC "-//W3C//DTD SVG 20010904//EN"
 "http://www.w3.org/TR/2001/REC-SVG-20010904/DTD/svg10.dtd">
<svg version="1.0" xmlns="http://www.w3.org/2000/svg"
 width="32.000000pt" height="48.000000pt" viewBox="0 0 32.000000 48.000000"
 preserveAspectRatio="xMidYMid meet">
<metadata>
Created by potrace 1.10, written by Peter Selinger 2001-2011
</metadata>
<g transform="translate(0.000000,48.000000) scale(0.100000,-0.100000)"
fill="#ffffff" stroke="none">
<path d="M40 170 c0 -123 1 -130 20 -130 16 0 20 7 20 30 0 28 2 30 40 30 22
0 40 5 40 10 0 6 9 10 20 10 11 0 20 -4 20 -10 0 -5 9 -10 20 -10 19 0 20 7
20 100 0 93 -1 100 -20 100 -18 0 -20 -7 -20 -60 0 -33 -4 -60 -10 -60 -5 0
-10 -9 -10 -20 0 -13 -7 -20 -20 -20 -11 0 -20 -4 -20 -10 0 -15 -29 -12 -46
4 -10 10 -14 38 -14 90 0 69 -2 76 -20 76 -19 0 -20 -7 -20 -130z"/>
</g>
</svg>
