<?xml version="1.0" standalone="no"?>
<!DOCTYPE svg PUBLIC "-//W3C//DTD SVG 20010904//EN"
 "http://www.w3.org/TR/2001/REC-SVG-20010904/DTD/svg10.dtd">
<svg version="1.0" xmlns="http://www.w3.org/2000/svg"
 width="32.000000pt" height="48.000000pt" viewBox="0 0 32.000000 48.000000"
 preserveAspectRatio="xMidYMid meet">
<metadata>
Created by potrace 1.10, written by Peter Selinger 2001-2011
</metadata>
<g transform="translate(0.000000,48.000000) scale(0.100000,-0.100000)"
fill="#ffffff" stroke="none">
<path d="M93 365 c-19 -21 -16 -25 17 -25 29 0 30 -1 30 -50 0 -49 -1 -50 -30
-50 -16 0 -30 -4 -30 -10 0 -6 30 -10 70 -10 40 0 70 4 70 10 0 6 -13 10 -30
10 l-30 0 0 70 c0 70 0 70 -27 70 -16 -1 -34 -7 -40 -15z"/>
</g>
</svg>
