<?xml version="1.0" standalone="no"?>
<!DOCTYPE svg PUBLIC "-//W3C//DTD SVG 20010904//EN"
 "http://www.w3.org/TR/2001/REC-SVG-20010904/DTD/svg10.dtd">
<svg version="1.0" xmlns="http://www.w3.org/2000/svg"
 width="32.000000pt" height="48.000000pt" viewBox="0 0 32.000000 48.000000"
 preserveAspectRatio="xMidYMid meet">
<metadata>
Created by potrace 1.10, written by Peter Selinger 2001-2011
</metadata>
<g transform="translate(0.000000,48.000000) scale(0.100000,-0.100000)"
fill="#ffffff" stroke="none">
<path d="M73 365 c-7 -8 -13 -30 -13 -50 0 -28 4 -35 20 -35 11 0 20 -4 20
-10 0 -5 20 -10 45 -10 35 0 52 6 70 25 31 30 31 40 0 70 -20 20 -34 25 -77
25 -33 -1 -58 -6 -65 -15z m113 -19 c18 -18 18 -34 0 -52 -17 -16 -66 -19 -66
-4 0 6 -9 10 -20 10 -23 0 -27 23 -7 45 16 19 74 19 93 1z"/>
</g>
</svg>
