<?xml version="1.0" standalone="no"?>
<!DOCTYPE svg PUBLIC "-//W3C//DTD SVG 20010904//EN"
 "http://www.w3.org/TR/2001/REC-SVG-20010904/DTD/svg10.dtd">
<svg version="1.0" xmlns="http://www.w3.org/2000/svg"
 width="32.000000pt" height="48.000000pt" viewBox="0 0 32.000000 48.000000"
 preserveAspectRatio="xMidYMid meet">
<metadata>
Created by potrace 1.10, written by Peter Selinger 2001-2011
</metadata>
<g transform="translate(0.000000,48.000000) scale(0.100000,-0.100000)"
fill="#ffffff" stroke="none">
<path d="M40 274 c0 -3 14 -19 30 -34 16 -15 30 -33 30 -40 0 -7 -13 -25 -30
-40 -34 -32 -37 -40 -15 -40 18 0 85 64 85 80 0 16 -67 80 -85 80 -8 0 -15 -3
-15 -6z"/>
<path d="M140 274 c0 -3 14 -19 30 -34 17 -15 30 -33 30 -40 0 -7 -13 -25 -30
-40 -34 -32 -37 -40 -15 -40 18 0 85 64 85 80 0 16 -67 80 -85 80 -8 0 -15 -3
-15 -6z"/>
</g>
</svg>
