<?xml version="1.0" standalone="no"?>
<!DOCTYPE svg PUBLIC "-//W3C//DTD SVG 20010904//EN"
 "http://www.w3.org/TR/2001/REC-SVG-20010904/DTD/svg10.dtd">
<svg version="1.0" xmlns="http://www.w3.org/2000/svg"
 width="32.000000pt" height="48.000000pt" viewBox="0 0 32.000000 48.000000"
 preserveAspectRatio="xMidYMid meet">
<metadata>
Created by potrace 1.10, written by Peter Selinger 2001-2011
</metadata>
<g transform="translate(0.000000,48.000000) scale(0.100000,-0.100000)"
fill="#ffffff" stroke="none">
<path d="M33 365 c-15 -17 -17 -45 -3 -45 6 0 10 5 10 10 0 6 5 10 10 10 6 0
10 -18 10 -40 0 -33 -3 -40 -20 -40 -11 0 -20 -4 -20 -10 0 -5 23 -10 50 -10
54 0 61 -7 30 -30 -11 -8 -20 -21 -20 -28 0 -8 -13 -27 -30 -42 -34 -32 -37
-40 -15 -40 18 0 65 44 65 61 0 6 14 24 30 39 17 15 30 33 30 40 0 7 14 25 30
40 17 15 30 34 30 42 0 7 9 20 20 28 24 17 26 30 4 30 -18 0 -44 -23 -44 -40
0 -16 -67 -80 -85 -80 -12 0 -15 13 -15 60 0 59 -1 60 -27 60 -16 -1 -34 -7
-40 -15z"/>
<path d="M162 194 c-38 -39 -41 -46 -28 -59 8 -8 26 -15 40 -15 14 0 26 -4 26
-10 0 -15 29 -12 46 4 16 17 19 46 4 46 -5 0 -10 18 -10 40 0 54 -22 52 -78
-6z m38 -24 c0 -5 -4 -10 -10 -10 -5 0 -10 5 -10 10 0 6 5 10 10 10 6 0 10 -4
10 -10z"/>
</g>
</svg>
