<?xml version="1.0" standalone="no"?>
<!DOCTYPE svg PUBLIC "-//W3C//DTD SVG 20010904//EN"
 "http://www.w3.org/TR/2001/REC-SVG-20010904/DTD/svg10.dtd">
<svg version="1.0" xmlns="http://www.w3.org/2000/svg"
 width="32.000000pt" height="48.000000pt" viewBox="0 0 32.000000 48.000000"
 preserveAspectRatio="xMidYMid meet">
<metadata>
Created by potrace 1.10, written by Peter Selinger 2001-2011
</metadata>
<g transform="translate(0.000000,48.000000) scale(0.100000,-0.100000)"
fill="#ffffff" stroke="none">
<path d="M40 360 c0 -22 16 -27 22 -8 3 9 9 8 21 -4 24 -23 21 -28 -13 -28
-16 0 -30 -4 -30 -10 0 -5 14 -10 30 -10 23 0 30 -4 30 -20 0 -16 -7 -20 -30
-20 -16 0 -30 -4 -30 -10 0 -5 14 -10 30 -10 17 0 30 5 30 10 0 6 9 10 20 10
27 0 25 -7 -10 -40 -16 -15 -30 -33 -30 -40 0 -7 -13 -25 -30 -40 -34 -32 -37
-40 -15 -40 18 0 65 44 65 61 0 6 14 24 30 39 17 15 30 33 30 40 0 7 14 25 30
40 17 15 30 34 30 42 0 7 9 20 20 28 24 17 26 30 4 30 -18 0 -44 -23 -44 -40
0 -6 -11 -22 -25 -36 -22 -22 -27 -23 -40 -10 -8 8 -15 31 -15 50 0 35 -1 36
-40 36 -33 0 -40 -3 -40 -20z"/>
<path d="M162 194 c-38 -39 -41 -46 -28 -59 8 -8 26 -15 40 -15 14 0 26 -4 26
-10 0 -15 29 -12 46 4 16 17 19 46 4 46 -5 0 -10 18 -10 40 0 54 -22 52 -78
-6z m38 -24 c0 -5 -4 -10 -10 -10 -5 0 -10 5 -10 10 0 6 5 10 10 10 6 0 10 -4
10 -10z"/>
</g>
</svg>
