<?xml version="1.0" standalone="no"?>
<!DOCTYPE svg PUBLIC "-//W3C//DTD SVG 20010904//EN"
 "http://www.w3.org/TR/2001/REC-SVG-20010904/DTD/svg10.dtd">
<svg version="1.0" xmlns="http://www.w3.org/2000/svg"
 width="32.000000pt" height="48.000000pt" viewBox="0 0 32.000000 48.000000"
 preserveAspectRatio="xMidYMid meet">
<metadata>
Created by potrace 1.10, written by Peter Selinger 2001-2011
</metadata>
<g transform="translate(0.000000,48.000000) scale(0.100000,-0.100000)"
fill="#ffffff" stroke="none">
<path d="M140 280 c0 -13 7 -20 20 -20 13 0 20 7 20 20 0 13 -7 20 -20 20 -13
0 -20 -7 -20 -20z"/>
<path d="M153 205 c-7 -8 -13 -19 -13 -25 0 -7 -18 -29 -40 -50 -70 -68 -50
-110 54 -110 59 0 66 2 66 20 0 11 -4 20 -10 20 -5 0 -10 -4 -10 -10 0 -15
-70 -12 -86 4 -22 22 -17 34 26 76 26 25 40 47 40 64 0 29 -9 32 -27 11z"/>
</g>
</svg>
