<?xml version="1.0" standalone="no"?>
<!DOCTYPE svg PUBLIC "-//W3C//DTD SVG 20010904//EN"
 "http://www.w3.org/TR/2001/REC-SVG-20010904/DTD/svg10.dtd">
<svg version="1.0" xmlns="http://www.w3.org/2000/svg"
 width="32.000000pt" height="48.000000pt" viewBox="0 0 32.000000 48.000000"
 preserveAspectRatio="xMidYMid meet">
<metadata>
Created by potrace 1.10, written by Peter Selinger 2001-2011
</metadata>
<g transform="translate(0.000000,48.000000) scale(0.100000,-0.100000)"
fill="#ffffff" stroke="none">
<path d="M140 420 c0 -13 -7 -20 -20 -20 -11 0 -20 -4 -20 -10 0 -5 9 -10 19
-10 11 0 22 -6 25 -12 5 -10 7 -10 12 0 3 6 14 12 25 12 10 0 19 5 19 10 0 6
-9 10 -20 10 -13 0 -20 7 -20 20 0 11 -4 20 -10 20 -5 0 -10 -9 -10 -20z"/>
<path d="M230 383 c-10 -12 -11 -18 -2 -21 12 -4 18 -62 6 -62 -3 0 -19 14
-36 32 -24 26 -31 29 -40 17 -7 -11 -11 -11 -15 -1 -11 28 -63 1 -63 -32 0 -9
-4 -16 -10 -16 -5 0 -10 -13 -10 -29 0 -16 -6 -31 -12 -34 -7 -2 -10 -8 -6
-12 12 -12 38 22 38 49 0 31 10 33 30 6 15 -21 70 -28 70 -10 0 6 14 10 30 10
l30 0 0 -80 c0 -44 -3 -80 -6 -80 -11 0 -34 29 -34 44 0 9 -4 16 -10 16 -5 0
-10 7 -10 16 0 15 -23 44 -34 44 -12 0 -6 -38 6 -42 9 -3 8 -9 -5 -22 -16 -17
-18 -17 -34 0 -13 13 -14 19 -5 22 12 4 18 42 6 42 -14 0 -34 -31 -34 -54 0
-14 -4 -26 -10 -26 -5 0 -10 -9 -10 -20 0 -11 -4 -20 -10 -20 -5 0 -10 -4 -10
-10 0 -6 39 -10 96 -10 120 0 124 3 124 103 0 51 4 77 13 81 10 5 10 7 0 12
-17 7 -17 61 -1 66 9 3 8 9 -4 21 -20 20 -19 20 -38 0z m30 -13 c0 -5 -4 -10
-10 -10 -5 0 -10 5 -10 10 0 6 5 10 10 10 6 0 10 -4 10 -10z"/>
<path d="M120 190 c0 -5 5 -10 10 -10 6 0 10 5 10 10 0 6 -4 10 -10 10 -5 0
-10 -4 -10 -10z"/>
</g>
</svg>
