<?xml version="1.0" standalone="no"?>
<!DOCTYPE svg PUBLIC "-//W3C//DTD SVG 20010904//EN"
 "http://www.w3.org/TR/2001/REC-SVG-20010904/DTD/svg10.dtd">
<svg version="1.0" xmlns="http://www.w3.org/2000/svg"
 width="32.000000pt" height="48.000000pt" viewBox="0 0 32.000000 48.000000"
 preserveAspectRatio="xMidYMid meet">
<metadata>
Created by potrace 1.10, written by Peter Selinger 2001-2011
</metadata>
<g transform="translate(0.000000,48.000000) scale(0.100000,-0.100000)"
fill="#ffffff" stroke="none">
<path d="M140 440 c0 -22 -16 -27 -23 -7 -2 6 -8 9 -12 5 -5 -5 2 -16 13 -27
12 -10 22 -26 22 -35 0 -9 5 -16 10 -16 6 0 10 7 10 16 0 9 10 25 22 35 11 11
18 22 13 27 -4 4 -10 1 -12 -5 -7 -20 -23 -15 -23 7 0 11 -4 20 -10 20 -5 0
-10 -9 -10 -20z m20 -30 c0 -5 -4 -10 -10 -10 -5 0 -10 5 -10 10 0 6 5 10 10
10 6 0 10 -4 10 -10z"/>
<path d="M240 390 c0 -5 5 -10 10 -10 6 0 10 5 10 10 0 6 -4 10 -10 10 -5 0
-10 -4 -10 -10z"/>
<path d="M93 345 c-7 -8 -13 -21 -13 -30 0 -8 -4 -15 -10 -15 -5 0 -10 -13
-10 -29 0 -16 -6 -31 -12 -34 -7 -2 -10 -8 -6 -12 12 -12 38 22 38 49 0 31 10
33 30 6 20 -28 30 -25 30 10 0 17 5 30 10 30 6 0 10 -13 10 -30 0 -16 5 -30
10 -30 6 0 10 5 10 10 0 15 58 12 62 -2 3 -9 10 -8 23 5 15 16 16 20 4 28 -12
8 -12 10 0 18 12 8 12 12 -2 26 -16 15 -18 15 -33 0 -15 -14 -14 -17 7 -35 12
-11 20 -23 16 -26 -9 -9 -57 42 -57 61 0 18 -36 20 -44 3 -5 -10 -7 -10 -12 0
-8 16 -36 15 -51 -3z m167 -15 c0 -5 -4 -10 -10 -10 -5 0 -10 5 -10 10 0 6 5
10 10 10 6 0 10 -4 10 -10z"/>
<path d="M93 225 c-7 -8 -13 -26 -13 -40 0 -14 -4 -25 -10 -25 -5 0 -10 -9
-10 -20 0 -11 -4 -20 -10 -20 -5 0 -10 -4 -10 -10 0 -6 40 -10 100 -10 55 0
100 4 100 8 0 4 -9 14 -20 22 -11 8 -20 22 -20 32 0 10 -4 18 -10 18 -5 0 -10
7 -10 16 0 15 -23 44 -34 44 -3 0 -6 -13 -6 -30 0 -16 -4 -30 -10 -30 -5 0
-10 14 -10 30 0 33 -8 37 -27 15z"/>
</g>
</svg>
