<?xml version="1.0" standalone="no"?>
<!DOCTYPE svg PUBLIC "-//W3C//DTD SVG 20010904//EN"
 "http://www.w3.org/TR/2001/REC-SVG-20010904/DTD/svg10.dtd">
<svg version="1.0" xmlns="http://www.w3.org/2000/svg"
 width="32.000000pt" height="48.000000pt" viewBox="0 0 32.000000 48.000000"
 preserveAspectRatio="xMidYMid meet">
<metadata>
Created by potrace 1.10, written by Peter Selinger 2001-2011
</metadata>
<g transform="translate(0.000000,48.000000) scale(0.100000,-0.100000)"
fill="#ffffff" stroke="none">
<path d="M80 380 c0 -11 5 -20 10 -20 6 0 10 -9 10 -20 0 -13 7 -20 20 -20 11
0 20 -4 20 -10 0 -5 -18 -10 -40 -10 -22 0 -40 5 -40 10 0 6 -9 10 -20 10 -11
0 -20 -4 -20 -10 0 -5 5 -10 10 -10 6 0 10 -9 10 -20 0 -17 7 -20 40 -20 30 0
40 -4 40 -16 0 -18 -23 -44 -40 -44 -12 0 -40 -24 -40 -34 0 -3 9 -6 20 -6 16
0 20 -7 20 -30 0 -16 5 -30 10 -30 6 0 10 14 10 30 0 17 5 30 10 30 6 0 10 -4
10 -10 0 -5 12 -10 26 -10 15 0 35 -10 45 -22 11 -11 22 -18 26 -15 3 4 -4 15
-15 26 -22 18 -31 71 -12 71 6 0 10 14 10 30 0 17 5 30 10 30 6 0 10 -4 10
-10 0 -5 9 -10 20 -10 13 0 20 -7 20 -20 0 -11 -4 -20 -10 -20 -5 0 -10 -13
-10 -30 0 -16 5 -30 10 -30 6 0 10 14 10 30 0 17 5 30 10 30 6 0 10 9 10 19 0
11 6 22 13 24 9 4 8 8 -3 17 -11 9 -12 13 -2 17 6 2 12 18 12 34 0 16 5 29 10
29 6 0 10 14 10 30 0 17 -4 30 -10 30 -5 0 -10 -13 -10 -30 0 -16 -4 -30 -10
-30 -5 0 -10 -12 -10 -26 0 -29 -21 -54 -44 -54 -9 0 -16 7 -16 16 0 9 -15 30
-32 47 -21 19 -28 32 -20 34 14 5 17 43 2 43 -5 0 -10 -9 -10 -20 0 -16 -7
-20 -30 -20 -23 0 -30 4 -30 20 0 11 -4 20 -10 20 -5 0 -10 -9 -10 -20z"/>
</g>
</svg>
