<?xml version="1.0" standalone="no"?>
<!DOCTYPE svg PUBLIC "-//W3C//DTD SVG 20010904//EN"
 "http://www.w3.org/TR/2001/REC-SVG-20010904/DTD/svg10.dtd">
<svg version="1.0" xmlns="http://www.w3.org/2000/svg"
 width="32.000000pt" height="48.000000pt" viewBox="0 0 32.000000 48.000000"
 preserveAspectRatio="xMidYMid meet">
<metadata>
Created by potrace 1.10, written by Peter Selinger 2001-2011
</metadata>
<g transform="translate(0.000000,48.000000) scale(0.100000,-0.100000)"
fill="#ffffff" stroke="none">
<path d="M280 390 c0 -16 -4 -30 -10 -30 -5 0 -10 -12 -10 -26 0 -26 -20 -54
-40 -54 -17 0 -86 73 -72 78 14 4 16 42 2 42 -5 0 -10 -9 -10 -20 0 -16 -7
-20 -30 -20 -23 0 -30 4 -30 20 0 11 -4 20 -10 20 -5 0 -10 -9 -10 -20 0 -11
5 -20 10 -20 6 0 10 -9 10 -20 0 -13 7 -20 20 -20 11 0 20 -4 20 -10 0 -5 -18
-10 -40 -10 -22 0 -40 5 -40 10 0 6 -9 10 -20 10 -11 0 -20 -4 -20 -10 0 -5 5
-10 10 -10 6 0 10 -9 10 -20 0 -17 7 -20 40 -20 30 0 40 -4 40 -16 0 -20 -24
-44 -44 -44 -22 0 -20 -13 4 -30 12 -8 20 -26 20 -42 0 -15 5 -28 10 -28 6 0
10 14 10 30 0 17 5 30 10 30 6 0 10 -4 10 -10 0 -5 12 -10 26 -10 15 0 35 -10
45 -22 11 -11 22 -18 26 -15 3 4 -4 15 -15 26 -18 15 -22 29 -22 75 0 56 0 56
30 56 23 0 30 -4 30 -20 0 -11 -4 -20 -10 -20 -5 0 -10 -13 -10 -30 0 -16 5
-30 10 -30 6 0 10 14 10 30 0 17 5 30 10 30 6 0 10 9 10 19 0 11 6 22 13 24 9
4 8 8 -3 17 -11 9 -12 13 -2 17 6 2 12 18 12 34 0 16 5 29 10 29 6 0 10 14 10
30 0 17 -4 30 -10 30 -5 0 -10 -13 -10 -30z"/>
</g>
</svg>
