<?xml version="1.0" standalone="no"?>
<!DOCTYPE svg PUBLIC "-//W3C//DTD SVG 20010904//EN"
 "http://www.w3.org/TR/2001/REC-SVG-20010904/DTD/svg10.dtd">
<svg version="1.0" xmlns="http://www.w3.org/2000/svg"
 width="32.000000pt" height="48.000000pt" viewBox="0 0 32.000000 48.000000"
 preserveAspectRatio="xMidYMid meet">
<metadata>
Created by potrace 1.10, written by Peter Selinger 2001-2011
</metadata>
<g transform="translate(0.000000,48.000000) scale(0.100000,-0.100000)"
fill="#ffffff" stroke="none">
<path d="M93 425 c-18 -20 -16 -38 7 -55 11 -8 20 -22 20 -32 0 -11 7 -18 20
-18 11 0 20 -4 20 -10 0 -15 -49 -12 -66 4 -8 8 -14 22 -14 30 0 9 -4 16 -10
16 -5 0 -10 -8 -10 -18 0 -10 -9 -24 -20 -32 -26 -19 -26 -61 0 -80 11 -8 20
-22 20 -32 0 -10 5 -18 10 -18 6 0 10 8 10 18 0 10 9 24 20 32 11 8 20 22 20
32 0 10 5 18 10 18 6 0 10 -13 10 -30 0 -16 -4 -30 -10 -30 -5 0 -10 -13 -10
-30 0 -16 -4 -30 -10 -30 -5 0 -10 -9 -10 -19 0 -11 -6 -21 -12 -24 -7 -2 -10
-8 -6 -12 8 -9 38 18 38 35 0 17 26 40 44 40 9 0 16 -8 16 -20 0 -11 5 -20 10
-20 6 0 10 -9 10 -20 0 -11 5 -20 10 -20 6 0 10 9 10 20 0 11 -4 20 -10 20 -5
0 -10 14 -10 30 0 17 5 30 10 30 6 0 10 14 10 30 0 17 5 30 10 30 6 0 10 -4
10 -10 0 -5 9 -10 20 -10 13 0 20 -7 20 -20 0 -11 5 -20 10 -20 6 0 10 9 10
19 0 11 6 22 13 25 10 5 10 7 0 12 -8 4 -13 27 -13 65 0 33 -4 59 -10 59 -6 0
-10 -27 -10 -60 0 -53 -2 -60 -20 -60 -22 0 -29 35 -8 42 9 3 8 10 -5 22 -10
10 -21 15 -25 12 -3 -4 0 -11 8 -16 8 -5 11 -12 8 -16 -4 -3 -19 6 -33 20
l-27 27 21 18 c12 10 21 24 21 30 0 17 -30 45 -38 36 -4 -4 -1 -10 6 -12 16
-6 15 -31 -2 -49 -29 -28 -86 -8 -86 30 0 9 5 16 10 16 6 0 10 5 10 10 0 14
-13 12 -27 -5z m-13 -155 c0 -5 -4 -10 -10 -10 -5 0 -10 5 -10 10 0 6 5 10 10
10 6 0 10 -4 10 -10z"/>
</g>
</svg>
