<?xml version="1.0" standalone="no"?>
<!DOCTYPE svg PUBLIC "-//W3C//DTD SVG 20010904//EN"
 "http://www.w3.org/TR/2001/REC-SVG-20010904/DTD/svg10.dtd">
<svg version="1.0" xmlns="http://www.w3.org/2000/svg"
 width="32.000000pt" height="48.000000pt" viewBox="0 0 32.000000 48.000000"
 preserveAspectRatio="xMidYMid meet">
<metadata>
Created by potrace 1.10, written by Peter Selinger 2001-2011
</metadata>
<g transform="translate(0.000000,48.000000) scale(0.100000,-0.100000)"
fill="#ffffff" stroke="none">
<path d="M140 450 c0 -5 -13 -10 -30 -10 -27 0 -30 -3 -30 -30 0 -23 5 -30 19
-30 11 0 21 6 24 13 2 6 8 9 12 5 10 -9 -19 -38 -39 -38 -9 0 -16 5 -16 10 0
6 -9 10 -20 10 -16 0 -20 -7 -20 -30 0 -16 -4 -30 -10 -30 -5 0 -10 -18 -10
-40 0 -22 5 -40 10 -40 6 0 10 14 10 30 0 23 4 30 20 30 11 0 20 5 20 10 0 6
5 10 10 10 6 0 10 -9 10 -20 0 -11 -4 -20 -10 -20 -5 0 -10 -13 -10 -30 0 -16
-4 -30 -10 -30 -5 0 -10 -18 -10 -40 0 -22 5 -40 10 -40 6 0 10 -13 10 -30 0
-16 5 -30 10 -30 6 0 10 23 10 50 0 49 1 50 29 50 16 0 31 -5 33 -12 3 -8 15
-2 33 17 19 18 25 30 17 33 -7 2 -12 21 -12 43 0 32 -3 39 -20 39 -11 0 -20 5
-20 10 0 18 31 10 55 -15 27 -26 32 -51 13 -57 -9 -3 -8 -9 4 -21 23 -23 28
-21 28 9 0 16 12 37 31 55 18 16 29 32 25 36 -3 3 -14 -4 -25 -15 -25 -29 -31
-28 -31 8 0 17 -4 30 -10 30 -5 0 -10 7 -10 16 0 20 -24 44 -44 44 -9 0 -16 5
-16 10 0 6 -9 10 -20 10 -11 0 -20 5 -20 10 0 14 38 12 43 -2 2 -7 8 -10 12
-6 10 9 -19 38 -39 38 -9 0 -16 -4 -16 -10z"/>
<path d="M193 165 c-7 -8 -13 -19 -13 -25 0 -16 50 -63 58 -55 4 4 1 10 -5 12
-8 3 -13 22 -13 44 0 41 -7 47 -27 24z"/>
<path d="M132 144 c-11 -12 -10 -17 3 -30 9 -9 19 -13 23 -10 3 4 0 12 -8 17
-11 8 -12 12 -2 16 13 5 17 23 5 23 -5 -1 -14 -7 -21 -16z"/>
</g>
</svg>
