<?xml version="1.0" standalone="no"?>
<!DOCTYPE svg PUBLIC "-//W3C//DTD SVG 20010904//EN"
 "http://www.w3.org/TR/2001/REC-SVG-20010904/DTD/svg10.dtd">
<svg version="1.0" xmlns="http://www.w3.org/2000/svg"
 width="32.000000pt" height="48.000000pt" viewBox="0 0 32.000000 48.000000"
 preserveAspectRatio="xMidYMid meet">
<metadata>
Created by potrace 1.10, written by Peter Selinger 2001-2011
</metadata>
<g transform="translate(0.000000,48.000000) scale(0.100000,-0.100000)"
fill="#ffffff" stroke="none">
<path d="M140 450 c0 -5 -13 -10 -30 -10 -23 0 -30 -4 -30 -20 0 -13 -7 -20
-20 -20 -16 0 -20 -7 -20 -30 0 -16 -4 -30 -10 -30 -5 0 -10 -22 -10 -50 0
-27 5 -50 10 -50 6 0 10 16 10 36 0 19 7 42 15 50 13 14 17 14 30 0 17 -17 20
-46 5 -46 -5 0 -10 -13 -10 -30 0 -16 -4 -30 -10 -30 -5 0 -10 -18 -10 -40 0
-22 5 -40 10 -40 6 0 10 -13 10 -30 0 -16 5 -30 10 -30 6 0 10 23 10 50 0 43
3 50 20 50 22 0 27 -16 8 -22 -9 -3 -8 -10 5 -22 10 -10 21 -15 25 -12 3 4 0
11 -7 16 -11 6 -4 18 30 51 26 25 39 44 32 46 -8 3 -13 21 -13 44 0 32 -3 39
-20 39 -11 0 -20 5 -20 10 0 18 31 10 55 -15 27 -26 32 -51 13 -57 -9 -3 -8
-9 4 -21 23 -23 28 -21 28 9 0 16 12 37 31 55 18 16 29 32 25 36 -3 3 -14 -4
-25 -15 -25 -29 -31 -28 -31 8 0 17 -4 30 -10 30 -5 0 -10 7 -10 16 0 26 -26
44 -64 44 -20 0 -36 5 -36 10 0 6 14 10 30 10 17 0 30 5 30 10 0 6 -13 10 -30
10 -16 0 -30 -4 -30 -10z m0 -56 c0 -3 -6 -12 -14 -20 -17 -16 -46 -19 -46 -4
0 6 9 10 20 10 11 0 20 5 20 10 0 6 5 10 10 10 6 0 10 -3 10 -6z"/>
<path d="M193 185 c-7 -8 -13 -24 -13 -35 0 -23 47 -76 58 -65 4 4 1 10 -5 12
-8 3 -13 24 -13 54 0 51 -6 58 -27 34z"/>
</g>
</svg>
