<?xml version="1.0" standalone="no"?>
<!DOCTYPE svg PUBLIC "-//W3C//DTD SVG 20010904//EN"
 "http://www.w3.org/TR/2001/REC-SVG-20010904/DTD/svg10.dtd">
<svg version="1.0" xmlns="http://www.w3.org/2000/svg"
 width="32.000000pt" height="48.000000pt" viewBox="0 0 32.000000 48.000000"
 preserveAspectRatio="xMidYMid meet">
<metadata>
Created by potrace 1.10, written by Peter Selinger 2001-2011
</metadata>
<g transform="translate(0.000000,48.000000) scale(0.100000,-0.100000)"
fill="#ffffff" stroke="none">
<path d="M140 390 c0 -23 4 -30 20 -30 16 0 20 7 20 30 0 23 -4 30 -20 30 -16
0 -20 -7 -20 -30z"/>
<path d="M73 385 c-7 -8 -13 -21 -13 -30 0 -8 -4 -15 -10 -15 -5 0 -10 -22
-10 -50 0 -27 5 -50 10 -50 6 0 10 5 10 10 0 15 29 12 46 -4 16 -17 19 -66 4
-66 -5 0 -10 -13 -10 -30 0 -16 -4 -30 -10 -30 -5 0 -10 -9 -10 -20 0 -18 7
-20 80 -20 73 0 80 2 80 20 0 11 -4 20 -10 20 -5 0 -10 14 -10 30 0 17 -4 30
-10 30 -15 0 -12 49 4 66 21 21 46 17 46 -6 0 -11 5 -20 10 -20 6 0 10 27 10
60 0 33 -4 60 -10 60 -5 0 -10 7 -10 16 0 20 -24 44 -44 44 -9 0 -16 -8 -16
-19 0 -11 -6 -21 -12 -24 -9 -3 -6 -11 10 -24 22 -21 30 -53 12 -53 -5 0 -10
7 -10 16 0 18 -23 44 -40 44 -17 0 -40 -26 -40 -44 0 -9 -4 -16 -10 -16 -18 0
-10 32 13 53 15 13 18 21 10 24 -7 3 -13 13 -13 24 0 22 -29 25 -47 4z"/>
</g>
</svg>
