<?xml version="1.0" standalone="no"?>
<!DOCTYPE svg PUBLIC "-//W3C//DTD SVG 20010904//EN"
 "http://www.w3.org/TR/2001/REC-SVG-20010904/DTD/svg10.dtd">
<svg version="1.0" xmlns="http://www.w3.org/2000/svg"
 width="32.000000pt" height="48.000000pt" viewBox="0 0 32.000000 48.000000"
 preserveAspectRatio="xMidYMid meet">
<metadata>
Created by potrace 1.10, written by Peter Selinger 2001-2011
</metadata>
<g transform="translate(0.000000,48.000000) scale(0.100000,-0.100000)"
fill="#ffffff" stroke="none">
<path d="M123 315 c-13 -13 -23 -36 -23 -50 0 -14 -4 -25 -10 -25 -5 0 -10
-13 -10 -30 0 -16 5 -30 10 -30 6 0 10 -7 10 -16 0 -25 26 -44 60 -44 34 0 60
19 60 44 0 9 5 16 10 16 6 0 10 14 10 30 0 17 -4 30 -10 30 -5 0 -10 11 -10
25 0 27 -40 75 -62 74 -7 0 -23 -11 -35 -24z"/>
</g>
</svg>
