<?xml version="1.0" standalone="no"?>
<!DOCTYPE svg PUBLIC "-//W3C//DTD SVG 20010904//EN"
 "http://www.w3.org/TR/2001/REC-SVG-20010904/DTD/svg10.dtd">
<svg version="1.0" xmlns="http://www.w3.org/2000/svg"
 width="32.000000pt" height="48.000000pt" viewBox="0 0 32.000000 48.000000"
 preserveAspectRatio="xMidYMid meet">
<metadata>
Created by potrace 1.10, written by Peter Selinger 2001-2011
</metadata>
<g transform="translate(0.000000,48.000000) scale(0.100000,-0.100000)"
fill="#ffffff" stroke="none">
<path d="M126 337 c-12 -15 -20 -18 -23 -9 -8 20 -43 15 -43 -7 0 -11 6 -21
13 -24 8 -3 5 -11 -10 -24 -29 -26 -29 -40 0 -66 15 -13 18 -21 10 -24 -7 -3
-13 -13 -13 -24 0 -22 35 -27 43 -6 3 8 11 5 24 -10 26 -29 40 -29 66 -1 13
16 21 19 24 11 3 -7 13 -13 24 -13 22 0 27 35 7 43 -9 3 -6 11 10 24 28 26 28
40 0 66 -16 13 -19 21 -10 24 20 8 15 43 -7 43 -11 0 -21 -6 -24 -12 -3 -9
-11 -6 -24 10 -26 28 -43 28 -67 -1z m66 -19 c16 -19 21 -20 28 -8 5 8 12 11
17 7 4 -5 1 -12 -7 -17 -12 -7 -11 -12 8 -28 12 -11 22 -25 22 -32 0 -7 -10
-21 -22 -32 -19 -16 -20 -21 -8 -28 8 -5 11 -12 7 -17 -5 -4 -12 -1 -17 7 -7
12 -12 11 -28 -8 -24 -28 -40 -28 -64 0 -16 19 -21 20 -28 8 -5 -8 -12 -11
-17 -7 -4 5 -1 12 7 17 12 7 11 12 -8 28 -28 24 -28 40 0 64 19 16 20 21 8 28
-8 5 -11 12 -7 17 5 4 12 1 17 -7 8 -13 12 -11 27 7 23 29 41 29 65 1z"/>
<path d="M113 285 c-18 -19 -33 -39 -33 -45 0 -14 66 -80 80 -80 14 0 80 66
80 80 0 15 -67 80 -82 79 -7 0 -28 -16 -45 -34z m82 -10 c14 -13 25 -29 25
-35 0 -14 -46 -60 -60 -60 -14 0 -60 46 -60 60 0 15 42 59 58 59 7 1 24 -10
37 -24z"/>
<path d="M133 265 c-7 -8 -13 -19 -13 -25 0 -15 25 -40 40 -40 15 0 40 25 40
40 0 16 -26 40 -42 40 -7 -1 -19 -7 -25 -15z"/>
</g>
</svg>
