<?xml version="1.0" standalone="no"?>
<!DOCTYPE svg PUBLIC "-//W3C//DTD SVG 20010904//EN"
 "http://www.w3.org/TR/2001/REC-SVG-20010904/DTD/svg10.dtd">
<svg version="1.0" xmlns="http://www.w3.org/2000/svg"
 width="32.000000pt" height="48.000000pt" viewBox="0 0 32.000000 48.000000"
 preserveAspectRatio="xMidYMid meet">
<metadata>
Created by potrace 1.10, written by Peter Selinger 2001-2011
</metadata>
<g transform="translate(0.000000,48.000000) scale(0.100000,-0.100000)"
fill="#ffffff" stroke="none">
<path d="M113 445 c-15 -17 -17 -45 -3 -45 6 0 10 5 10 10 0 15 58 12 63 -2 2
-7 8 -10 12 -6 9 9 -40 58 -57 58 -7 -1 -19 -7 -25 -15z"/>
<path d="M60 240 l0 -140 90 0 c50 0 90 3 90 6 0 20 -34 34 -84 34 l-56 0 0
40 0 40 46 0 c40 0 74 16 74 34 0 3 -27 6 -60 6 l-60 0 0 40 0 40 60 0 c53 0
60 2 60 20 0 18 -7 20 -80 20 l-80 0 0 -140z"/>
</g>
</svg>
