<?xml version="1.0" standalone="no"?>
<!DOCTYPE svg PUBLIC "-//W3C//DTD SVG 20010904//EN"
 "http://www.w3.org/TR/2001/REC-SVG-20010904/DTD/svg10.dtd">
<svg version="1.0" xmlns="http://www.w3.org/2000/svg"
 width="32.000000pt" height="48.000000pt" viewBox="0 0 32.000000 48.000000"
 preserveAspectRatio="xMidYMid meet">
<metadata>
Created by potrace 1.10, written by Peter Selinger 2001-2011
</metadata>
<g transform="translate(0.000000,48.000000) scale(0.100000,-0.100000)"
fill="#ffffff" stroke="none">
<path d="M53 405 c-7 -8 -13 -19 -13 -25 0 -15 25 -40 40 -40 17 0 40 -26 40
-44 0 -9 5 -16 10 -16 6 0 10 -9 10 -20 0 -26 -8 -25 -31 2 -11 11 -22 18 -26
15 -3 -4 4 -15 15 -26 12 -10 22 -26 22 -35 0 -9 5 -16 10 -16 6 0 10 -9 10
-20 0 -11 5 -20 10 -20 6 0 10 27 10 60 0 33 4 60 10 60 6 0 10 14 10 30 0 17
-4 30 -10 30 -5 0 -10 -13 -10 -30 0 -16 -4 -30 -10 -30 -5 0 -10 7 -10 16 0
9 -10 26 -22 37 -16 13 -19 21 -10 24 16 6 15 31 -2 49 -18 18 -37 17 -53 -1z"/>
<path d="M213 385 c-7 -8 -13 -19 -13 -25 0 -15 25 -40 40 -40 15 0 40 25 40
40 0 16 -26 40 -42 40 -7 -1 -19 -7 -25 -15z"/>
<path d="M200 270 c0 -16 -4 -30 -10 -30 -5 0 -10 -22 -10 -50 0 -27 5 -50 10
-50 6 0 10 9 10 20 0 11 5 20 10 20 6 0 10 7 10 16 0 8 19 33 41 55 23 22 39
43 36 46 -4 3 -20 -8 -36 -26 -36 -39 -41 -39 -41 -1 0 17 -4 30 -10 30 -5 0
-10 -13 -10 -30z m20 -40 c0 -5 -4 -10 -10 -10 -5 0 -10 5 -10 10 0 6 5 10 10
10 6 0 10 -4 10 -10z"/>
<path d="M20 270 c0 -5 5 -10 10 -10 6 0 10 -9 10 -20 0 -11 5 -20 10 -20 6 0
10 -9 10 -20 0 -11 5 -20 10 -20 6 0 10 -9 10 -20 0 -11 5 -20 10 -20 6 0 10
9 10 20 0 11 -4 20 -10 20 -5 0 -10 9 -10 20 0 11 -4 20 -10 20 -5 0 -10 7
-10 16 0 15 -23 44 -34 44 -3 0 -6 -4 -6 -10z"/>
</g>
</svg>
