<?xml version="1.0" standalone="no"?>
<!DOCTYPE svg PUBLIC "-//W3C//DTD SVG 20010904//EN"
 "http://www.w3.org/TR/2001/REC-SVG-20010904/DTD/svg10.dtd">
<svg version="1.0" xmlns="http://www.w3.org/2000/svg"
 width="32.000000pt" height="48.000000pt" viewBox="0 0 32.000000 48.000000"
 preserveAspectRatio="xMidYMid meet">
<metadata>
Created by potrace 1.10, written by Peter Selinger 2001-2011
</metadata>
<g transform="translate(0.000000,48.000000) scale(0.100000,-0.100000)"
fill="#ffffff" stroke="none">
<path d="M93 445 c-15 -17 -17 -45 -3 -45 6 0 10 5 10 10 0 15 58 12 62 -2 3
-9 9 -8 21 4 24 23 21 28 -13 28 -16 0 -30 5 -30 10 0 15 -33 11 -47 -5z"/>
<path d="M100 370 c0 -5 -9 -10 -20 -10 -13 0 -20 -7 -20 -20 0 -11 -4 -20
-10 -20 -6 0 -10 -33 -10 -80 0 -47 4 -80 10 -80 6 0 10 -7 10 -16 0 -29 27
-44 80 -44 41 0 56 5 75 25 14 13 25 36 25 50 0 14 5 25 10 25 6 0 10 18 10
40 0 22 -4 40 -10 40 -5 0 -10 11 -10 25 0 42 -41 75 -95 75 -25 0 -45 -4 -45
-10z m60 -20 c0 -5 9 -10 20 -10 16 0 20 -7 20 -30 0 -16 5 -30 10 -30 6 0 10
-18 10 -40 0 -22 -4 -40 -10 -40 -5 0 -10 -13 -10 -30 0 -23 -4 -30 -20 -30
-11 0 -20 -4 -20 -10 0 -18 -31 -10 -55 15 -22 21 -25 33 -25 95 0 60 4 75 23
95 22 24 57 33 57 15z"/>
</g>
</svg>
