<?xml version="1.0" standalone="no"?>
<!DOCTYPE svg PUBLIC "-//W3C//DTD SVG 20010904//EN"
 "http://www.w3.org/TR/2001/REC-SVG-20010904/DTD/svg10.dtd">
<svg version="1.0" xmlns="http://www.w3.org/2000/svg"
 width="32.000000pt" height="48.000000pt" viewBox="0 0 32.000000 48.000000"
 preserveAspectRatio="xMidYMid meet">
<metadata>
Created by potrace 1.10, written by Peter Selinger 2001-2011
</metadata>
<g transform="translate(0.000000,48.000000) scale(0.100000,-0.100000)"
fill="#ffffff" stroke="none">
<path d="M220 390 c0 -6 -27 -10 -60 -10 -33 0 -60 -4 -60 -10 0 -5 -9 -10
-20 -10 -13 0 -20 -7 -20 -20 0 -11 -4 -20 -10 -20 -6 0 -10 -33 -10 -80 0
-47 4 -80 10 -80 6 0 10 -9 10 -20 0 -11 -4 -20 -10 -20 -5 0 -10 -9 -10 -20
0 -11 5 -20 10 -20 6 0 10 5 10 10 0 6 28 10 65 10 57 0 69 3 90 25 14 13 25
31 25 40 0 8 5 15 10 15 6 0 10 27 10 60 0 33 -4 60 -10 60 -5 0 -10 9 -10 19
0 11 -6 22 -12 25 -10 5 -10 7 0 12 14 7 16 44 2 44 -5 0 -10 -4 -10 -10z
m-40 -58 c0 -16 -8 -34 -20 -42 -11 -8 -20 -21 -20 -30 0 -9 -9 -22 -20 -30
-11 -8 -20 -22 -20 -32 0 -10 -4 -18 -10 -18 -6 0 -10 28 -10 65 0 54 4 70 23
90 12 13 34 24 50 24 23 1 27 -3 27 -27z m40 -82 c0 -27 -4 -50 -10 -50 -5 0
-10 -13 -10 -30 0 -23 -4 -30 -20 -30 -11 0 -20 -4 -20 -10 0 -16 -30 -12 -48
7 -12 12 -13 18 -4 21 6 2 12 11 12 21 0 9 9 23 20 31 11 8 20 22 20 32 0 10
5 18 10 18 6 0 10 9 10 20 0 13 7 20 20 20 17 0 20 -7 20 -50z"/>
</g>
</svg>
