<?xml version="1.0" standalone="no"?>
<!DOCTYPE svg PUBLIC "-//W3C//DTD SVG 20010904//EN"
 "http://www.w3.org/TR/2001/REC-SVG-20010904/DTD/svg10.dtd">
<svg version="1.0" xmlns="http://www.w3.org/2000/svg"
 width="32.000000pt" height="48.000000pt" viewBox="0 0 32.000000 48.000000"
 preserveAspectRatio="xMidYMid meet">
<metadata>
Created by potrace 1.10, written by Peter Selinger 2001-2011
</metadata>
<g transform="translate(0.000000,48.000000) scale(0.100000,-0.100000)"
fill="#ffffff" stroke="none">
<path d="M40 440 c0 -11 5 -20 10 -20 15 0 12 -29 -4 -46 -8 -8 -22 -14 -30
-14 -9 0 -16 -8 -16 -20 0 -16 7 -20 30 -20 23 0 30 -4 30 -20 0 -11 -4 -20
-10 -20 -5 0 -10 -16 -10 -36 0 -27 7 -43 30 -64 16 -15 30 -35 30 -44 0 -9 5
-16 10 -16 6 0 10 -13 10 -30 0 -16 5 -30 10 -30 6 0 10 14 10 30 0 17 -4 30
-10 30 -15 0 -12 29 4 46 8 8 31 14 50 14 28 0 36 -4 36 -18 0 -10 9 -24 20
-32 12 -8 20 -26 20 -42 0 -15 5 -28 10 -28 6 0 10 35 10 85 0 78 -2 88 -25
110 -25 25 -95 36 -95 15 0 -5 -4 -10 -10 -10 -5 0 -10 8 -10 18 0 10 -9 24
-20 32 -11 8 -20 22 -20 32 0 10 -4 18 -10 18 -5 0 -10 14 -10 30 0 17 -4 30
-10 30 -5 0 -10 9 -10 20 0 11 -4 20 -10 20 -5 0 -10 -9 -10 -20z"/>
<path d="M100 370 c0 -5 5 -10 10 -10 6 0 10 -7 10 -16 0 -20 24 -44 44 -44
23 0 20 6 -19 45 -36 37 -45 42 -45 25z"/>
<path d="M260 282 c0 -10 9 -24 20 -32 12 -8 20 -26 20 -42 0 -15 5 -28 10
-28 6 0 10 14 10 30 0 17 -4 30 -10 30 -5 0 -10 7 -10 16 0 15 -23 44 -34 44
-3 0 -6 -8 -6 -18z"/>
<path d="M40 161 c0 -11 -5 -21 -12 -23 -8 -3 -2 -15 15 -32 16 -16 31 -25 34
-22 4 3 -5 16 -18 27 -16 15 -20 23 -11 26 14 5 16 43 2 43 -5 0 -10 -9 -10
-19z"/>
<path d="M180 152 c0 -4 9 -14 20 -22 12 -8 20 -26 20 -42 0 -15 5 -28 10 -28
20 0 10 51 -15 75 -25 26 -35 31 -35 17z"/>
</g>
</svg>
