<?xml version="1.0" standalone="no"?>
<!DOCTYPE svg PUBLIC "-//W3C//DTD SVG 20010904//EN"
 "http://www.w3.org/TR/2001/REC-SVG-20010904/DTD/svg10.dtd">
<svg version="1.0" xmlns="http://www.w3.org/2000/svg"
 width="32.000000pt" height="48.000000pt" viewBox="0 0 32.000000 48.000000"
 preserveAspectRatio="xMidYMid meet">
<metadata>
Created by potrace 1.10, written by Peter Selinger 2001-2011
</metadata>
<g transform="translate(0.000000,48.000000) scale(0.100000,-0.100000)"
fill="#ffffff" stroke="none">
<path d="M121 434 c-12 -14 -20 -28 -16 -32 4 -4 10 -1 12 6 3 6 11 12 20 12
14 0 43 23 43 34 0 15 -38 2 -59 -20z"/>
<path d="M40 362 c0 -10 9 -24 20 -32 11 -8 20 -21 20 -30 0 -9 9 -22 20 -30
17 -12 20 -26 20 -92 0 -71 2 -78 20 -78 18 0 20 7 20 70 0 40 4 70 10 70 6 0
10 8 10 18 0 10 9 24 20 32 11 8 20 21 20 30 0 9 9 22 20 30 24 17 26 30 5 30
-18 0 -65 -44 -65 -60 0 -17 -26 -40 -44 -40 -9 0 -16 8 -16 20 0 11 -4 20
-10 20 -5 0 -10 7 -10 16 0 20 -24 44 -44 44 -9 0 -16 -8 -16 -18z"/>
</g>
</svg>
