<?xml version="1.0" standalone="no"?>
<!DOCTYPE svg PUBLIC "-//W3C//DTD SVG 20010904//EN"
 "http://www.w3.org/TR/2001/REC-SVG-20010904/DTD/svg10.dtd">
<svg version="1.0" xmlns="http://www.w3.org/2000/svg"
 width="32.000000pt" height="48.000000pt" viewBox="0 0 32.000000 48.000000"
 preserveAspectRatio="xMidYMid meet">
<metadata>
Created by potrace 1.10, written by Peter Selinger 2001-2011
</metadata>
<g transform="translate(0.000000,48.000000) scale(0.100000,-0.100000)"
fill="#ffffff" stroke="none">
<path d="M160 321 c0 -11 6 -21 13 -24 6 -2 9 -8 5 -12 -5 -5 -16 2 -27 13
-21 26 -37 28 -57 8 -17 -18 -18 -43 -1 -49 7 -2 8 -8 3 -13 -5 -5 -11 -4 -13
4 -7 18 -23 15 -23 -6 0 -10 -9 -24 -20 -32 -36 -26 -15 -70 33 -70 14 0 27
-6 30 -12 2 -7 8 -9 13 -5 5 4 2 12 -6 17 -8 5 -11 12 -7 16 4 4 15 -3 26 -14
20 -24 66 -30 74 -9 4 9 8 8 17 -3 9 -11 13 -12 17 -2 2 6 18 12 34 12 33 0
35 5 15 26 -21 21 -46 17 -46 -6 0 -11 -4 -20 -10 -20 -5 0 -10 9 -10 19 0 11
-6 21 -12 24 -7 2 -9 8 -5 13 4 5 13 2 18 -6 8 -11 12 -12 16 -2 2 6 13 12 24
12 25 0 24 12 -1 30 -11 8 -20 22 -20 32 0 10 -4 18 -10 18 -5 0 -10 7 -10 16
0 8 -6 22 -14 30 -21 20 -46 17 -46 -5z"/>
</g>
</svg>
