<?xml version="1.0" standalone="no"?>
<!DOCTYPE svg PUBLIC "-//W3C//DTD SVG 20010904//EN"
 "http://www.w3.org/TR/2001/REC-SVG-20010904/DTD/svg10.dtd">
<svg version="1.0" xmlns="http://www.w3.org/2000/svg"
 width="32.000000pt" height="48.000000pt" viewBox="0 0 32.000000 48.000000"
 preserveAspectRatio="xMidYMid meet">
<metadata>
Created by potrace 1.10, written by Peter Selinger 2001-2011
</metadata>
<g transform="translate(0.000000,48.000000) scale(0.100000,-0.100000)"
fill="#ffffff" stroke="none">
<path d="M0 471 c0 -5 6 -12 13 -14 9 -4 8 -8 -3 -16 -13 -10 -13 -12 0 -21
13 -9 13 -11 0 -20 -13 -9 -13 -11 0 -20 13 -9 13 -11 0 -20 -13 -9 -13 -11 0
-20 13 -9 13 -11 0 -20 -13 -9 -13 -11 0 -21 11 -8 12 -12 3 -16 -8 -3 -13
-23 -13 -49 0 -38 5 -50 35 -79 26 -27 43 -35 70 -35 31 0 35 3 35 26 0 16
-12 37 -30 54 -17 15 -30 33 -30 40 0 6 -7 19 -16 27 -13 14 -17 14 -24 2 -5
-7 -12 -10 -16 -7 -3 4 1 15 11 24 14 15 18 15 26 3 8 -12 10 -12 19 1 9 13
11 13 20 0 9 -13 11 -13 20 0 9 13 11 13 20 0 9 -13 11 -13 20 0 9 13 11 13
20 0 9 -13 11 -13 20 0 9 13 11 13 20 0 9 -13 11 -13 20 0 9 13 11 13 20 0 9
-13 11 -13 19 0 6 8 13 11 17 8 3 -4 -1 -15 -11 -24 -13 -14 -18 -15 -25 -4
-6 10 -14 7 -34 -13 -31 -31 -33 -48 -6 -67 11 -8 20 -22 20 -32 0 -25 6 -23
45 17 36 35 46 79 23 88 -10 4 -9 8 2 16 13 10 13 12 0 21 -13 9 -13 11 0 20
13 9 13 11 0 20 -13 9 -13 11 0 20 13 9 13 11 0 20 -13 9 -13 11 0 20 13 9 13
11 0 20 -13 9 -13 11 -1 19 12 8 11 12 -3 27 -15 14 -19 15 -27 3 -8 -12 -10
-12 -19 1 -9 13 -11 13 -20 0 -9 -13 -11 -13 -20 0 -9 13 -11 13 -20 0 -9 -13
-11 -13 -20 0 -9 13 -11 13 -20 0 -9 -13 -11 -13 -20 0 -9 13 -11 13 -20 0 -9
-13 -11 -13 -20 0 -9 13 -11 13 -20 0 -9 -13 -11 -13 -20 0 -9 13 -11 13 -21
0 -8 -11 -12 -12 -16 -2 -5 14 -23 16 -23 3z m63 -23 c4 -10 8 -9 16 2 10 13
12 13 21 0 9 -13 11 -13 20 0 9 13 11 13 20 0 9 -13 11 -13 20 0 9 13 11 13
20 0 9 -13 11 -13 20 0 9 13 11 13 20 0 9 -13 11 -13 20 0 9 13 11 13 20 0 9
-13 11 -13 19 0 6 8 13 11 18 7 4 -5 1 -12 -7 -18 -13 -8 -13 -10 0 -19 13 -9
13 -11 0 -20 -13 -9 -13 -11 0 -20 13 -9 13 -11 0 -20 -13 -9 -13 -11 -1 -19
12 -8 11 -12 -3 -27 -15 -14 -19 -15 -27 -3 -8 12 -10 12 -19 -1 -9 -13 -11
-13 -20 0 -9 13 -11 13 -20 0 -9 -13 -11 -13 -20 0 -9 13 -11 13 -20 0 -9 -13
-11 -13 -20 0 -9 13 -11 13 -20 0 -9 -13 -11 -13 -20 0 -9 13 -11 13 -20 0 -9
-13 -11 -13 -20 0 -9 13 -11 13 -19 0 -6 -8 -13 -11 -18 -7 -4 5 -1 12 7 18
13 8 13 10 0 19 -13 9 -13 11 0 20 13 9 13 11 0 20 -13 9 -13 11 0 20 13 8 13
11 1 19 -12 8 -12 11 0 25 17 19 26 20 32 4z"/>
<path d="M40 431 c0 -5 6 -12 13 -14 9 -4 8 -8 -3 -16 -13 -10 -13 -12 0 -21
13 -9 13 -11 1 -19 -12 -8 -11 -12 3 -27 15 -14 19 -15 27 -3 8 12 10 12 19
-1 9 -13 11 -13 20 0 9 13 11 13 20 0 9 -13 11 -13 20 0 9 13 11 13 20 0 9
-13 11 -13 20 0 9 13 11 13 20 0 9 -13 11 -13 20 0 9 13 11 13 19 0 6 -8 13
-11 18 -7 4 5 1 12 -7 18 -13 8 -13 10 0 19 13 9 13 11 0 20 -13 9 -13 11 -1
19 12 8 11 12 -3 27 -15 14 -19 15 -27 3 -8 -12 -10 -12 -19 1 -9 13 -11 13
-20 0 -9 -13 -11 -13 -20 0 -9 13 -11 13 -20 0 -9 -13 -11 -13 -20 0 -9 13
-11 13 -20 0 -9 -13 -11 -13 -20 0 -9 13 -11 13 -21 0 -8 -11 -12 -12 -16 -2
-5 14 -23 16 -23 3z m63 -23 c4 -10 8 -9 16 2 10 13 12 13 21 0 9 -13 11 -13
20 0 9 13 11 13 20 0 9 -13 11 -13 20 0 9 13 11 13 20 0 9 -13 11 -13 19 0 6
8 13 11 18 7 4 -5 1 -12 -7 -18 -13 -8 -13 -10 -1 -18 12 -8 11 -12 -3 -27
-15 -14 -19 -15 -27 -3 -8 12 -10 12 -19 -1 -9 -13 -11 -13 -20 0 -9 13 -11
13 -20 0 -9 -13 -11 -13 -20 0 -9 13 -11 13 -20 0 -9 -13 -11 -13 -20 0 -9 13
-11 13 -19 0 -6 -8 -13 -11 -18 -7 -4 5 -1 12 7 18 13 8 13 10 1 18 -12 8 -12
11 0 25 17 19 26 20 32 4z"/>
<path d="M80 394 c0 -3 7 -13 16 -21 13 -14 17 -14 25 -2 8 12 10 12 19 -1 9
-13 11 -13 20 0 9 13 11 13 20 0 9 -13 11 -13 20 0 9 13 11 13 19 0 6 -8 13
-11 17 -8 3 4 -1 15 -11 24 -14 15 -18 15 -26 3 -8 -12 -10 -12 -19 1 -9 13
-11 13 -20 0 -9 -13 -11 -13 -20 0 -9 13 -11 13 -21 0 -8 -11 -12 -12 -16 -2
-5 12 -23 17 -23 6z"/>
<path d="M80 270 c0 -5 5 -10 10 -10 6 0 10 -7 10 -15 0 -9 11 -27 25 -41 22
-22 27 -23 40 -10 8 8 15 20 15 27 0 6 10 20 22 30 11 11 18 22 14 26 -4 4
-11 1 -17 -7 -8 -13 -10 -13 -19 0 -9 13 -11 13 -20 0 -9 -13 -11 -13 -20 0
-9 13 -11 13 -21 0 -8 -11 -12 -12 -16 -2 -6 14 -23 16 -23 2z"/>
<path d="M173 185 c-20 -22 -15 -54 12 -81 22 -22 27 -23 40 -10 17 17 20 46
5 46 -5 0 -10 7 -10 16 0 13 -23 45 -32 44 -2 -1 -9 -7 -15 -15z"/>
<path d="M283 155 c-13 -13 -23 -30 -23 -36 0 -6 -10 -21 -22 -32 -16 -13 -19
-21 -10 -24 6 -3 12 -11 12 -20 0 -22 26 -43 54 -43 l26 0 0 90 c0 50 -3 90
-7 89 -5 0 -18 -11 -30 -24z"/>
<path d="M0 80 l0 -80 40 0 c33 0 40 3 40 20 0 11 5 20 10 20 6 0 10 9 10 20
0 11 5 20 10 20 6 0 10 5 10 10 0 6 -12 10 -26 10 -16 0 -37 12 -54 30 -15 17
-31 30 -34 30 -3 0 -6 -36 -6 -80z"/>
<path d="M140 100 c0 -11 -4 -20 -10 -20 -5 0 -10 -9 -10 -20 0 -11 -4 -20
-10 -20 -5 0 -10 -9 -10 -20 0 -18 7 -20 70 -20 40 0 70 4 70 10 0 6 -4 10
-10 10 -5 0 -10 7 -10 15 0 14 -62 85 -75 85 -3 0 -5 -9 -5 -20z"/>
</g>
</svg>
