<?xml version="1.0" standalone="no"?>
<!DOCTYPE svg PUBLIC "-//W3C//DTD SVG 20010904//EN"
 "http://www.w3.org/TR/2001/REC-SVG-20010904/DTD/svg10.dtd">
<svg version="1.0" xmlns="http://www.w3.org/2000/svg"
 width="32.000000pt" height="48.000000pt" viewBox="0 0 32.000000 48.000000"
 preserveAspectRatio="xMidYMid meet">
<metadata>
Created by potrace 1.10, written by Peter Selinger 2001-2011
</metadata>
<g transform="translate(0.000000,48.000000) scale(0.100000,-0.100000)"
fill="#ffffff" stroke="none">
<path d="M112 364 c-11 -12 -10 -17 2 -30 14 -14 18 -14 31 0 8 8 15 22 15 30
0 20 -31 20 -48 0z"/>
<path d="M162 334 c-20 -21 -21 -26 -8 -39 8 -8 20 -15 26 -15 15 0 40 25 40
40 0 11 -24 41 -32 39 -2 0 -13 -11 -26 -25z"/>
<path d="M43 295 c-13 -13 -23 -27 -23 -30 0 -3 18 -5 40 -5 38 0 54 13 28 23
-7 2 -10 8 -6 12 4 4 21 -6 37 -24 16 -17 36 -31 45 -31 23 0 20 6 -19 45 -40
41 -71 44 -102 10z"/>
<path d="M223 295 c-30 -32 -29 -41 8 -76 18 -16 29 -32 26 -36 -4 -3 -20 8
-36 26 -34 36 -41 38 -41 12 0 -11 -6 -21 -12 -24 -8 -2 -1 -16 20 -35 31 -29
33 -33 17 -48 -9 -9 -19 -13 -23 -10 -3 4 0 11 7 16 11 6 8 14 -13 35 -23 23
-28 24 -41 11 -18 -18 -19 -43 -2 -49 6 -2 9 -8 5 -12 -6 -7 -58 37 -58 50 0
3 7 5 15 5 9 0 27 11 41 25 l25 25 -27 27 c-18 18 -29 23 -32 15 -2 -7 -21
-12 -43 -12 -43 0 -52 -18 -24 -47 14 -13 19 -11 45 17 17 18 33 30 37 26 3
-3 -4 -14 -15 -25 -12 -10 -22 -25 -22 -34 0 -8 -5 -17 -12 -19 -7 -3 4 -20
27 -43 23 -23 40 -34 43 -27 5 16 39 16 44 0 3 -8 15 -2 33 17 19 18 25 30 17
33 -17 5 -15 22 4 22 20 0 44 24 44 44 0 9 5 16 10 16 6 0 10 9 10 20 0 11 -4
20 -10 20 -5 0 -10 7 -10 16 0 13 -23 45 -32 43 -2 0 -13 -11 -25 -24z"/>
</g>
</svg>
