<?xml version="1.0" standalone="no"?>
<!DOCTYPE svg PUBLIC "-//W3C//DTD SVG 20010904//EN"
 "http://www.w3.org/TR/2001/REC-SVG-20010904/DTD/svg10.dtd">
<svg version="1.0" xmlns="http://www.w3.org/2000/svg"
 width="32.000000pt" height="48.000000pt" viewBox="0 0 32.000000 48.000000"
 preserveAspectRatio="xMidYMid meet">
<metadata>
Created by potrace 1.10, written by Peter Selinger 2001-2011
</metadata>
<g transform="translate(0.000000,48.000000) scale(0.100000,-0.100000)"
fill="#ffffff" stroke="none">
<path d="M100 430 c0 -5 -7 -10 -16 -10 -20 0 -44 -24 -44 -44 0 -9 -4 -16
-10 -16 -6 0 -10 -60 -10 -160 0 -100 4 -160 10 -160 6 0 10 60 10 160 0 100
4 160 10 160 6 0 10 9 10 20 0 13 7 20 20 20 11 0 20 5 20 10 0 6 30 10 70 10
40 0 70 -4 70 -10 0 -5 9 -10 20 -10 13 0 20 -7 20 -20 0 -11 5 -20 10 -20 6
0 10 -60 10 -160 0 -100 4 -160 10 -160 6 0 10 60 10 160 0 100 -4 160 -10
160 -5 0 -10 7 -10 16 0 20 -24 44 -44 44 -9 0 -16 5 -16 10 0 6 -30 10 -70
10 -40 0 -70 -4 -70 -10z"/>
<path d="M120 330 c0 -27 -4 -50 -10 -50 -5 0 -10 18 -10 40 0 22 -4 40 -10
40 -5 0 -10 -18 -10 -39 0 -22 -6 -42 -12 -45 -10 -5 -10 -7 0 -12 6 -3 12
-18 12 -34 0 -16 -6 -31 -12 -34 -10 -5 -10 -7 0 -12 6 -3 12 -18 12 -34 0
-16 -6 -31 -12 -34 -10 -5 -10 -7 0 -12 6 -3 12 -19 12 -35 0 -16 5 -29 10
-29 6 0 10 14 10 30 0 17 5 30 10 30 6 0 10 -13 10 -30 0 -16 5 -30 10 -30 6
0 10 14 10 30 0 17 5 30 10 30 6 0 10 -13 10 -30 0 -16 5 -30 10 -30 6 0 10
14 10 30 0 17 5 30 10 30 6 0 10 -13 10 -30 0 -16 5 -30 10 -30 6 0 10 14 10
30 0 17 5 30 10 30 6 0 10 -13 10 -30 0 -16 5 -30 10 -30 6 0 10 13 10 29 0
16 6 32 13 35 10 5 10 7 0 12 -7 3 -13 18 -13 34 0 16 6 31 13 34 10 5 10 7 0
12 -17 7 -17 61 0 68 10 5 10 7 0 12 -7 3 -13 23 -13 45 0 21 -4 39 -10 39 -5
0 -10 -18 -10 -40 0 -22 -4 -40 -10 -40 -5 0 -10 23 -10 50 0 28 -4 50 -10 50
-5 0 -10 -22 -10 -50 0 -27 -4 -50 -10 -50 -5 0 -10 23 -10 50 0 28 -4 50 -10
50 -5 0 -10 -22 -10 -50 0 -27 -4 -50 -10 -50 -5 0 -10 23 -10 50 0 28 -4 50
-10 50 -5 0 -10 -22 -10 -50z m0 -100 c0 -16 -4 -30 -10 -30 -5 0 -10 14 -10
30 0 17 5 30 10 30 6 0 10 -13 10 -30z m40 0 c0 -16 -4 -30 -10 -30 -5 0 -10
14 -10 30 0 17 5 30 10 30 6 0 10 -13 10 -30z m40 0 c0 -16 -4 -30 -10 -30 -5
0 -10 14 -10 30 0 17 5 30 10 30 6 0 10 -13 10 -30z m40 0 c0 -16 -4 -30 -10
-30 -5 0 -10 14 -10 30 0 17 5 30 10 30 6 0 10 -13 10 -30z m-120 -80 c0 -16
-4 -30 -10 -30 -5 0 -10 14 -10 30 0 17 5 30 10 30 6 0 10 -13 10 -30z m40 0
c0 -16 -4 -30 -10 -30 -5 0 -10 14 -10 30 0 17 5 30 10 30 6 0 10 -13 10 -30z
m40 0 c0 -16 -4 -30 -10 -30 -5 0 -10 14 -10 30 0 17 5 30 10 30 6 0 10 -13
10 -30z m40 0 c0 -16 -4 -30 -10 -30 -5 0 -10 14 -10 30 0 17 5 30 10 30 6 0
10 -13 10 -30z"/>
</g>
</svg>
