<?xml version="1.0" standalone="no"?>
<!DOCTYPE svg PUBLIC "-//W3C//DTD SVG 20010904//EN"
 "http://www.w3.org/TR/2001/REC-SVG-20010904/DTD/svg10.dtd">
<svg version="1.0" xmlns="http://www.w3.org/2000/svg"
 width="32.000000pt" height="48.000000pt" viewBox="0 0 32.000000 48.000000"
 preserveAspectRatio="xMidYMid meet">
<metadata>
Created by potrace 1.10, written by Peter Selinger 2001-2011
</metadata>
<g transform="translate(0.000000,48.000000) scale(0.100000,-0.100000)"
fill="#ffffff" stroke="none">
<path d="M140 370 c0 -16 -4 -30 -10 -30 -5 0 -10 -9 -10 -20 0 -11 -4 -20
-10 -20 -5 0 -10 -18 -10 -40 0 -22 5 -40 10 -40 6 0 10 -9 10 -20 0 -11 5
-20 10 -20 6 0 10 -18 10 -40 0 -33 3 -40 20 -40 17 0 20 7 20 40 0 22 5 40
10 40 6 0 10 9 10 20 0 11 5 20 10 20 6 0 10 18 10 40 0 22 -4 40 -10 40 -5 0
-10 9 -10 20 0 11 -4 20 -10 20 -5 0 -10 14 -10 30 0 23 -4 30 -20 30 -16 0
-20 -7 -20 -30z m40 -50 c0 -11 5 -20 10 -20 15 0 12 -49 -4 -66 -28 -28 -66
-5 -66 40 0 14 5 26 10 26 6 0 10 9 10 20 0 13 7 20 20 20 13 0 20 -7 20 -20z"/>
<path d="M140 250 c0 -5 9 -10 20 -10 11 0 20 5 20 10 0 6 -9 10 -20 10 -11 0
-20 -4 -20 -10z"/>
</g>
</svg>
