<?xml version="1.0" standalone="no"?>
<!DOCTYPE svg PUBLIC "-//W3C//DTD SVG 20010904//EN"
 "http://www.w3.org/TR/2001/REC-SVG-20010904/DTD/svg10.dtd">
<svg version="1.0" xmlns="http://www.w3.org/2000/svg"
 width="32.000000pt" height="48.000000pt" viewBox="0 0 32.000000 48.000000"
 preserveAspectRatio="xMidYMid meet">
<metadata>
Created by potrace 1.10, written by Peter Selinger 2001-2011
</metadata>
<g transform="translate(0.000000,48.000000) scale(0.100000,-0.100000)"
fill="#ffffff" stroke="none">
<path d="M20 240 l0 -200 140 0 140 0 0 200 0 200 -140 0 -140 0 0 -200z m260
0 l0 -180 -120 0 -120 0 0 180 0 180 120 0 120 0 0 -180z"/>
<path d="M60 240 l0 -160 100 0 100 0 0 160 0 160 -100 0 -100 0 0 -160z m44
128 c5 -10 7 -10 12 0 3 6 23 12 44 12 21 0 41 -6 43 -12 4 -10 8 -9 16 2 5 8
13 11 18 7 4 -5 1 -13 -7 -18 -11 -8 -12 -12 -2 -16 17 -7 17 -199 0 -206 -10
-4 -9 -8 2 -16 8 -5 11 -13 7 -18 -5 -4 -13 -1 -18 7 -8 11 -12 12 -16 3 -6
-17 -80 -17 -86 0 -4 9 -8 8 -16 -3 -5 -8 -13 -11 -18 -7 -4 5 -1 13 7 18 11
8 12 12 3 16 -9 3 -13 34 -13 103 0 69 4 100 13 104 10 5 10 7 0 12 -15 7 -17
24 -4 24 5 0 12 -6 15 -12z"/>
<path d="M113 345 c-19 -21 -17 -192 1 -211 19 -18 73 -18 92 0 20 20 20 192
0 212 -19 18 -77 18 -93 -1z"/>
</g>
</svg>
