<?xml version="1.0" standalone="no"?>
<!DOCTYPE svg PUBLIC "-//W3C//DTD SVG 20010904//EN"
 "http://www.w3.org/TR/2001/REC-SVG-20010904/DTD/svg10.dtd">
<svg version="1.0" xmlns="http://www.w3.org/2000/svg"
 width="32.000000pt" height="48.000000pt" viewBox="0 0 32.000000 48.000000"
 preserveAspectRatio="xMidYMid meet">
<metadata>
Created by potrace 1.10, written by Peter Selinger 2001-2011
</metadata>
<g transform="translate(0.000000,48.000000) scale(0.100000,-0.100000)"
fill="#ffffff" stroke="none">
<path d="M160 410 c0 -5 -9 -10 -20 -10 -11 0 -20 -4 -20 -10 0 -5 -9 -10 -20
-10 -11 0 -20 -4 -20 -10 0 -5 -9 -10 -20 -10 -19 0 -20 -7 -20 -120 0 -113 1
-120 20 -120 11 0 20 -4 20 -10 0 -5 9 -10 20 -10 11 0 20 -4 20 -10 0 -5 9
-10 19 -10 11 0 22 -6 25 -12 5 -10 7 -10 12 0 3 6 14 12 25 12 10 0 19 5 19
10 0 6 9 10 20 10 11 0 20 5 20 10 0 6 9 10 20 10 19 0 20 7 20 120 0 113 -1
120 -20 120 -11 0 -20 5 -20 10 0 6 -9 10 -20 10 -11 0 -20 5 -20 10 0 6 -9
10 -20 10 -11 0 -20 5 -20 10 0 6 -4 10 -10 10 -5 0 -10 -4 -10 -10z m20 -20
c0 -5 9 -10 20 -10 11 0 20 -4 20 -10 0 -5 7 -10 16 -10 35 0 44 -26 44 -124
0 -57 -4 -96 -10 -96 -6 0 -10 40 -10 100 0 93 -1 100 -20 100 -11 0 -20 -4
-20 -10 0 -5 -9 -10 -19 -10 -11 0 -22 -6 -25 -12 -5 -10 -7 -10 -12 0 -3 6
-14 12 -25 12 -10 0 -19 5 -19 10 0 6 -9 10 -20 10 -11 0 -20 -4 -20 -10 0 -5
9 -10 20 -10 11 0 20 -4 20 -10 0 -5 9 -10 20 -10 19 0 20 -7 20 -100 0 -93
-1 -100 -20 -100 -11 0 -20 5 -20 10 0 6 -7 10 -16 10 -34 0 -44 26 -44 120 0
94 10 120 44 120 9 0 16 5 16 10 0 6 9 10 20 10 11 0 20 5 20 10 0 6 5 10 10
10 6 0 10 -4 10 -10z m60 -170 c0 -60 -4 -100 -10 -100 -6 0 -10 40 -10 100 0
60 4 100 10 100 6 0 10 -40 10 -100z m-40 -20 c0 -60 -4 -100 -10 -100 -6 0
-10 40 -10 100 0 60 4 100 10 100 6 0 10 -40 10 -100z"/>
</g>
</svg>
