<?xml version="1.0" standalone="no"?>
<!DOCTYPE svg PUBLIC "-//W3C//DTD SVG 20010904//EN"
 "http://www.w3.org/TR/2001/REC-SVG-20010904/DTD/svg10.dtd">
<svg version="1.0" xmlns="http://www.w3.org/2000/svg"
 width="32.000000pt" height="48.000000pt" viewBox="0 0 32.000000 48.000000"
 preserveAspectRatio="xMidYMid meet">
<metadata>
Created by potrace 1.10, written by Peter Selinger 2001-2011
</metadata>
<g transform="translate(0.000000,48.000000) scale(0.100000,-0.100000)"
fill="#ffffff" stroke="none">
<path d="M113 425 c-7 -8 -13 -21 -13 -30 0 -8 -4 -15 -10 -15 -5 0 -10 -9
-10 -20 0 -11 -4 -20 -10 -20 -5 0 -10 -18 -10 -40 0 -22 5 -40 10 -40 6 0 10
-18 10 -40 0 -22 5 -40 10 -40 6 0 10 -18 10 -40 l0 -40 60 0 60 0 0 40 c0 22
5 40 10 40 6 0 10 18 10 40 0 22 5 40 10 40 6 0 10 18 10 40 0 22 -4 40 -10
40 -5 0 -10 9 -10 20 0 11 -4 20 -10 20 -5 0 -10 7 -10 16 0 40 -79 61 -107
29z m87 -25 c0 -11 5 -20 10 -20 6 0 10 -9 10 -20 0 -11 5 -20 10 -20 6 0 10
-18 10 -40 0 -22 -4 -40 -10 -40 -5 0 -10 -18 -10 -40 0 -22 -4 -40 -10 -40
-5 0 -10 -13 -10 -30 0 -28 -2 -30 -40 -30 -38 0 -40 2 -40 30 0 17 -4 30 -10
30 -5 0 -10 18 -10 40 0 22 -4 40 -10 40 -5 0 -10 18 -10 40 0 22 5 40 10 40
6 0 10 9 10 20 0 11 5 20 10 20 6 0 10 9 10 20 0 17 7 20 40 20 33 0 40 -3 40
-20z"/>
<path d="M133 385 c-20 -22 -16 -25 27 -25 43 0 47 4 26 26 -18 18 -37 17 -53
-1z"/>
<path d="M100 70 c0 -6 27 -10 60 -10 33 0 60 4 60 10 0 6 -27 10 -60 10 -33
0 -60 -4 -60 -10z"/>
</g>
</svg>
