<?xml version="1.0" standalone="no"?>
<!DOCTYPE svg PUBLIC "-//W3C//DTD SVG 20010904//EN"
 "http://www.w3.org/TR/2001/REC-SVG-20010904/DTD/svg10.dtd">
<svg version="1.0" xmlns="http://www.w3.org/2000/svg"
 width="32.000000pt" height="48.000000pt" viewBox="0 0 32.000000 48.000000"
 preserveAspectRatio="xMidYMid meet">
<metadata>
Created by potrace 1.10, written by Peter Selinger 2001-2011
</metadata>
<g transform="translate(0.000000,48.000000) scale(0.100000,-0.100000)"
fill="#ffffff" stroke="none">
<path d="M100 330 c0 -5 -7 -10 -16 -10 -20 0 -44 -24 -44 -44 0 -9 -4 -16
-10 -16 -5 0 -10 -13 -10 -30 0 -16 5 -30 10 -30 6 0 10 -7 10 -16 0 -20 24
-44 44 -44 9 0 16 -4 16 -10 0 -6 27 -10 60 -10 33 0 60 4 60 10 0 6 7 10 16
10 20 0 44 24 44 44 0 9 5 16 10 16 6 0 10 14 10 30 0 17 -4 30 -10 30 -5 0
-10 7 -10 16 0 20 -24 44 -44 44 -9 0 -16 5 -16 10 0 6 -27 10 -60 10 -33 0
-60 -4 -60 -10z m120 -40 c0 -5 9 -10 20 -10 13 0 20 -7 20 -20 0 -11 5 -20
10 -20 6 0 10 -9 10 -20 0 -11 -4 -20 -10 -20 -5 0 -10 -9 -10 -20 0 -13 -7
-20 -20 -20 -11 0 -20 -4 -20 -10 0 -6 -27 -10 -60 -10 -33 0 -60 4 -60 10 0
6 -9 10 -20 10 -13 0 -20 7 -20 20 0 11 -4 20 -10 20 -5 0 -10 9 -10 20 0 11
5 20 10 20 6 0 10 9 10 20 0 13 7 20 20 20 11 0 20 5 20 10 0 6 27 10 60 10
33 0 60 -4 60 -10z"/>
</g>
</svg>
