<?xml version="1.0" standalone="no"?>
<!DOCTYPE svg PUBLIC "-//W3C//DTD SVG 20010904//EN"
 "http://www.w3.org/TR/2001/REC-SVG-20010904/DTD/svg10.dtd">
<svg version="1.0" xmlns="http://www.w3.org/2000/svg"
 width="32.000000pt" height="48.000000pt" viewBox="0 0 32.000000 48.000000"
 preserveAspectRatio="xMidYMid meet">
<metadata>
Created by potrace 1.10, written by Peter Selinger 2001-2011
</metadata>
<g transform="translate(0.000000,48.000000) scale(0.100000,-0.100000)"
fill="#ffffff" stroke="none">
<path d="M0 380 c0 -24 6 -25 26 -6 19 20 18 26 -6 26 -13 0 -20 -7 -20 -20z"/>
<path d="M100 390 c0 -5 -7 -10 -15 -10 -20 0 -65 -45 -65 -65 0 -8 -4 -15
-10 -15 -6 0 -10 -27 -10 -60 0 -33 4 -60 10 -60 6 0 10 -7 10 -15 0 -20 45
-65 65 -65 8 0 15 -4 15 -10 0 -6 27 -10 60 -10 33 0 60 4 60 10 0 6 7 10 15
10 20 0 65 45 65 65 0 8 5 15 10 15 6 0 10 27 10 60 0 33 -4 60 -10 60 -5 0
-10 7 -10 15 0 20 -45 65 -65 65 -8 0 -15 5 -15 10 0 6 -27 10 -60 10 -33 0
-60 -4 -60 -10z m40 -30 c0 -17 -7 -20 -40 -20 -22 0 -40 5 -40 10 0 6 9 10
20 10 11 0 20 5 20 10 0 6 9 10 20 10 13 0 20 -7 20 -20z m80 10 c0 -5 9 -10
20 -10 11 0 20 -4 20 -10 0 -5 -18 -10 -40 -10 -33 0 -40 3 -40 20 0 13 7 20
20 20 11 0 20 -4 20 -10z m-100 -60 c0 -5 -4 -10 -10 -10 -5 0 -10 -9 -10 -20
0 -11 -4 -20 -10 -20 -5 0 -10 9 -10 20 0 11 -4 20 -10 20 -5 0 -10 -9 -10
-20 0 -11 5 -20 10 -20 6 0 10 -9 10 -20 0 -11 -4 -20 -10 -20 -5 0 -10 -9
-10 -20 0 -11 5 -20 10 -20 6 0 10 9 10 20 0 11 5 20 10 20 6 0 10 -9 10 -20
0 -11 5 -20 10 -20 6 0 10 -4 10 -10 0 -5 -13 -10 -30 -10 -16 0 -30 5 -30 10
0 6 -9 10 -20 10 -18 0 -20 7 -20 60 0 53 2 60 20 60 11 0 20 5 20 10 0 6 14
10 30 10 17 0 30 -4 30 -10z m66 -4 c8 -8 14 -22 14 -30 0 -9 5 -16 10 -16 6
0 10 -9 10 -20 0 -11 -4 -20 -10 -20 -5 0 -10 -7 -10 -16 0 -18 -23 -44 -40
-44 -17 0 -40 26 -40 44 0 9 -4 16 -10 16 -5 0 -10 9 -10 20 0 11 5 20 10 20
6 0 10 7 10 15 0 20 21 44 38 45 7 0 20 -6 28 -14z m74 4 c0 -5 9 -10 20 -10
18 0 20 -7 20 -60 0 -53 -2 -60 -20 -60 -11 0 -20 -4 -20 -10 0 -5 -13 -10
-30 -10 -16 0 -30 5 -30 10 0 6 5 10 10 10 6 0 10 9 10 20 0 11 5 20 10 20 6
0 10 9 10 20 0 11 -4 20 -10 20 -5 0 -10 9 -10 20 0 11 -4 20 -10 20 -5 0 -10
5 -10 10 0 6 14 10 30 10 17 0 30 -4 30 -10z m-120 -190 c0 -13 -7 -20 -20
-20 -11 0 -20 5 -20 10 0 6 -9 10 -20 10 -11 0 -20 5 -20 10 0 6 18 10 40 10
33 0 40 -3 40 -20z m120 10 c0 -5 -9 -10 -20 -10 -11 0 -20 -4 -20 -10 0 -5
-9 -10 -20 -10 -13 0 -20 7 -20 20 0 17 7 20 40 20 22 0 40 -4 40 -10z"/>
<path d="M240 280 c0 -11 5 -20 10 -20 6 0 10 9 10 20 0 11 -4 20 -10 20 -5 0
-10 -9 -10 -20z"/>
<path d="M240 200 c0 -11 5 -20 10 -20 6 0 10 9 10 20 0 11 -4 20 -10 20 -5 0
-10 -9 -10 -20z"/>
<path d="M280 394 c0 -7 27 -34 34 -34 3 0 6 9 6 20 0 13 -7 20 -20 20 -11 0
-20 -3 -20 -6z"/>
<path d="M0 100 c0 -13 7 -20 20 -20 24 0 25 6 6 26 -20 19 -26 18 -26 -6z"/>
<path d="M293 105 c-18 -20 -16 -25 7 -25 13 0 20 7 20 20 0 23 -10 25 -27 5z"/>
</g>
</svg>
