<?xml version="1.0" standalone="no"?>
<!DOCTYPE svg PUBLIC "-//W3C//DTD SVG 20010904//EN"
 "http://www.w3.org/TR/2001/REC-SVG-20010904/DTD/svg10.dtd">
<svg version="1.0" xmlns="http://www.w3.org/2000/svg"
 width="32.000000pt" height="48.000000pt" viewBox="0 0 32.000000 48.000000"
 preserveAspectRatio="xMidYMid meet">
<metadata>
Created by potrace 1.10, written by Peter Selinger 2001-2011
</metadata>
<g transform="translate(0.000000,48.000000) scale(0.100000,-0.100000)"
fill="#ffffff" stroke="none">
<path d="M140 350 c0 -5 5 -10 10 -10 6 0 10 5 10 10 0 6 -4 10 -10 10 -5 0
-10 -4 -10 -10z"/>
<path d="M83 315 c-29 -31 -29 -35 2 -35 28 0 155 -118 155 -145 0 -21 7 -19
35 10 31 30 31 35 0 35 -28 0 -155 118 -155 145 0 21 -11 18 -37 -10z"/>
<path d="M193 325 c-7 -8 -13 -21 -13 -30 0 -18 36 -21 42 -3 3 9 10 8 22 -5
10 -10 15 -21 11 -25 -4 -4 -10 -1 -12 6 -7 19 -23 14 -23 -8 0 -24 25 -26 47
-4 14 13 14 17 2 25 -12 8 -12 10 0 18 12 8 12 12 -2 25 -19 20 -58 20 -74 1z"/>
<path d="M20 250 c0 -5 5 -10 10 -10 6 0 10 5 10 10 0 6 -4 10 -10 10 -5 0
-10 -4 -10 -10z"/>
<path d="M80 230 c0 -5 5 -10 10 -10 6 0 10 5 10 10 0 6 -4 10 -10 10 -5 0
-10 -4 -10 -10z"/>
<path d="M130 200 c-8 -12 -26 -20 -42 -20 -34 0 -35 -4 -3 -35 29 -30 35 -31
35 -7 0 10 9 24 20 32 19 14 28 50 12 50 -4 0 -14 -9 -22 -20z"/>
<path d="M180 110 c0 -5 5 -10 10 -10 6 0 10 5 10 10 0 6 -4 10 -10 10 -5 0
-10 -4 -10 -10z"/>
</g>
</svg>
